<?xml version="1.0" encoding="utf-8"?>
<!-- Generator: Adobe Illustrator 19.2.0, SVG Export Plug-In . SVG Version: 6.00 Build 0)  -->
<svg version="1.1" id="Layer_1" xmlns="http://www.w3.org/2000/svg" xmlns:xlink="http://www.w3.org/1999/xlink" x="0px" y="0px"
	 viewBox="0 0 250 340.7" style="enable-background:new 0 0 250 340.7;" xml:space="preserve">
<title>tzahui board logo b&amp;amp;W</title>
<path d="M35.5,0c0,2.2,0,4.3,0.1,6.5c0.1,1.7,0.2,3.5,0.4,5.2c0.4,5.5,1.1,11,2.1,16.5c1.1,6.2,2.2,12.3,3.7,18.4
	c1.3,5.4,3.1,10.8,5.2,15.9c0.8,1.7,1.7,3.4,2.7,5c0.6,0.9,1.2,1.8,1.7,2.8c0.3,0.6,0.5,1.2,0.5,1.8c0,0.7-0.4,1.4-1,1.7
	c-0.7,0.5-1.6,0.6-2.5,0.5c-2-0.2-3.9-0.6-5.9-1.2c-0.1,0-0.3,0-0.5,0c0.1,0.5,0.3,0.9,0.5,1.3c2.1,4.1,4.2,8.3,6.3,12.4
	c2.3,4.5,4.5,9,6.5,13.6c0.4,0.9,0.7,1.8,1.1,2.7c0.4-0.1,0.8-0.3,1.2-0.6c6.1-3.9,12.7-7,19.6-9.2c3-1,6.1-1.8,9.2-2.3
	c2.8-0.4,5.7-0.7,8.5-0.8c0.1,0,0.2,0,0.2,0.1c0,0.4-0.3,0.4-0.5,0.4l-5.3,1.6c-7.9,2.4-15.5,5.8-22.7,10
	c-4.9,2.9-9.4,6.2-13.5,10.1c-2.7,2.5-5,5.3-7,8.3c-1.4,2.1-2.4,4.5-2.8,7.1c-0.1,0.5-0.2,1-0.3,1.5c-0.4,1.5-1.8,2.5-3.3,2.4
	c-1.5-0.1-2.8-1.2-3-2.8c0-0.5,0-0.9,0.1-1.4c1.1-5.3,3.7-10.1,7.5-14c3-3.3,6.4-6.2,10-8.7l1.1-0.9c-0.4-0.6-0.8-1-1.1-1.6
	c-2.3-3.6-4.7-7.2-6.9-10.8c-2.9-4.7-5.8-9.5-8.6-14.2c-0.2-0.4-0.5-0.8-0.8-1.2c-0.3,0.3-0.4,0.8-0.4,1.2c-0.1,1.1-0.2,2.2-0.3,3.4
	S37,83,36.8,84.1c-0.1,0.6-0.4,1.2-0.7,1.7c-0.6,1.1-2,1.5-3.1,0.9c-0.2-0.1-0.3-0.2-0.5-0.3c-0.4-0.4-0.8-0.8-1.1-1.3
	c-0.4-0.6-0.7-1.3-1-1.9c-0.3-0.7-0.6-1.3-0.9-2c-2-4.9-5.2-9.3-9.3-12.6c-1.1-0.9-2.3-1.8-3.6-2.6c-1.1-0.8-2.6-1.2-3.9-1
	c-1.5,0.2-3-0.7-3.4-2.2c-0.5-1.4,0.1-3,1.4-3.7c0.3-0.2,0.7-0.3,1.1-0.4c2.9-0.4,5.8,0.2,8.2,1.9c3,1.9,5.7,4.3,8,7
	c1.4,1.7,2.7,3.5,3.9,5.3c0.2,0.4,0.5,0.7,0.8,1c0.1-0.1,0.2-0.2,0.2-0.4c0.2-1.2,0.4-2.4,0.7-3.6c0.1-0.6,0-1.3-0.4-1.8
	c-1.7-2.8-3.4-5.6-5-8.3c-0.5-0.8-1-1.5-1.4-2.3c-0.9-1.5-0.5-3.5,1.1-4.5c0.4-0.2,0.8-0.4,1.3-0.5c1.2-0.2,2.5,0.4,3.1,1.5
	c0.2,0.3,0.4,0.7,0.5,1c1.7,3.4,3.4,6.7,5.1,10.1c0.3,0.5,0.7,1,1.3,1.2c1.4,0.6,2.7,1.2,4,1.9c0.5,0.2,1,0.4,1.5,0.6
	c0.2-0.2,0.2-0.4,0-0.6c0,0,0,0,0,0c-2.8-6.1-4.9-12.6-6.3-19.2c-1-4.6-1.9-9.3-2.5-13.9c-0.5-3.5-0.8-7.1-1.2-10.6
	c-0.2-2.8-0.4-5.5-0.5-8.3c-0.2-3.4-0.1-6.8,0-10.1c0.1-1.6,0.3-3.3,0.7-4.9C35,0.6,35,0.3,35,0H35.5L35.5,0z"/>
<path d="M250,284c-0.1,0.3-0.4,0.6-0.7,0.8c-0.4,0.1-0.9,0.1-1.3-0.1c-0.4-0.2-0.8-0.5-1.2-0.7c-2.6-1.9-5.5-3.3-8.6-4.3
	c-2-0.8-4.1-1.3-6.2-1.4c-0.3,0-0.6-0.1-1.1-0.2c0.6-0.3,1.2-0.4,1.8-0.4c2.5-0.2,5,0.1,7.3,0.9c0.9,0.3,1.9,0.7,2.8,1
	c0.3,0.1,0.6,0.1,0.9,0.2c-0.6-1.2-1.3-2.2-1.8-3.3s-1.2-2.1-1.7-3.2s-1.1-2.3-1.6-3.4s-1-2.2-1.5-3.3s-0.9-2.2-1.4-3.4
	c-0.4-1.2-0.9-2.4-1.5-3.5c-0.2,1.1-0.4,2-0.6,2.9c-1,4.8-2.4,9.5-4,14.1c-0.2,0.5-0.4,1-0.6,1.4c-0.7,1.3-2.2,1.7-3.5,1.1
	c-0.4-0.2-0.8-0.6-1-1c-0.1-0.2-0.3-0.4-0.4-0.7c-1.6-3.3-3.5-6.5-5.5-9.6c-1.7-2.7-3.4-5.3-5.2-7.9c-0.8-1.2-1.7-2.3-2.6-3.4
	c-0.7-0.9-1.4-1.9-2-2.9c-0.4-0.6-0.6-1.3-0.6-2c-0.3-1.4,0.7-2.7,2.1-3c0.1,0,0.2,0,0.3,0c0.8-0.1,1.6,0,2.3,0.2
	c1.4,0.5,2.7,0.9,4,1.5c2.2,0.9,4.5,1.6,6.8,2.1c0.5,0.1,0.9,0.1,1.4,0.2c0.4,0,0.8,0.1,1.2,0.2c1.6,0.4,2.6,1.9,2.4,3.5
	c-0.2,1.6-1.6,2.9-3.2,2.8c-1.4,0-2.9-0.3-4.2-0.7c-0.5-0.2-1.1-0.3-1.6-0.4c-0.1,0-0.2,0-0.2,0.1c0,0.1,0,0.2,0,0.2
	c2.4,3.8,4.7,7.6,6.9,11.5c0.1,0.1,0.2,0.1,0.3,0.1c0.1-0.1,0.2-0.3,0.2-0.4c1.8-5.5,3.3-11,4.3-16.7c0.1-0.7,0.2-1.4,0.3-2.1
	c0.1-0.6,0.2-1.1,0.4-1.6c0.4-1,1.5-1.6,2.6-1.2c0.4,0.2,0.8,0.4,1,0.8c0.3,0.6,0.6,1.1,0.8,1.8c0.2,0.5,0.3,1.1,0.4,1.6
	c0.3,1.1,0.5,2.3,0.8,3.4c1.8,6.3,4,12.4,6.8,18.3c1.1,2.3,2.4,4.5,3.8,6.7c0.2,0.4,0.5,0.7,0.8,1c0.7,0.6,1.2,1.4,1.4,2.3L250,284
	L250,284z"/>
<path d="M115.4,340.7c-0.2-1-0.3-2-0.4-3.1c-0.3-2.9-0.4-5.9-0.3-8.8c0.2-2.9,0.4-5.8,0.7-8.7c0.2-2.5,0.5-4.9,0.8-7.4
	s0.8-4.9,1.2-7.3l0.2-1.3c-0.3-0.2-0.6-0.5-0.8-0.7c-1.2-1.4-1-3.4,0.4-4.6c0.5-0.5,1.2-0.7,1.9-0.8c0.2,0,0.4,0,0.7,0
	c4,0.3,8,0.6,12,1c2.3,0.2,4.5,0.7,6.7,1.4c0.6,0.2,1.1,0.4,1.7,0.7c1.5,0.7,2.1,2.4,1.4,3.9c-0.2,0.5-0.6,0.9-1,1.2
	c-2.4,1.7-4.7,3.4-7.2,4.9c-2.8,1.8-5.6,3.5-8.5,5c-0.2,0.1-0.4,0.2-0.6,0.4c0.2,0.1,0.3,0.2,0.5,0.3c2.1,1,4.1,2,6.1,3.2
	c1.5,0.9,3,1.9,4.4,3c0.5,0.4,1,0.9,1.4,1.5c0.8,0.9,0.9,2.3,0.2,3.2c-0.7,1.1-1.6,2.1-2.6,2.9c-2,1.7-4.1,3.2-6.3,4.5
	c-1.7,1-3.5,1.9-5.2,2.9c-1.6,0.8-3.3,1.4-5.1,1.9c-0.5,0.1-1,0.3-1.4,0.5L115.4,340.7L115.4,340.7z M120.2,320
	c-1.5,6.6-3,13.2-4.4,19.7c0,0.1,0,0.2,0.1,0.3c0.3-0.1,0.6-0.3,0.9-0.4c4-2.2,7.8-4.7,11.4-7.5c1.8-1.3,3.5-2.9,4.9-4.6
	c0.3-0.3,0.6-0.7,0.6-1.1C131.6,324.4,123.7,320.6,120.2,320z M123.9,304.7c-0.9,2.4-1.5,4.8-1.9,7.3c0.3,0,0.7-0.1,0.9-0.4
	c2.2-1.4,4.4-2.9,6.6-4.3c0.8-0.5,1.5-1,2.2-1.6c0.2-0.1,0.3-0.3,0.4-0.5C129.5,304.8,126.7,304.6,123.9,304.7L123.9,304.7z"/>
<path d="M21.4,206.8c-0.2-0.2-0.4-0.5-0.4-0.8c-0.1-2.2-0.1-4.4-0.2-6.6c-0.1-0.8,0.3-1.6,1-2.1c1.1-0.8,2.4-1.5,3.8-2
	c0.6-0.2,1.3-0.5,1.9-0.8c-3-2.2-3.4-5-2.4-8.3c-0.6-0.5-1-1.2-1-2c0-0.7,0.2-1.4,0.2-2.2c-0.2,0-0.4,0-0.5,0
	c-1.4,0.1-2.7-0.7-3.2-2c-0.7-1.3-1.1-2.7-1.1-4.1c0-0.6-0.1-1.3-0.2-1.9c-0.1-0.8,0-1.6,0.2-2.4c0.3-1.7,1.1-3.2,2.2-4.5
	c0.7-0.8,1.6-1.4,2.7-1.8c2.2-0.8,4.4-1.7,6.5-2.6c1.5-0.6,3-1.4,4.3-2.4c0.3-0.2,0.6-0.5,0.9-0.7c0.5-0.4,0.8-0.9,0.9-1.5
	c0.2-1,0.5-2,0.8-3c0.6-1.7,1.4-3.4,2.6-4.8c0.4-0.5,1-1,1.6-1.3c0.9-0.5,1.9-0.9,2.8-1.3c2.6-1,5.2-1.6,7.9-2
	c3.3-0.4,6.5-1.1,9.7-1.7c1.2-0.2,2.5-0.5,3.7-0.9c7.8-2.3,15.6-4.7,23.4-7c2.6-0.8,5.2-1.4,7.8-2c0.1,0,0.2-0.1,0.2-0.1
	c0.1-0.4,0.1-0.8,0-1.2c-0.5-3.6-1.3-7.3-2.3-10.8c-0.5-1.7-0.9-3.4-1.3-5.2c-0.3-1.4,0.2-1.9,1.5-1.7c1.2,0.2,2.4,0.5,3.5,1
	c4,1.8,7.7,4.4,10.7,7.7c2,2.1,3.8,4.4,5.3,6.9c0.9,1.5,1.5,3.1,1.9,4.8c0,0.1,0,0.3,0,0.4c-0.4-0.4-0.7-0.8-0.9-1.3
	c-2.2-3.8-4.9-7.1-8.2-10c-3-2.7-6.4-4.9-10-6.5c-0.4-0.2-0.8-0.3-1.3-0.5c0,0.3,0,0.6,0,0.8c0.6,2.6,1,5.3,1.4,7.9
	c0.4,2.5,0.6,4.9,0.5,7.4c0.2,0.1,0.3,0.1,0.5,0.1c2.9,0.1,5.8,0.4,8.7,0.9c3.1,0.5,6.2,1.1,9.3,1.7c1,0.2,1.9,0.5,2.9,0.7
	c0.4,0.1,0.8,0.1,1.2,0c0.1-0.2,0.1-0.3,0.2-0.5c0.3-1.4,0.7-2.9,1.2-4.2c1.5-4,3.2-7.9,5.3-11.6c3.1-6,6.8-11.6,11-16.9
	c1.2-1.5,2.7-2.8,4-4.2c0.3,0.2,0.1,0.4,0,0.6c-1.4,2.2-2.9,4.4-4.3,6.7c-1.2,1.8-2.3,3.7-3.4,5.5c-2.6,4.4-5.1,8.7-7.7,13.1
	c-1.9,3.3-3.7,6.8-5.2,10.4c-0.2,0.4-0.3,0.8-0.5,1.3c0.2,0.1,0.5,0.2,0.7,0.3c3,0.8,6,1.5,9,2.2c0.5,0.1,0.9,0.1,1.4-0.1
	c0.4-0.2,0.9-0.3,1.4-0.5c2.1-0.7,4.2-1.2,6.3-1.6c0.4-0.1,0.8-0.1,1.2-0.1c2.5-0.1,4.9-0.2,7.4-0.3c1,0,2,0.1,3,0.2
	c0.5-0.4,0.8-1,1-1.6c0.6-1.5,1.1-3,1.6-4.5c2.2-6.9,4.1-13.9,6-20.9c0.7-2.7,1.4-5.5,2.2-8.2c0.7-2.5,1.1-5.1,1.3-7.7
	c0.2-1.7,0.2-3.4,0-5.1c-0.1-0.7-0.3-1.4-0.5-2.1c-0.2-0.9-1.1-1.4-2-1.2c0,0,0,0,0,0c-0.4,0.1-0.8,0.2-1.1,0.3
	c-2.3,0.7-4.4,1.8-6.4,3.1l-2.5,1.5c0-0.2,0.1-0.3,0.2-0.4c2.1-2.2,4.7-3.9,7.4-5.2c0.7-0.3,1.4-0.5,2.1-0.7
	c1.6-0.5,3.2,0.4,3.8,1.9c0.6,1.4,0.9,2.8,1,4.3c0.1,2.1,0.1,4.2-0.1,6.2c-0.4,3.5-1.1,6.9-2.2,10.3c-2,7.1-4.3,14-6.8,20.9
	c-0.8,2.1-1.7,4.1-2.5,6.1c-0.4,1.1-1,2.1-1.8,3c0.2,0.1,0.5,0.2,0.7,0.4c1.3,0.4,2.6,0.8,3.8,1.3c6.1,2.5,10.6,7.9,12,14.3
	c0.1,0.6,0.2,1.1,0.3,1.7c0.1,0.2,0.1,0.4,0.2,0.6c0.2-0.1,0.4-0.2,0.6-0.4c1.9-1.9,3.9-3.8,5.7-5.7c3.2-3.4,6-7.1,8.3-11.2
	c1.5-2.6,2.9-5.2,4.1-8c0.9-2.1,1.6-4.3,2.4-6.4c0.9-2.6,1.6-5.2,2.1-7.9c0.4-2.1,0.7-4.2,0.7-6.3c0.1-0.9,0.1-1.8,0.1-2.7
	c0-0.5,0-1-0.1-1.4c-0.1-0.7-0.2-1.3-0.3-2.1c-0.2,0.1-0.3,0.2-0.5,0.3c-7.4,8-15.6,15.4-24.3,22c-3.7,2.9-7.5,5.7-11.3,8.5
	c-0.2,0.2-0.5,0.3-0.8,0.5c-0.1-0.3,0.1-0.4,0.3-0.5c0.1-0.1,0.3-0.2,0.4-0.4c5-4.4,10.1-8.8,15.1-13.2c5.4-4.8,10.7-9.7,15.7-15
	c1-1,1.9-2.1,2.9-3.2c0.8-0.8,1.4-1.8,1.9-2.8c0.1-0.4,0.4-0.8,0.8-1c0.4-0.3,1.1-0.3,1.4,0.2c0,0.1,0.1,0.1,0.1,0.2
	c0.5,0.8,0.8,1.7,1,2.7c0.2,0.9,0.3,1.7,0.3,2.6c0.3,6-0.6,12-2.5,17.7c-3.1,9.8-8.3,18.8-15.1,26.5c-1.6,1.9-3.5,3.6-5.5,5.1
	c-1,0.7-1.9,1.5-2.9,2.2c-0.2,0.2-0.4,0.3-0.5,0.5c0,0.4,0,0.8,0,1.2c0.3,2.7,0.1,5.4-0.5,8c-0.4,2.1-1.1,4.1-1.6,6.2
	c0,0.2-0.1,0.4-0.2,0.6c-0.5,0.9-0.7,2-0.6,3c-0.1,2.3-0.5,4.7-1.1,6.9c-0.8,3.2-1.9,6.4-3.2,9.5c-0.3,0.4-0.4,0.9-0.4,1.4
	c0.3,0,0.5,0.1,0.8,0.1c1.7-0.1,3.4-0.3,5.1-0.4c5.3-0.3,10.6-1.1,15.8-2.2c5.2-1,10.4-2.3,15.5-3.9c4.1-1.3,8.1-3.1,11.9-5.3
	c1.1-0.7,2.1-1.5,3-2.3c0.2-0.2,0.3-0.4,0.3-0.7c0.4-2.2,0.5-4.4,0.4-6.6c0-0.4-0.2-0.8-0.5-1c-0.9-0.9-2-1.7-3.1-2.4
	c-4.7-2.6-9.6-4.6-14.8-5.9c-5.1-1.4-10.2-2.5-15.4-3.3c-1.2-0.2-2.4-0.3-3.6-0.3c-1.5-0.1-2.9-0.1-4.4-0.1c-0.3,0-0.7-0.1-1.1-0.1
	c0.1-0.1,0.1-0.2,0.2-0.2c2-0.2,4.1-0.4,6.1-0.4c1.3,0,2.7,0,4,0.2c7.1,0.8,14.1,2.3,21,4.4c4.1,1.2,8,3,11.6,5.3
	c2.2,1.4,2.4,2.1,2.6,4.6c0,0.2,0,0.4,0,0.6c-0.2,2.1-0.3,4.2-0.5,6.4c0,0.5-0.3,1-0.7,1.3c-1.3,1.2-2.7,2.2-4.2,3.1
	c-4.4,2.4-9,4.2-13.9,5.4c-5.2,1.3-10.4,2.4-15.7,3.2c-2,0.3-4,0.6-6.1,0.8c-2.4,0.2-4.8,0.3-7.1,0.3c-2.2,0-4.3,0-6.5-0.1h-0.9
	c-0.7,1-1.2,2-1.5,3.2c-0.5,1.9-0.8,3.7-1,5.6c-0.4,3.2-0.6,6.4-0.5,9.6c0.1,2-0.3,4-1.2,5.8c-0.3,0.5-0.6,1-0.9,1.4
	c-0.4,0.4-0.8,0.8-1.4,0.9c-5,1.6-9.8,3.9-14.3,6.8c-1.4,0.9-2.6,1.9-3.9,2.8c-0.5,0.4-1,0.6-1.6,0.7c-0.8,0-1.6,0.1-2.3,0.1
	c-1.8,0-3.5,0.3-5.3,0.8c-3.3,0.8-6.5,2-9.5,3.4c-0.7,0.3-1.4,0.8-2.1,1.1c0.1,0.4,0.1,0.7,0.2,0.9c2.6,9.2,6,18.2,10.2,26.8
	c1.8,3.7,3.8,7.2,6.1,10.5c0.2,0.4,0.4,0.7,0.7,1.1c0,0.1,0,0.1-0.1,0.2c-0.5-0.4-0.9-0.8-1.3-1.2c-0.4-0.4-0.8-0.9-1.2-1.3
	s-0.9-1-1.3-1.5s-0.8-0.9-1.1-1.4s-0.7-1-1.1-1.5s-0.7-1-1-1.5s-0.7-1-1-1.5s-0.7-1.1-1-1.7s-0.6-1.1-0.9-1.6
	c-0.2-0.6-0.6-1.1-0.9-1.6c-0.1,0.1-0.2,0.2-0.2,0.4c-0.1,1.6-0.4,3.3-0.9,4.9c-0.9,3.2-2.1,6.3-3.5,9.2c-1.8,3.5-3.6,7-5.7,10.4
	c-1.8,2.9-3.8,5.6-6,8.2c-0.8,1-1.7,1.9-2.6,2.7c-0.7,0.6-1.4,1.2-2.2,1.6c-0.5,0.3-1,0.5-1.6,0.6c-0.8,0.3-1.8-0.1-2.1-1
	c-0.1-0.2-0.1-0.3-0.1-0.5c-0.2-1.5-0.4-3.1-0.4-4.6s-0.1-3-0.1-4.4c0-2.9-0.3-5.8-0.8-8.7c-0.4-2.3-0.7-4.5-1-6.8
	c-0.3-2.5-0.7-5.1-0.9-7.6c-0.3-2.9-0.7-5.9-0.9-8.8c-0.3-3.3-0.5-6.6-0.6-9.9c-0.1-1.8,0-3.6,0-5.4c-0.3-0.1-0.6-0.3-0.9-0.4
	c-9.9-2.7-19.8-5.4-29.8-7.8c-2.6-0.6-5.2-1.1-7.8-1.6c-8.7-1.8-17.2-4-25.6-6.8c-1.6-0.5-3.1-1.1-4.6-1.8c-0.7-0.3-1.3-0.7-2-1
	c0.1-0.1,0.1-0.1,0.2-0.2c2.9,1.2,5.8,2.2,8.9,3c6.8,1.8,13.5,3.3,20.3,4.6c3.5,0.7,7,1.2,10.5,2c5.7,1.3,11.5,2.7,17.2,4.1
	c4.4,1.1,8.8,2.2,13.2,3.4c0.9,0.2,1.8,0.2,2.7-0.1c2.8-1,5.6-2,8.5-2.9c3-1,6.1-1.6,9.3-1.8c0.7,0,1.3,0,2,0c0.5,0,0.9-0.1,1.4-0.3
	c4.2-2.1,8.6-3.6,13.3-4.5c1-0.2,2-0.2,3-0.3c0.4,0,0.9,0,1.3,0c1.1,0,2.2-0.3,3.1-1.1c1.8-1.4,3.8-2.7,5.8-3.7
	c2.3-1.2,4.6-2.4,7-3.4c1.5-0.6,3.1-1.2,4.7-1.6c0.7-0.2,1.3-0.7,1.7-1.3c0.6-1.1,1-2.4,1.1-3.7c0.1-1.2,0.1-2.4,0.2-3.6
	c0.1-4.1,0.6-8.1,1.5-12.1c0.3-1.3,0.8-2.6,1.5-3.9c1-2,1.9-4.2,2.8-6.3c1.3-3.1,2.3-6.3,3-9.6c0.2-0.9,0.3-1.7,0.4-2.6
	c0-0.2,0-0.4,0-0.6c-0.2-0.1-0.5,0.1-0.6,0.3c-2.7,3.3-6.2,5.7-10.3,7c-2.3,0.8-4.7,1.3-7.1,1.4c-4.2,0.3-8.5-0.1-12.6-1.2
	c-4.2-1.1-8.1-3.2-11.4-6.1c-2.6-2.2-4.7-5.1-6-8.2c-1.1-2.7-2.2-5.4-3.4-8c-1-2.4-2.1-4.7-3.1-7c-1.4-3.1-3.2-6.1-5.4-8.7
	c0.2-0.3,0.4,0,0.5,0.1c0.9,1.1,1.9,2.2,2.8,3.4c1.1,1.5,2,3.1,2.9,4.8c2.2,3.9,4.1,8,5.7,12.1c0.5,1.3,1.2,2.6,1.8,3.9
	c0.7,1.3,1.5,2.6,2.4,3.7c1.1,1.4,2.4,2.6,3.8,3.7c3.9,2.9,8.4,4.8,13.2,5.4c3.5,0.5,7.1,0.5,10.6,0c4.2-0.6,8.2-2.4,11.4-5.2
	c1.5-1.3,2.7-3,3.6-4.8c0.1-0.3,0.2-0.6,0.3-0.9c0.8-2.4,1.3-4.9,1.6-7.4c0.5-3.9,0.1-7.9-1.4-11.5c-2.4-6.1-7.8-10.4-14.3-11.4
	c-3-0.5-6.1-0.6-9.2-0.4c-2.2,0.2-4.4,0.6-6.5,1.3c-0.8,0.3-1.7,0.5-2.5,0.8c-0.8,0.3-1.7,0.3-2.5,0.1c-3.9-1-7.8-2-11.7-3
	s-7.9-1.8-11.8-2.6c-2.6-0.6-5.3-0.9-8-1c-1.1,0-2.3,0.1-3.3,0.4c-3.7,1-7.5,1.9-11.2,2.9c-5,1.3-10,2.6-14.9,4.2
	c-3.3,1-6.6,1.7-10,2c-3.4,0.3-6.7,0.9-10,1.7c-2.1,0.6-4.1,1.3-6.1,2.1c-1.8,0.7-3.2,2.1-4,3.9c-0.8,1.6-1.4,3.3-1.7,5
	c-0.1,1.2-0.8,2.2-1.7,2.9c-0.6,0.5-1.3,1-2,1.4c-2.2,1.4-4.5,2.5-6.9,3.4c-0.7,0.3-1.5,0.6-2.2,0.8c-1.6,0.5-3,1.7-3.7,3.3
	c-0.8,1.5-1.1,3.2-0.7,4.9c0.1,0.5,0.1,1,0.1,1.6c0,1.1,0.3,2.1,0.8,3c0.2,0.3,0.4,0.6,0.7,0.9c0.4,0.4,1.1,0.5,1.5,0.1
	c0.2-0.1,0.3-0.2,0.4-0.3c2-1.3,4.2-2.5,6.4-3.4c0.6-0.3,1.2-0.5,1.8-0.7c2.7-0.9,5.3-1.8,8-2.7c1.2-0.4,2.4-0.7,3.7-0.9
	c2.5-0.5,5-1,7.5-1.5c2.2-0.4,4.4-0.7,6.6-0.8c2.9-0.2,5.9-0.1,8.8,0.2c0.3,0,0.7,0.1,1,0.1c1.9,0.1,3.8,0.3,5.7,0.6
	c1.4,0.2,2.9,0.4,4.4,0.7c1.2,0.2,2.3,0.5,3.4,0.8c1.3,0.3,2.6,0.6,3.9,1c1.5,0.4,3.1,1,4.5,1.7c3.4,1.7,6.7,3.4,10.1,5
	c2.1,1,4.3,1.8,6.5,2.7c4.2,1.8,8.5,3.2,12.9,4.6c3,1,6.2,1.5,9.3,1.5c2.8,0.1,5.5,0.5,8.2,1.3c0.7,0.2,1.5,0.5,2.2,0.9
	c1,0.5,1.7,1.4,1.9,2.5c0.4,1.6,0.3,3.2-0.3,4.7c-0.2,0.6-0.6,1.2-1,1.7c-0.5,0.5-1.1,0.8-1.8,0.9c-4.2,0.5-8.5,0.6-12.7,0.7
	c-9.1,0.1-18.1,0.1-27.2-0.1c-5.1-0.1-10.2-0.2-15.2-0.3c-4.5-0.1-8.9-0.5-13.3-1.2c-2.1-0.4-4.3-0.6-6.4-1
	c-2.6-0.5-5.3-1.1-7.9-1.6c-2.2-0.5-4.5-1.1-6.6-1.9c-0.9-0.3-1.8-0.5-2.8-0.7c-3.1-0.7-6.3-1.1-9.5-1.2c-0.7,0-1.4,0-2.1,0.1
	c-0.3,0-0.6,0.1-0.9,0.2c-1,0.4-2.1,0.7-3.1,0.8c-2.2,0.5-4.4,1.2-6.5,2.2c-0.3,0.1-0.6,0.3-0.9,0.5c-1,0.5-1.6,1.5-1.5,2.6
	c0,2.1-0.1,4.2-0.1,6.2C21.3,206.3,21.3,206.5,21.4,206.8L21.4,206.8z M100.2,295.8c0.2-0.1,0.4-0.2,0.7-0.3
	c0.7-0.6,1.4-1.1,2.1-1.8c2.7-2.8,5.2-5.8,7.4-9.1c2.3-3.5,4.5-7.1,6.5-10.8c1.5-2.9,2.8-5.9,3.8-9c0.5-1.5,0.9-3.1,1.1-4.7
	c0.1-0.7,0-1.5-0.3-2.1c-1.6-3.8-2.9-7.8-3.8-11.9c-0.7-3-1.2-6.1-1.6-9.2c-0.1-0.3-0.1-0.5-0.2-0.8c-0.1,0-0.2-0.1-0.3-0.1h-0.5
	c-3.2-0.1-6.3,0.3-9.4,1.3c-4.1,1.2-8.1,2.6-12.1,3.9c0,0.4,0,0.7,0,1c0.3,2.9,0.6,5.9,0.9,8.8s0.7,5.9,1.2,8.9
	c0.5,3.7,1.1,7.4,1.7,11c0.5,3.3,1.2,6.6,1.7,9.9c0.2,1.2,0.4,2.4,0.5,3.6c0.2,2.2,0.2,4.4,0.3,6.6c0,0.6,0,1.1,0.1,1.7
	C100,293.6,100,294.6,100.2,295.8L100.2,295.8z M63.5,193.2c0.7,0.1,1.4,0.1,2.1,0c2.5-0.3,5-0.2,7.5,0.1l1.8,0.3c0.2,0,0.4,0,0.5,0
	c-0.1-0.4-0.3-0.8-0.6-1.1c-1.5-2.4-2.3-5.3-2.2-8.2c0.1-2.3,0.7-4.5,1.7-6.5c0.6-1.5,1.7-2.8,3.1-3.7c0.1-0.1,0.3-0.3,0.3-0.4
	c-0.5-0.3-1.1-0.3-1.7-0.2c-1.8,0.2-3.5,0.6-5.2,1.3c-3,1.1-5.5,3.2-7.1,6c-0.7,1.2-1.2,2.6-1.4,4C62,187.7,62.4,190.6,63.5,193.2z
	 M44.8,182.4c0,0.2,0,0.5,0,0.7c0.3,3,1,6,2,8.8c0.2,0.4,0.4,0.9,0.6,1.3c0.2,0.4,0.6,0.7,1.1,0.8c0.8,0.2,1.5,0.5,2.2,0.7
	c1.2,0.3,2.3,0.7,3.5,1c1.7,0.4,3.4,0.7,5.1,1c0.9,0.2,1.8,0.3,2.7,0.5c-0.1-0.4-0.4-0.7-0.8-0.9c-2.6-2-4.3-5-4.7-8.3
	c-0.1-1,0-2.1,0.1-3.1c0.1-1.4,0.6-2.8,1.4-3.9c0.1-0.1,0.1-0.3,0.2-0.4c0-0.1-0.1-0.1-0.1-0.2c-0.1-0.1-0.2-0.1-0.3-0.1
	c-1.9-0.6-4-0.6-5.9,0c-2.1,0.6-4.2,1.2-6.3,1.9C45.3,182.2,45.1,182.3,44.8,182.4L44.8,182.4z M79.4,181.3
	c-0.9,1.6-1.5,3.4-1.7,5.2c-0.2,2.2-0.1,4.4,0.3,6.6c0.5,2.4,1.6,4.5,3.3,6.3h6c0,0,0.1,0,0.1,0c0-0.1,0.1-0.1,0.1-0.2
	c-0.2-0.3-0.5-0.5-0.7-0.8c-1.7-2-2.2-4.7-1.5-7.2c0.6-2.3,2-4.3,4-5.6c0.5-0.2,0.9-0.5,1.1-0.9c-0.6-0.4-1.3-0.8-2.1-1
	C85.4,182.6,82.5,181.8,79.4,181.3L79.4,181.3z M91.3,199.3c3.8,0.3,7.6,0.4,11.3,0.1c0,0,0-0.1,0-0.1c-0.1-0.1-0.1-0.2-0.2-0.3
	c-2.7-2.6-3.2-5.8-2.2-9.3c0.5-1.7,1.3-3.2,2.4-4.5c0.1-0.1,0.2-0.3,0.2-0.4c-0.1-0.1-0.1-0.2-0.2-0.2c-2.8-1.3-6.1-0.5-7.9,2
	c-0.4,0.5-0.8,1-1.1,1.6c-0.5,1-0.9,2-1.3,3.1c-0.7,2.5-1.1,5.1-1.1,7.8C91.2,199.1,91.2,199.2,91.3,199.3L91.3,199.3z M59.2,178.5
	c1.9-1.7,3.2-4,3.7-6.5c-0.9-0.1-1.7-0.1-2.6-0.1c-2.2,0.2-4.3,0.4-6.5,0.6c-3.2,0.4-6.4,0.9-9.6,1.6c-0.3,0.1-0.6,0.2-0.9,0.3
	c0.4,1.9,0.8,3.8,1.3,5.7c0.4,0,0.8-0.1,1.2-0.4c1.3-0.8,2.7-1.4,4.2-1.7l0.6-0.2c2.2-0.6,4.5-0.7,6.7-0.1
	C57.9,178,58.6,178.2,59.2,178.5z M36.9,182.5c-0.3,0-0.5,0.1-0.8,0.1c-1.7,0.5-3.5,1-5.2,1.5c-1.5,0.4-3,1-4.4,1.7
	c-0.3,0.1-0.5,0.3-0.7,0.5c0.3,2.2,0.8,4.5,1.6,6.6c0.1,0.5,0.4,1,0.8,1.3c1.2-0.3,2.5-0.6,3.7-0.9c0.4-0.1,0.8-0.3,1.2-0.4
	c0.4-0.1,0.8-0.2,1.3-0.3c1.2-0.2,2.5-0.2,3.8-0.1c0.3,0.1,0.6,0,0.7-0.2c-0.8-0.8-1.5-1.7-2.1-2.7c-0.5-1.1-0.7-2.3-0.7-3.5
	C36,184.8,36.3,183.6,36.9,182.5z M79.5,174.1c-0.4,1.3-0.6,2.6-0.5,3.9c0,0.3,0.1,0.5,0.1,0.8c0.1,0.7,0.6,1.2,1.3,1.1c0,0,0,0,0,0
	c1.8,0.1,3.5,0.5,5.2,0.9c1.8,0.5,3.6,1.3,5.2,2.3c0.5,0.4,1.2,0.4,1.7,0.1c1-0.6,1.9-1.3,2.9-2c0.2-0.2,0.3-0.3,0.4-0.5
	c-0.3-0.2-0.4-0.3-0.6-0.4l-6.4-3.3c-0.3-0.1-0.6-0.2-0.8-0.4c-2.3-0.9-4.6-1.6-6.9-2.2C80.6,174.3,80.1,174.2,79.5,174.1z
	 M113.1,188.1l-6.5-2.6c-1.2,1.6-1.9,3.5-2,5.4c-0.1,1.2,0.1,2.3,0.4,3.5c0.6,1.8,1.9,3.2,3.6,4.1c0.2,0.1,0.4,0.1,0.6,0.1
	c0.1-1,0.2-1.9,0.4-2.8C110,193.1,110.8,190.4,113.1,188.1L113.1,188.1z M38.3,175.8c-0.4,0.1-0.7,0.1-1,0.2c-3.2,1-6.3,2.3-9.3,3.6
	c-1.1,0.5-2.1,1.2-3,1.9c-0.2,1-0.1,2.1,0.5,3c0,0,0.1,0,0.1,0l0.8-0.4c2.4-1.4,5.1-2.4,7.9-2.9c0.8-0.1,1.6-0.2,2.4-0.4
	c0.4-0.1,0.7-0.2,1.1-0.2C38.2,179.1,38.4,177.4,38.3,175.8z M63.7,197.3c4.9,0.9,9.9,1.5,14.8,1.8c0.2,0,0.4-0.1,0.6-0.1
	c-0.6-1.2-1.4-2.4-2.4-3.4c-1.4-0.1-2.9-0.3-4.4-0.4s-2.8-0.2-4.3-0.3c-1.5-0.2-2.9-0.2-4.4-0.2C63.3,195.5,63.3,196.5,63.7,197.3
	L63.7,197.3z M122.7,191.8c-1.8-0.2-3.6,0.3-5.1,1.4c-1.8,1.4-3.2,3.4-3.8,5.6c0,0.2-0.1,0.4-0.1,0.6c2.4,0.2,4.9,0.1,7.3-0.1
	C121,196.5,120.5,197.3,122.7,191.8L122.7,191.8z M126.5,191.6c-0.2,1.5,0,3.1,0.7,4.4c0.5,0.9,1.3,1.7,2.2,2.1
	c0.8,0.5,1.7,0.7,2.7,0.6c-0.1-0.4-0.3-0.8-0.4-1.2c-0.6-1.7-0.5-3.5,0.1-5.1c0.1-0.2,0.1-0.4,0.1-0.6
	C130.1,191.6,128.3,191.5,126.5,191.6L126.5,191.6z"/>
<path d="M232.2,76.5c-0.3-0.1-0.5-0.1-0.6-0.2c-3.3-1.3-6.6-2.5-9.8-3.8c-5.5-2.3-10.6-5.3-15.4-8.9c-2.2-1.6-4.3-3.3-6.5-5
	c-0.3-0.2-0.5-0.4-0.9-0.6c-0.1,0.3-0.2,0.5-0.3,0.7c-1.8,5.7-3.6,11.3-5.7,16.9c-0.6,1.7-1.3,3.4-2,5.1c-0.9,2.2-2,4.4-3.4,6.3
	c0.3,0.2,0.6,0.4,0.9,0.6c2.5,1.6,5.1,3,7.5,4.7c5.2,3.5,9.8,7.8,13.7,12.7c0.8,1,1.5,2,2.1,3.1c0.8,1.4,1.7,2.8,2.5,4.3
	c0.1,0.2,0.3,0.5,0.4,0.8c-0.4,0.3-0.5,0-0.7-0.2c-1.4-1.3-2.8-2.7-4.2-4.1c-5.5-5.4-11.6-10-18.2-13.8c-4-2.3-8.2-4.1-12.7-5.3
	c-1.4-0.4-2.8-0.6-4.2-0.7c-1.2-0.1-2.4,0-3.6,0.2c-0.7,0.2-1.5,0.1-2.2-0.1c-1.4-0.6-2.2-2.1-1.9-3.6c0.2-1.4,1.4-2.5,2.9-2.6
	c3.8-0.4,7.7,0.1,11.3,1.4c1.4,0.5,2.8,1.1,4.1,1.6l0.9,0.4c0.1-0.4,0.3-0.7,0.4-1c1.9-7.6,3.7-15.2,5.2-22.8
	c0.6-2.8,1.1-5.5,1.7-8.3c0.1-0.3,0.1-0.7,0.2-1.1l-2.4-2.5c-4.6-4.7-8.4-10-11.3-15.8c-0.8-1.7-1.5-3.5-2.2-5.3
	c-0.6-1.7,0.3-3.5,2-4.1c1.5-0.5,3.2,0.2,4,1.6c0.2,0.5,0.4,1,0.6,1.5c1.7,5.3,4.4,10.2,7.7,14.6c1.7,2.3,3.5,4.5,5.5,6.6
	c0.3,0.3,0.6,0.5,0.9,0.7c0.6,0.3,1,0.8,1.3,1.4c0.3,0.5,0.6,0.9,0.9,1.2c4.8,4.9,10,9.3,15.6,13.2c4.8,3.3,9.7,6.4,14.7,9.4
	c0.4,0.2,0.7,0.5,1.1,0.7C232.1,76.2,232.2,76.4,232.2,76.5z"/>
<path d="M97.8,65.6l-1-0.3c-1.7-0.5-2.7-2.2-2.3-4c0.1-0.3,0.2-0.6,0.4-0.8c0.3-0.5,0.8-0.9,1.3-1.2c0.5-0.2,1-0.5,1.6-0.7
	c0-0.3,0-0.6,0-0.9c0-4.8-0.2-9.5-0.5-14.3c-0.2-3.2-0.3-6.3-0.6-9.4c-0.2-2.9-0.6-5.7-0.9-8.5c-0.3-2.7-0.8-5.3-1.3-8
	c-0.1-0.4-0.1-0.9-0.1-1.3c0.1-0.9,0.7-1.6,1.6-1.8c0.9-0.3,1.9,0,2.4,0.7c0.4,0.6,0.7,1.2,0.8,1.9c0.2,0.7,0.3,1.5,0.4,2.2
	c1,5.1,2.6,10.1,4,15.1c2.3,7.4,4.7,14.8,7.3,22.1c0.1,0.2,0.1,0.3,0.2,0.5c1.7,0.2,3.3,0.8,4.7,1.6c-0.5,0.5-1.1,0.8-1.7,0.8
	c-0.7,0.1-1.3,0.3-1.9,0.6c1.8,4.9,3.5,9.7,5.5,14.5s4.2,9.3,6.3,14.1c-0.4-0.2-0.7-0.5-0.9-0.9c-3.6-5-6.6-10.4-9.1-16.1
	c-1.4-3.2-2.8-6.3-4.2-9.5c-0.2-0.4-0.3-0.8-0.6-1.2c-1.9,0.5-3.8,1.1-5.6,1.8c0,0.3-0.1,0.6-0.1,0.9c0,5.1,0,10.1-0.1,15.2
	c0,2.3-0.3,4.7-0.4,7c-0.1,1.7-1.6,3-3.4,2.9c-1.8-0.1-3.2-1.6-3.1-3.4c0,0,0,0,0,0c0-1,0.2-2,0.3-3c0.2-2.4,0.4-4.8,0.5-7.1
	c0.1-2.7,0.2-5.5,0.3-8.2C97.8,66.5,97.8,66.1,97.8,65.6z M103.1,44.9l-0.2,0c0.1,1.4,0.2,2.8,0.3,4.1s0.2,2.7,0.2,4
	c0,1.4,0.1,2.8,0.3,4.2l4-0.3c0-0.1,0-0.2,0-0.3c-1.5-3.8-2.9-7.6-4.4-11.3C103.3,45.1,103.2,45,103.1,44.9z"/>
<path d="M128.8,54.1c-0.1-0.9-0.2-1.6-0.4-2.4c-1.1-6.1-2-12.2-2.7-18.3c-0.4-3.1-0.7-6.3-1-9.4c-0.2-1.8,1.1-3.4,2.8-3.6
	c1.5-0.2,2.9,0.7,3.4,2c0.1,0.3,0.2,0.7,0.2,1c0.1,1.1,0.1,2.2,0.2,3.2c0.3,5.3,0.5,10.6,1,16c0.2,2.7,0.4,5.5,0.6,8.2
	c0.1,1,0.2,1.9,0.3,2.9c0.3,0.1,0.6,0.1,0.9,0.1c1,0,2,0,3,0c2.3,0,4.5,0.1,6.7,0.5c0.3,0,0.6,0,0.9,0c0.2-0.3,0.3-0.7,0.2-1.1
	c0-5.7,0-11.3,0.1-17c0-1.3,0-2.7,0-4c0-0.4,0-0.9,0.1-1.3c0.3-1.6,1.8-2.7,3.5-2.5c1.6,0.1,2.8,1.4,2.9,3c0,0.9,0,1.8-0.1,2.7
	c-0.2,2.8-0.4,5.6-0.7,8.4c-0.2,2.8-0.5,5.7-0.7,8.7c-0.1,1.3-0.2,2.7-0.3,4.1c1,0.6,2.3,1,2.9,2.3c-1.1,0.2-2-0.3-3.1,0
	c-0.3,1.8-0.4,3.6-0.6,5.4c-0.2,1.8-0.4,3.6-0.6,5.4s-0.4,3.6-0.6,5.4s-0.4,3.6-0.8,5.3c-0.4,0.2-0.9,0.2-1.4,0.1
	c-0.1-0.3-0.1-0.6-0.1-0.9c-0.1-2.8-0.2-5.5-0.3-8.3c-0.1-3.9-0.1-7.8-0.2-11.7c0-0.2,0-0.4-0.1-0.7c-1.3-0.1-2.5,0-3.8,0.2
	c-1.2,0.1-2.4,0.3-3.6,0.4c-1.3,0.1-2.5,0.3-3.8,0.6c0,0.3,0,0.6,0,0.9c0.3,3.3,0.6,6.6,0.9,9.8c0.4,2.8,0.5,5.7,0.3,8.6
	c-0.3,0.1-0.4-0.1-0.4-0.3c-1-2.4-1.8-5-2.3-7.6c-0.7-3.3-1.4-6.7-2.1-10c0-0.2-0.1-0.4-0.2-0.7c-0.3,0-0.5,0-0.8,0.1
	c-2.5,0.6-5.1,1.2-7.6,1.8c-0.7,0.2-1.3,0.2-2,0c-1.4-0.4-2.3-1.7-2.3-3.1c0-1.5,1.1-2.8,2.5-3.1c0.8-0.2,1.7-0.3,2.6-0.4l5.9-0.8
	L128.8,54.1z"/>
<path d="M217.4,18.8c0.1,0,0.2,0,0.3,0c1.4,0.6,2.8,1.2,4.1,1.9c1.7,1,3.2,2.4,4.2,4c2.2,2.9,3.4,6.4,3.7,10
	c0.4,4.8-1.1,9.6-4.3,13.3c-3,3.5-7.4,5.6-12,5.6c-1.4,0-2.8-0.1-4.1-0.4c-6.1-1.4-9.9-5.2-11.6-11.1c-1.4-4.7-0.4-9.8,2.7-13.6
	c2.6-3.4,6.7-5.3,10.9-5.1c1.2,0,2.4,0.2,3.6,0.5c4.5,1.3,7.2,4.4,8.2,8.9c0.6,2.5,0.3,5.2-0.9,7.5c-2.1,4.5-7.1,6.9-11.9,5.7
	c-3.4-0.7-5.9-3.6-6-7.1c-0.3-3.9,2.6-7.2,6.4-7.5c1.1-0.1,2.2,0.1,3.2,0.5c1.4,0.6,2.1,2.1,1.8,3.5c-0.3,1.6-1.7,2.6-3.3,2.5
	c-0.3,0-0.7-0.1-1-0.2c-0.3-0.1-0.7,0.1-0.8,0.5c0,0,0,0,0,0.1c-0.2,0.7,0.2,1.4,0.9,1.6c0,0,0,0,0.1,0c1.5,0.6,3.3,0.2,4.4-1
	c1.6-1.5,2.1-3.9,1.3-6c-0.6-2-2.2-3.5-4.2-4c-4.1-1.2-8.4,0.8-10.2,4.7c-1.6,3.1-1.5,6.8,0.1,9.9c1.4,3.1,4.2,5.2,7.5,5.9
	c5.6,1.2,10.2-0.6,13.6-5.1c2.3-3,3.4-6.8,3-10.5c-0.3-5.3-3-10.2-7.5-13.2l-2.3-1.6C217.4,18.9,217.4,18.9,217.4,18.8z"/>
<path d="M9,264.1c0.1,0.1,0.2,0.3,0.3,0.4c0,0.5-0.1,1-0.2,1.5c-0.6,2-1.3,3.9-2.3,5.6c-0.6,1.2-1.3,2.4-1.9,3.5l-0.3,0.6
	c0,0.1,0.1,0.1,0.1,0.1c0,0,0.1,0,0.1,0c2.2-0.9,4.4-1.6,6.7-2.1c2.7-0.7,5.5-1.3,8.2-1.9c2.5-0.5,5-0.9,7.7-1.4
	c-0.3-0.2-0.6-0.4-0.9-0.5c-2.7-1.1-5.4-2.4-8-3.9c-2.2-1.2-4.2-2.6-6.1-4.2c-0.8-0.7-1.5-1.4-2.2-2.2c-1-1-0.9-2.7,0.2-3.6
	c0.4-0.4,0.9-0.6,1.4-0.7c2.5-0.4,5-1.1,7.4-2c6-2,11.9-4,17.8-6.1c0.6-0.2,1.2-0.5,1.8-0.8c1-0.5,2.2-0.4,3.2,0.2
	c1.4,0.7,2.1,3.6,0.4,4.8c-1,0.7-1.8,1.7-2.2,2.8c-1,2-1.9,4-2.6,6.1c-0.5,1.4-1,2.9-1.4,4.3c-0.3,1.3-1.2,2.3-2.4,2.7
	c-0.1,0-0.2,0.1-0.2,0.1c0,0.1-0.1,0.1-0.1,0.2c0.4,0.1,0.8,0.3,1.2,0.4c1.1,0.4,2.2,0.8,3.3,1.3c0.6,0.2,1,0.6,1.3,1.2
	c0.4,0.7,0.3,1.6-0.3,2.1c-0.4,0.4-0.8,0.7-1.3,0.7c-0.7,0.1-1.4,0.2-2.1,0.3c-1.8,0.1-3.5,0.2-5.3,0.2c-2.3,0.1-4.7,0.3-7,0.6
	c-4,0.5-8,1.1-11.9,2c-2.2,0.4-4.3,1-6.4,1.8C4,279,2.9,279.5,1.9,280c-0.3,0.2-0.7,0.2-1,0.2c-0.4-0.1-0.7-0.3-0.9-0.7
	c0.2-0.9,0.5-1.8,1.1-2.5c0.4-0.6,0.9-1.2,1.3-1.8c2.3-2.9,4.2-6,5.8-9.2C8.5,265.4,8.7,264.7,9,264.1z M30.6,266.8
	c-0.9-1.1-1-2.7-0.4-4c0.9-2.3,1.7-4.5,2.5-6.8c0.1-0.2,0.1-0.4,0.2-0.6c-0.1-0.1-0.2-0.1-0.3-0.1l-14.5,4.2
	c-0.1,0.1-0.2,0.1-0.3,0.2C19.4,261.5,28,266.2,30.6,266.8L30.6,266.8z"/>
<path d="M79.1,81.5c0.5-0.1,0.9-0.3,1.2-0.6c0.8-0.5,1.8-0.9,2.8-1c1-0.1,2,0.1,2.8,0.7c0.2,0.1,0.4,0.2,0.6,0.3
	c0.7-0.6,1.2-1.3,1.4-2.2c0.6-1.5,1-3.1,1.3-4.8c0.2-1.1,0.4-2.1,0.6-3.2c0.1-0.3,0.2-0.7,0.2-1c0.2,0.1,0.3,0.3,0.2,0.6
	c0.3,1.9,0.3,3.9,0,5.8c-0.2,1.2-0.5,2.5-0.8,3.7c-0.2,0.9-0.7,1.7-1.3,2.4c-0.7,0.9-2,1.1-2.9,0.6c-0.2-0.1-0.3-0.2-0.4-0.3
	c-0.6-0.4-1.3-0.4-1.9-0.1c-0.6,0.3-1.1,0.6-1.6,1.1c-1.1,1-2,2.2-2.6,3.5c-0.2,0.3-0.3,0.6-0.4,0.9c-0.3,0.6-1,0.9-1.6,0.8
	c-0.4,0-0.8-0.3-1-0.8c-0.2-0.6-0.3-1.3-0.3-1.9c0-1.1,0-2.3,0.1-3.4c0.3-2.1,0.4-4.1,0.4-6.2c0-2.2,0.1-4.4,0.1-6.6
	c0-0.2,0-0.5,0-0.8c-0.4,0-0.3,0.3-0.4,0.5c-0.6,1.9-1.1,3.7-1.8,5.6c-0.4,1.3-1,2.6-1.8,3.7c-0.5,0.7-1,1.3-1.5,1.9
	c-0.9,1-2.2,1.6-3.6,1.7c-0.2,0-0.3,0-0.5,0.1c-0.1,0-0.1,0-0.1,0.1c-0.2,0.6-0.3,1.3-0.2,1.9c-0.1,1.2-0.9,2.3-2,2.7
	c-1.6,0.7-3.5,0-4.2-1.7c-0.2-0.4-0.2-0.8-0.3-1.2c0-0.4,0-0.8,0.1-1.2c0.2-2.2,0.5-4.3,0.8-6.5c0-0.2,0.1-0.4,0.1-0.7
	c0.7-0.1,1.3-0.2,2-0.1c0.7,0,1.3,0.1,1.9,0.1c0.6,0,1.3,0,2,0c0.9-1,1.5-2.2,2-3.4c1.2-3.1,2.2-6.2,2.8-9.5c0.9-4,1.5-8.1,2-12.2
	c0.2-1.8,0.4-3.6,0.6-5.4c0-0.3,0.1-0.7,0.2-1c0.3-1.4,1.7-2.2,3.1-1.8c0.3,0.1,0.6,0.2,0.9,0.4c0.7,0.5,1.2,1.3,1.4,2.1
	c0.4,1.3,0.6,2.6,0.7,4c0.3,4.1,0.4,8.2,0.2,12.3c-0.1,3.6-0.3,7.1-0.5,10.7c-0.2,2.8-0.4,5.7-0.7,8.6
	C79.1,81.1,79.1,81.3,79.1,81.5z"/>
<path d="M190.1,302.4c0.3,0.3,0.6,0.5,1,0.5c1.8,0.6,3.6,1.1,5.5,1.5c2.2,0.5,4.4,1,6.6,1.3c2.2,0.2,4.3,0.3,6.5,0.2
	c0.6,0,1.3,0,1.9,0c0,0,0.1,0.1,0.1,0.1c-0.1,0.1-0.1,0.2-0.2,0.2c-2,0.9-4.2,1.5-6.4,1.7c-3,0.2-6,0-8.9-0.4
	c-1.4-0.2-2.7-0.4-4.1-0.6c-0.2,0-0.5,0-0.7-0.1c-0.1,0.3-0.1,0.6,0.2,0.9c1.6,3,3.1,6,4.7,9c0.6,1.2,1.2,2.5,1.9,3.7
	c0.2,0.3,0.2,0.6,0.1,0.8c-0.3-0.2-0.5-0.4-0.7-0.5c-3.2-2.9-6.1-6.1-8.6-9.7c-3.7-5.1-7.1-10.5-10.1-16.1c-0.4-0.7-0.7-1.4-1.1-2.1
	c-0.3,0.1-0.6,0.2-0.8,0.3c-0.8,0.3-1.7,0.3-2.5,0c-1.7-0.7-2.4-2.6-1.7-4.2c0.2-0.5,0.6-1,1.1-1.4c1.8-1.3,3.7-2.4,5.8-3.2
	c2.7-1.2,5.5-2.1,8.4-2.8c1.7-0.4,3.5-0.5,5.3-0.4c0.6,0.1,1.3,0.2,1.9,0.4c1,0.3,1.7,1.4,1.5,2.4c0,0.8-0.2,1.6-0.4,2.4
	c-1.3,5.2-3.2,10.2-5.6,14.9l-0.5,0.9C190.1,302.3,190.1,302.4,190.1,302.4z M183.1,289.5c1.1,3,2.3,5.9,3.8,8.8
	c0.1,0.1,0.2,0.1,0.3,0.1c0.1-0.2,0.2-0.4,0.3-0.5c1.1-2.9,2-5.8,2.7-8.8c0.1-0.5,0.2-1,0.3-1.5c0-0.2,0-0.4,0-0.6
	C187.9,287.3,185.4,288.2,183.1,289.5L183.1,289.5z"/>
<path d="M183.1,337.7c-0.8-0.2-1.4-0.8-1.8-1.5c-1-1.5-1.9-3.1-2.8-4.7c-2.6-4.6-4.8-9.4-7-14.2c-0.2-0.4-0.4-0.9-0.6-1.3
	c-0.8,0.4-1.6,0.8-2.3,1.4c0,0.8,0.1,1.7,0.1,2.6c0.1,2.2,0.2,4.4,0.2,6.6c0,1-0.1,2-0.4,3c-0.4,1.7-2.1,2.8-3.9,2.4
	c-1.7-0.4-2.7-2-2.4-3.7c0.6-2.7,0.3-5.4,0.4-8c-3.1-1.4-3.1-5-0.3-6.4c0-0.4,0-0.8,0-1.1c-0.2-3.5-0.4-6.9-0.7-10.4
	c-0.1-1.4-0.4-2.8-0.6-4.2c-0.4-2.1-0.6-4.3-0.4-6.5c0.1-0.7,0.2-1.3,0.4-2c0.4-1.1,1.6-1.6,2.7-1.2c0.2,0.1,0.4,0.2,0.6,0.4
	c0.7,0.6,1.2,1.3,1.5,2.1c0.4,0.9,0.8,1.8,1.1,2.8c1.2,4.3,2.6,8.5,4.2,12.7c0.4,1.1,0.8,2.3,1.2,3.4c0.1,0.2,0.2,0.5,0.3,0.8
	l2.2-0.1c1.1-0.1,2.2,0,3.2,0.4c0.5,0.1,0.9,0.4,1.3,0.6c0.2,0.2,0.4,0.5,0.5,0.8c-1,0.4-2,0.7-3,1c-1,0.3-1.9,0.7-2.8,1.2
	c0.3,1.2,0.7,2.3,1.2,3.4c0.4,1.1,0.8,2.2,1.2,3.3s0.9,2.3,1.3,3.4s0.9,2.2,1.3,3.3s0.9,2.3,1.4,3.4s0.9,2.1,1.4,3.2
	C182.2,335.5,182.7,336.6,183.1,337.7z M168.8,311.4c-0.2-0.7-0.6-1.4-1.1-1.9c0.1,0.7,0.2,1.4,0.4,2.1L168.8,311.4z"/>
<path d="M66.8,318.3c-1-0.7-2-1.4-2.8-2.3c-0.9-0.8-1.7-1.6-2.5-2.4c-0.7-0.8-1.4-1.7-2-2.7c-0.6-1-1.1-2-1.7-3.1
	c-0.3,0.2-0.5,0.5-0.6,0.8l-4.8,8.3c-0.2,0.4-0.5,0.8-0.8,1.1c0-0.3,0-0.6,0-0.9c0.5-3.2,1.1-6.4,2-9.5c0.6-1.9,1.4-3.8,2.1-5.7
	c0.1-0.3,0.2-0.6,0.2-0.9c-0.1-1.1,0.4-2.2,1.2-2.8c0.2-0.2,0.4-0.4,0.5-0.6c1.3-2.6,2.7-5.2,4.4-7.6c-0.2-0.6-0.3-1.2-0.3-1.8
	c-0.1-1.7,1.3-3.2,3-3.3c0.4,0,0.8,0,1.1,0.1c0.4,0.1,0.7,0.3,1.1,0.4c0.4,0.2,0.9,0.3,1.4,0.3c0.7,0,1.3,0.2,1.8,0.7
	c0.4,0.4,0.9,0.7,1.4,0.9c3,1.2,6,2.6,8.8,4.1c1.2,0.6,2.3,1.4,3.5,2.1c0.6,0.3,1,0.8,1.4,1.4c0.7,1,0.6,2.5-0.3,3.3
	c-0.8,0.8-1.7,1.5-2.8,1.9c-1.8,0.7-3.8,1.1-5.7,1.3c-3.1,0.4-6.1,0.6-9.2,0.5c-1.5,0-3-0.2-4.6-0.3c0,0.3-0.1,0.6-0.1,0.9
	c0,1.4,0.2,2.8,0.7,4.1c0.6,1.9,1.2,3.9,1.9,5.8c0.6,1.7,1.2,3.4,1.7,5C66.7,317.6,66.8,318,66.8,318.3z M62.1,300.1
	c0.3,0,0.5,0,0.7-0.1c3.1-0.6,6.3-1.2,9.4-1.9c1.8-0.4,3.5-0.8,5.3-1.3c0.2,0,0.3-0.1,0.5-0.2c0.1-0.1,0.4,0,0.3-0.3
	c-3.4-1.6-6.8-2.9-10.4-3.8C65.6,294.9,63.6,297.4,62.1,300.1L62.1,300.1z"/>
<path d="M215.9,303.6c-0.4-0.1-0.7-0.4-0.9-0.8c-1.8-2.4-3.7-4.8-5.5-7.3c-3.1-4.2-6.2-8.4-9.3-12.5c-0.9-1.2-2-2.4-3-3.6
	c-0.6,0-1.1,0.1-1.6,0.1c-1.8,0-3.2-1.4-3.2-3.2c0-0.5,0.1-1.1,0.4-1.5c0.3-0.5,0.7-1,1.3-1.2c3-1.5,6.4-2.3,9.8-2.4
	c4,0,8.1,0.4,12,1.3c0.9,0.2,1.7,0.5,2.6,0.9c0.7,0.2,1.2,0.9,1.2,1.6c0.1,1,0.2,2.1,0.2,3.1c0,3.9,0,7.9-0.4,11.8
	c-0.2,3.3-0.8,6.5-1.5,9.7c-0.3,0.9-0.6,1.8-0.9,2.7C216.8,302.9,216.4,303.4,215.9,303.6z M203.4,277.3c0.1,0.2,0.1,0.3,0.2,0.5
	c3.2,5.1,6.1,10.5,8.9,15.9c1.3,2.5,2.3,5.2,3,8c0.1,0.3,0.2,0.6,0.3,1.1c1.1-2.8,0.3-20.7-0.7-25.2
	C212.9,276.9,205.8,276.7,203.4,277.3L203.4,277.3z"/>
<path d="M70.4,162.8c1.1-0.4,2.2-0.5,3.3-0.4c2,0.2,4.1,0.6,6,1.2c3,1,6,2.3,8.8,3.9c2.2,1.2,4.4,2.2,6.7,3.2
	c8.5,3.5,17.3,6.5,26.2,9.1c6,1.8,12,3.6,18.1,5.1c2.8,0.7,5.6,1.3,8.4,1.9c1.2,0.2,2.3,0.9,3,1.9c0.8,1.2,1.3,2.6,1.3,4
	c0.2,3.5-0.5,7-1.9,10.3c-0.3,0.6-0.6,1.1-0.9,1.6c-0.7,0.9-1.7,1.6-2.8,1.7c-0.9,0.1-1.7,0.2-2.6,0.3c-5,0.2-10.1,0.5-15.1,0.7
	c-1,0-2.1,0-3.1,0l-18.1-0.5c-4.9-0.1-9.8-0.3-14.7-0.4c-1.7-0.1-3.3-0.2-4.9-0.4l-11.3-1L66,204l-7.3-0.6c-2.3-0.2-4.7-0.4-7-0.7
	c0.3,0,0.6-0.1,1,0c2.9,0.1,5.8,0.2,8.7,0.4l8.4,0.4c5.1,0.2,10.1,0.4,15.2,0.7c5.5,0.3,11,0.4,16.5,0.4c8.4,0.1,16.8,0.2,25.2,0.3
	c2.5,0,5-0.1,7.5-0.2c2.3-0.1,4.6-0.2,6.9-0.4c1.6-0.1,3.1-0.4,4.6-0.6c0.7-0.1,1.3-0.5,1.6-1.1c0.6-1,1-2.1,1.3-3.3
	c0.5-2.3,0.8-4.6,0.7-7c0-0.7-0.2-1.3-0.5-1.9c-0.4-0.7-1-1.1-1.7-1.3c-5.2-1.2-10.4-2.5-15.5-4.1c-2.8-0.8-5.5-1.8-8.3-2.8l-23.2-8
	c-0.7-0.2-1.5-0.6-2.2-0.9c-1.4-0.6-2.7-1.3-4.1-1.9c-3.2-1.5-6.4-3.1-9.4-4.9c-3.2-1.8-6.8-3-10.4-3.6c-0.7-0.1-1.5-0.1-2.2-0.1
	C71.4,163,70.9,163,70.4,162.8z"/>
<path d="M90.1,300.1c0.7-1.7,1.9-2.6,3.7-2.4c1.5,0.2,2.3,1.1,2.9,3.1c0.2,0.1,0.4,0.1,0.6,0.2c3.7,0.5,7.5,1.1,11.2,1.6
	c1.4,0.2,2.8,0.5,4.2,0.8c1,0.2,1.9,0.6,2.7,1.2c0,0.3-0.2,0.3-0.4,0.3c-1.5,0.4-3,0.7-4.6,0.8c-4.6,0.3-9.1,0.2-13.7,0.2h-1.8
	c-1,1.7-1.9,3.4-2.6,5.2l1.2,0.4c2.5,0.7,5,1.6,7.5,2.6c1.2,0.5,2.3,1.2,3.3,2.1c0.1,0.1,0.1,0.2,0.2,0.3c0,0.2-0.2,0.4-0.4,0.4
	c0,0,0,0,0,0c-1,0-1.9,0.1-2.9,0c-2.2-0.2-4.4-0.4-6.6-0.6l-5.3-0.5c-1,1.3-1.9,2.6-2.8,3.9s-2,2.6-3,3.9s-1.9,2.5-3,3.7
	c-0.2-0.3-0.2-0.6,0-0.9c1.2-3.2,2.5-6.4,3.7-9.6c0.2-0.4,0.3-0.9,0.5-1.4c-0.6-0.2-1.3-0.3-1.9-0.4c-0.4,0-0.9-0.1-1.3-0.2
	c-1.7-0.6-2.5-2.5-1.9-4.2c0.6-1.5,2.1-2.3,3.6-2c1,0.2,2,0.5,3,0.8c0.2,0,0.4,0.1,0.6,0.1c0.7-1.1,1.1-2.3,1.4-3.6
	c-0.2,0-0.5-0.1-0.7-0.1c-0.7,0-1.3,0-2,0c-1.8-0.1-3.1-1.6-3.1-3.4s1.6-3.1,3.4-3.1c1,0,2,0.2,3,0.4L90.1,300.1z"/>
<path d="M62.3,278.4c0,0.2,0,0.3-0.1,0.5c-0.3,1.3-0.7,2.5-1,3.8c-1.3,5-4.1,9.5-8,12.8c-2.1,1.9-4.4,3.3-7,4.3
	c-3.2,1.3-6.7,1.5-10.1,0.5c-1.3-0.3-2.5-1.1-3.3-2.2c-2.1-2.8-3.1-6.4-2.6-9.9c0.2-2.3,1-4.6,2.3-6.5c0.5-0.7,0.9-1.4,1.3-2.1
	c1.6-2.4,3.7-4.4,6.2-5.8c1.7-1,3.4-1.9,5.1-2.8c1.5-0.8,3.4-0.3,4.3,1.2c0,0,0,0.1,0.1,0.1c0.8,1.6,0.2,3.5-1.3,4.3c0,0,0,0,0,0
	c-0.2,0.1-0.4,0.2-0.6,0.3c-1,0.5-2,1-2.9,1.4c-3.4,1.5-6.3,4.2-8.1,7.5c-1.6,2.6-1.7,5.9-0.4,8.6c0.4,0.9,1.2,1.5,2.1,1.7
	c2.1,0.5,4.2,0.5,6.3-0.1c3.4-1.1,6.6-3,9.1-5.6c2.7-2.6,4.9-5.7,6.6-9.1c0.4-0.8,0.8-1.6,1.3-2.4c0.1-0.2,0.3-0.4,0.4-0.6
	L62.3,278.4z"/>
<path d="M140.8,313.6c-0.1-3.1,0.6-6.1,1.9-8.9c0.6-1.3,1.5-2.4,2.6-3.4c1-0.9,2.3-1.6,3.6-1.9c1.7-0.5,3.4,0.4,3.9,2.1
	c0,0.1,0.1,0.3,0.1,0.4c0.1,0.4,0.3,0.8,0.7,1c2.6,1.6,4.5,4.1,5.3,7.1c0.8,2.6,0.9,5.4,0.4,8.1c-0.3,2-0.8,4-1.7,5.8
	c-0.5,1.2-1.2,2.3-2.1,3.2c-1.6,1.8-4,2.6-6.4,2.1c-1.5-0.3-2.8-1.1-3.8-2.2c-1.3-1.3-2.2-2.9-2.9-4.6c-0.5-1.5-1-3-1.2-4.5
	C140.9,316.5,140.8,315,140.8,313.6z M152.8,304.1c-0.1,0-0.2,0.1-0.3,0.1c-0.6,0.8-1.4,1.3-2.4,1.5c-0.5,0.1-1,0.4-1.3,0.9
	c-0.7,0.8-1.2,1.7-1.6,2.7c-0.6,1.6-0.9,3.4-0.9,5.1c0.1,1.7,0.3,3.3,0.6,5c0.2,1,0.6,2,1,2.9c0.3,0.8,0.8,1.5,1.5,2
	c0.8,0.8,2,0.8,2.8,0c0.1-0.1,0.2-0.2,0.3-0.3c0.8-0.9,1.5-1.8,2-2.9c0.9-1.9,1.5-3.9,1.7-6c0.4-2.6,0.1-5.2-1-7.6
	C154.7,306.1,153.9,305,152.8,304.1L152.8,304.1z"/>
<path d="M126,157.1c0.1,0,0.2,0.1,0.3,0.1c0.2,0.3,0.4,0.7,0.5,1c1,2.1,2,4.2,3,6.3c0.3,0.6,0.7,1.2,1.1,1.8
	c1.9,2.5,4.4,4.5,7.2,5.9c3,1.5,6.3,2,9.6,1.4c2.7-0.5,5.3-1.7,7.5-3.4c0.5-0.4,0.9-0.9,1.3-1.4c2.1-2.6,3.2-5.9,3-9.3
	c-0.2-5-3.6-9.3-8.4-10.7c-2.7-0.8-5.5-0.7-8.2,0.2c-1.2,0.4-2.3,0.9-3.4,1.6c-2.5,1.6-4.1,4.2-4.4,7.2c-0.3,2.4,0.6,4.8,2.4,6.4
	c1.5,1.4,3.4,2.4,5.5,2.7c1.6,0.2,3.1,0,4.6-0.7c2-0.9,3.3-2.9,3.4-5.1c0-0.1,0-0.3,0-0.4c0-1-0.8-1.8-1.7-1.8c-0.2,0-0.4,0-0.5,0.1
	c-0.5,0.2-1,0.4-1.4,0.6c-0.5,0.3-1,0.7-1.5,1c-0.4,0.2-0.9,0.4-1.3,0.6c-1.8,0.5-3.7-0.5-4.3-2.3c0-0.1-0.1-0.2-0.1-0.3
	c-0.4-1.6,0.5-3.1,2.1-3.5c0.3-0.1,0.7-0.1,1-0.1c-0.4,0.2-0.8,0.4-1.1,0.5c-1.2,0.6-1.7,2-1.1,3.2c0.5,1.3,1.9,2,3.2,1.5
	c0.7-0.3,1.4-0.7,2-1.2c0.5-0.4,1-0.7,1.5-1c1.5-0.9,3.4-0.3,4.2,1.1c0.3,0.4,0.4,1,0.4,1.5c0.2,2-0.6,4-2,5.5
	c-1.5,1.6-3.6,2.6-5.9,2.7c-1.2,0.1-2.3-0.1-3.5-0.4c-1.8-0.5-3.6-1.5-5-2.7c-2.6-2.2-3.8-5.7-3.1-9c0.5-3.4,2.5-6.5,5.5-8.3
	c1.9-1.3,4-2.1,6.2-2.6c3.1-0.6,6.3-0.2,9.1,1.3c4.6,2.1,7.7,6.6,8,11.7c0.3,3.4-0.5,6.7-2.4,9.5c-0.5,0.8-1.1,1.6-1.7,2.3
	c-0.9,1.1-2,2-3.3,2.7c-2.2,1.2-4.6,1.9-7,2.2c-3.1,0.4-6.3-0.1-9.1-1.5c-5-2.3-8.9-6.4-10.8-11.6c-0.5-1.3-0.8-2.6-1.3-4
	C126.2,158,126,157.6,126,157.1L126,157.1L126,157.1z"/>
<path d="M181.5,57.2c0,0.2,0,0.5,0,0.7c-0.8,2.6-1.5,5.2-2.4,7.8c-1.1,3-2.5,5.8-4.2,8.5c-1.1,1.6-2.4,3.1-3.8,4.4
	c-1.2,1.1-2.8,1.7-4.4,1.6c-1.1,0-2.2-0.4-3-1.1c-0.8-0.7-1.5-1.6-2-2.6c-1.2-2.7-2-5.5-2.3-8.5c-0.5-4.1-0.6-8.2-0.4-12.3
	c0.1-1.1,0-2.2,0.1-3.2c0-0.5,0.1-0.9,0.3-1.4c0.6-1.4,2.1-2.3,3.6-1.9c1.4,0.2,2.5,1.4,2.6,2.8c0,0.3,0,0.7,0,1
	c-0.2,2.2-0.4,4.4-0.6,6.6c-0.3,3.7-0.3,7.3,0.1,11c0.2,1.3,0.5,2.6,1,3.8c0.6,1.5,1.2,1.7,2.4,0.7c1.8-1.4,3.4-3.1,4.7-5
	c1.1-1.7,2.3-3.4,3.4-5.1c1.4-2.2,2.7-4.3,4-6.5C180.9,58.2,181.1,57.8,181.5,57.2z"/>
<path d="M164.4,197.1l1,0.7c6.6,4.7,12.6,10.2,17.7,16.4c4,4.6,7.6,9.5,10.9,14.6c3.5,5.5,6.1,11.5,7.7,17.8c0,0.2,0.1,0.3,0.1,0.5
	c0.1,0.7-0.4,1.4-1.1,1.5c0,0,0,0,0,0h-0.5c-7.4,0.2-14.8-0.7-21.8-2.8c-7.5-2.2-14.6-5.3-21.4-9.1c-3.6-2.1-7-4.6-10.1-7.4
	l-2.4-2.1c-0.2-0.2-0.3-0.3-0.5-0.5c0.2-0.1,0.5,0,0.6,0.2c0.8,0.6,1.7,1.2,2.5,1.9c5.8,4.5,12.3,8.1,19.1,10.8c3,1.2,6,2.2,9.1,3.1
	s6.2,1.6,9.3,2.4c2.6,0.6,5.1,0.7,7.7,1.1c2,0.2,4.1,0.2,6.1,0c0.2,0,0.4-0.1,0.6-0.1c-0.1-0.3-0.1-0.5-0.1-0.8
	c-0.5-2.2-1.2-4.3-2.1-6.3c-1.2-2.5-2.4-5-3.7-7.4c-4.8-8.4-10.6-16.2-17.3-23.2c-3.3-3.6-6.9-7-10.6-10.2c-0.3-0.2-0.6-0.5-0.9-0.8
	L164.4,197.1z"/>
<path d="M86.7,156.4c-0.2-0.7-0.3-1.1-0.4-1.5c-0.5-1.9-0.3-3.9,0.7-5.5c0.6-1,1.5-1.8,2.6-2.2c1.5-0.6,3.1-0.8,4.7-0.7
	c3.7,0.3,6.8,3,7.6,6.6c0.7,3.4-0.5,6.8-3,9.1c-0.5,0.5-1.1,0.8-1.8,1c-0.5,0.2-1.1,0-1.4-0.4c-0.4-0.4-0.4-1.1-0.1-1.6
	c0.3-0.4,0.6-0.7,0.9-1c1-1,1.6-2.3,1.8-3.7c0.4-2-0.6-4-2.4-4.9c-0.7-0.4-1.4-0.6-2.2-0.8c-0.7-0.1-1.4,0-2,0.3
	c-0.8,0.3-1.5,1-1.6,1.9c-0.1,0.6-0.2,1.3-0.2,1.9c0.1,1.2,1,2.2,2.2,2.3c0.6,0,1.1-0.2,1.6-0.5c0.3,0.2,0.1,0.4,0,0.6
	c-0.3,0.3-0.6,0.6-1.1,0.7c-1,0.3-2,0.5-3.1,0.4c-2.1-0.1-4.2-0.6-6.2-1.5c-3.7-1.6-7.3-3.3-11-5c-1.7-0.8-3.5-1.4-5.3-1.7
	c-1.1-0.2-2.2-0.2-3.2,0.1c-0.7,0.2-1.3,0.4-2,0.6l-10.7,4.1c-0.4,0.2-0.8,0.3-1.3,0.3c0.1-0.1,0.3-0.3,0.5-0.4
	c2.3-1.4,4.6-2.9,6.8-4.3c0.3-0.2,0.7-0.4,1-0.5c0.7-0.3,1.4-0.5,2-0.8c1.7-0.7,3.4-1.1,5.2-1.4c0.3-0.1,0.5-0.1,0.8-0.1
	c2.5,0.1,4.9,0.6,7.2,1.7c2.2,1,4.3,2.1,6.3,3.4c1.6,1,3.3,1.9,5,2.7C85.4,156,86,156.2,86.7,156.4z M90.4,157.4l-0.6-0.7
	c-0.5-0.6-0.8-1.3-0.9-2.1c0-0.6,0-1.1,0-1.7c0-1,0.5-2,1.3-2.6c0.4-0.3,0.9-0.6,1.4-0.9c0.2-0.1,0.4-0.1,0.4-0.5h-0.8
	c-1.8-0.1-3.4,1-3.9,2.6c-0.6,1.4-0.7,3-0.4,4.5c0,0.3,0.2,0.6,0.5,0.7C88.3,157.1,89.4,157.3,90.4,157.4L90.4,157.4z"/>
<path d="M142.8,286.6c0.3,0.1,0.6,0.2,0.8,0.3c2.1,1.2,4.3,2.2,6.6,2.9c0.9,0.3,1.8,0.5,2.7,0.6c1,0.2,2.1-0.3,2.4-1.3
	c0.7-1.4,1.1-2.9,1.2-4.5c0.3-3.6,0.3-7.2-0.1-10.8c-0.4-4.5-1.1-8.9-1.8-13.4c-0.8-5.2-2-10.3-3.3-15.4c-1-3.9-2.1-7.8-3.1-11.7
	c-0.1-0.3-0.2-0.6-0.3-0.8l0,0c0.1,0,0.2,0.1,0.3,0.1c0.1,0.2,0.2,0.5,0.3,0.7c2,5.2,4,10.5,5.6,15.9c1.2,4.1,2.1,8.4,2.9,12.6
	c0.5,2.6,0.9,5.2,1.2,7.8c0.4,4,0.5,8.1,0.3,12.2c-0.1,2-0.5,4-1.1,5.9c-0.3,1.2-0.9,2.2-1.8,3.1c-0.5,0.5-1.1,0.7-1.8,0.7
	c-0.9,0-1.8-0.1-2.7-0.4c-1.2-0.4-2.4-0.9-3.6-1.5c-1.8-0.8-3.4-1.9-4.9-3.1L142.8,286.6L142.8,286.6z"/>
<path d="M146.9,117.9c0.2-0.3,0.4-0.6,0.6-0.9c1.4-1.8,2.6-3.7,3.4-5.8c1-2.6,2-5.2,3.1-7.7c0.7-1.9,1.5-3.8,2.2-5.7
	c0.1-0.3,0.2-0.7,0.4-1c-0.2-0.2-0.6-0.1-0.8,0.1c-2.2,1-4.9,0.2-6.1-2c-1.3-2.1-1.7-4.7-1.1-7.1c0.5-2.2,1.8-4.1,3.6-5.5
	c0.2-0.1,0.4-0.3,0.6-0.5c0.1-0.1,0.2-0.3,0.1-0.4c-0.1-0.1-0.2-0.2-0.4-0.3c-0.5,0-1,0.1-1.5,0.4c-0.8,0.4-1.4,1-2,1.7
	c-0.8,0.9-1.4,1.9-1.9,2.9c-1,2.2-1.7,4.5-2,6.8c-0.3,2.7-0.3,5.3,0.1,8c0.4,2.6,0.9,5.1,1.6,7.6c0.6,2.1,0.8,4.3,0.6,6.4
	c0,0.7-0.2,1.5-0.6,2.1c0-0.1-0.1-0.3-0.1-0.4c0-0.1,0.1-0.2,0.1-0.4c0-0.7,0.1-1.3,0.1-1.9c0-2.1-0.4-4.2-1-6.3
	c-1-2.9-1.7-5.8-2-8.9c-0.5-4.1-0.1-8.3,1.3-12.2c0.6-1.8,1.6-3.5,2.8-5c0.8-1.1,1.9-1.9,3.2-2.4c0.7-0.4,1.5-0.4,2.3-0.1
	c0.9,0.5,1.4,1.4,1.4,2.4c0,0.3-0.2,0.5-0.4,0.7c-0.4,0.4-0.9,0.7-1.3,1.1c-2.2,1.7-3.3,4.3-3.1,7c0,1.4,0.5,2.7,1.4,3.8
	c1.1,1.4,3,1.7,4.4,0.7c0.6-0.4,1.2-0.9,1.7-1.4c0.4-0.3,0.7-0.6,1.1-0.9c0.2-0.2,0.5-0.2,0.7,0c0.2,0.2,0.3,0.4,0.2,0.7
	c-0.1,0.2-0.1,0.4-0.2,0.6c-0.2,0.4-0.4,0.8-0.5,1.2c-1.9,3.7-3.5,7.6-5.1,11.5c-0.8,1.9-1.7,3.8-2.6,5.7c-0.6,1.2-1.3,2.3-2,3.3
	c-0.5,0.6-1.1,1.3-1.7,1.8C147.2,117.8,147.1,117.9,146.9,117.9L146.9,117.9z"/>
<path d="M142.8,286.6v0.1c0.1,0.6,0.3,1.1,0.7,1.5c0.3,0.3,0.5,0.7,0.8,1c0.2,0.4,0.1,0.8-0.3,1.1c-0.1,0-0.1,0.1-0.2,0.1
	c-0.1,0-0.3,0.1-0.4,0.1c-2.1,0.3-4.3-0.4-5.8-1.9c-2-2-3.2-4.7-3.3-7.5c-0.1-1.8,0-3.6,0.3-5.3c0.6-4.1,1.7-8,2.6-12
	c0.6-2.4,1.1-4.8,1.3-7.3c0-0.7,0.1-1.5,0.1-2.2c0.2,0.4,0.3,0.9,0.3,1.4c0.1,1.9,0,3.7-0.4,5.6c-0.6,3-1.2,6-1.8,9
	c-0.4,2.3-0.8,4.7-1.1,7.1c-0.3,2.1-0.1,4.2,0.4,6.2c0.5,1.8,1.6,3.4,3.1,4.5c0.7,0.6,1.7,0.9,2.6,0.8c-0.1-0.3-0.2-0.5-0.3-0.8
	c-0.6-0.9-1-1.9-1.3-3c-0.7-2-0.6-4.2,0.1-6.2c0.4-1.2,1.3-2.2,2.4-2.8c1.4-0.9,3.1-0.5,4.1,0.8c0.3,0.4,0.6,0.8,0.9,1.2
	c0.1,0.2,0.3,0.3,0.6,0.7c0-0.3,0-0.7-0.1-1c-0.9-3.9-2.1-7.7-3.7-11.3c-1.6-3.7-3.2-7.4-4.9-11.1c-0.2-0.5-0.3-1-0.5-1.5
	c0.1,0.1,0.2,0.2,0.2,0.3c2.2,4.5,4.5,8.9,6.7,13.4c2.1,4.4,3.4,9.1,4.1,13.9c0,0.3,0.1,0.5,0.1,0.8c0,0.3-0.3,0.6-0.7,0.6
	c-0.1,0-0.2-0.1-0.3-0.1c-0.3-0.2-0.6-0.5-0.8-0.9c-0.7-1-1.4-2-2-3c-0.3-0.4-0.6-0.8-1-1.2c-0.4-0.6-1.3-0.7-1.9-0.3
	c-0.6,0.2-1,0.6-1.4,1.2c-0.6,0.9-0.9,1.9-0.9,2.9c0,1.3,0.2,2.5,0.6,3.7C142.1,285.6,142.4,286.1,142.8,286.6z"/>
<path d="M21.4,206.8c0.1,0.1,0.2,0.1,0.3,0.2c0.3-0.1,0.7-0.1,1-0.1c-0.3,0.2-0.5,0.4-0.8,0.6c-0.8,0.5-1.6,1.1-2.2,1.8
	c-0.7,0.8-1.1,1.7-1.1,2.7c-0.1,2.1-0.2,4.2-0.3,6.2c0,0.4,0,0.7,0,1.1c0.5,0.4,1.1,0.5,1.7,0.4c0.6-0.1,1.2-0.4,1.8-0.8
	c0.8-0.6,1.6-1.1,2.5-1.7c0.6-0.4,1.3-0.9,1.9-1.4c0.8-0.6,1.4-1.5,1.6-2.5c0.1-0.5,0.6-0.8,1-0.7c0.2,0,0.4,0.1,0.5,0.3
	c0.1,0.1,0.1,0.1,0.2,0.2c0.5,0.6,1.3,0.8,2,0.5c2.3-0.9,4.6-2,6.9-3.1c1.2-0.7,2.2-1.5,3.2-2.4c0.5-0.5,0.7-1.1,0.8-1.7
	c0.3-1.9,0.4-3.8,0.3-5.7c0-0.5-0.2-1-0.2-1.6c-1.2-0.2-2.4,0.2-3.3,1c-0.5,0.4-0.9,0.8-1.4,1.2c-0.4,0.3-0.9,0.5-1.4,0.6
	c-0.4,0.1-0.7,0-1-0.3c-0.3-0.3-0.3-0.7-0.2-1l0.5,0.7c0.6,0.2,1.2,0,1.6-0.4c0.5-0.4,1-1,1.5-1.4c0.9-1,2.3-1.5,3.6-1.5
	c0.5,0,0.9,0.3,1.1,0.8c0.1,0.4,0.2,0.8,0.3,1.3c0.3,1.9,0.3,3.9,0,5.8c0,0.2-0.1,0.4-0.1,0.6c0,1.1-0.5,2.2-1.3,2.9
	c-0.5,0.6-1.1,1.1-1.8,1.5c-1.5,1.1-3.1,2.1-4.8,2.9c-1,0.4-2,1-3,1.5c-1,0.5-2.1,0.7-3.1,0.4l-0.5-0.1c-0.6,0.6-1.2,1.1-1.8,1.6
	c-1,0.9-2,1.6-3.2,2.3c-0.6,0.3-1.1,0.7-1.6,1.1c-1.1,0.7-2.4,1-3.7,0.7c-0.9,0-1.7-0.7-1.7-1.6c0-0.1,0-0.1,0-0.2
	c0-0.4,0-0.8,0-1.2c0.1-1.3,0.2-2.6,0.3-3.9c0.1-0.7,0.3-1.4,0.3-2.1c0.2-1.7,1.1-3.2,2.5-4.1C20.7,207.7,21.1,207.3,21.4,206.8
	L21.4,206.8L21.4,206.8z"/>
<path d="M199.9,166.4c0,0-0.1,0-0.1,0.1c-1.2-0.5-2.4-0.6-3.7-0.4c-1.1,0.1-2.2,0.3-3.6,0.5c0.3,0.2,0.6,0.3,0.9,0.5l3.7,1.3
	c0.3,0.1,0.6,0.3,0.8,0.5c-0.6-0.1-1.1-0.1-1.7-0.2l-8.2-1.3c-0.4-0.1-0.8-0.1-1.1-0.3c-0.3-0.1-0.6-0.5-0.5-0.8
	c0-0.4,0.2-0.7,0.6-0.8c0.3-0.1,0.6-0.1,0.9-0.1c3.1-0.2,6.2-0.2,9.3,0c0.9,0,1.8,0.3,2.6,0.8C199.7,166.2,199.8,166.3,199.9,166.4z
	"/>
<path d="M199.5,180.8c-0.4-0.1-0.7-0.1-1.1-0.1c-0.4,0-0.8,0-1.1,0.1c-1.5,0.6-3,1.3-4.4,2.2c0,0.2,0.2,0.4,0.4,0.4c0,0,0.1,0,0.1,0
	h3.5c0.3,0,0.6,0.1,0.9,0.2c-0.4,0.1-0.9,0.2-1.4,0.3l-8.2,1.5c-0.3,0.1-0.5,0.1-0.8,0.1c-0.4,0-0.8-0.2-0.9-0.6
	c-0.1-0.4,0-0.8,0.4-1c0.3-0.2,0.5-0.3,0.8-0.4c2.8-1.3,5.7-2.3,8.7-3.1c0.8-0.2,1.6-0.2,2.4,0C199.1,180.5,199.3,180.6,199.5,180.8
	z"/>
<path d="M205.3,175.6c1.7,0.5,3.3,0.5,5,0.9c-0.2,0.1-0.3,0.1-0.4,0.1h-0.3l-7.4,0.4c-0.4,0-0.9,0-1.3,0c-0.2,0-0.3,0-0.5-0.1
	c-0.3-0.1-0.6-0.4-0.6-0.8c0-0.3,0.1-0.6,0.4-0.8c0.2-0.1,0.5-0.2,0.7-0.3c2.5-0.9,5.1-1.5,7.7-1.9c0.4-0.1,0.9-0.1,1.3-0.1
	c0.9,0,1.6,0.5,2,1.2c-0.8-0.8-2-1-3.1-0.5l-3,1.2C205.7,175.3,205.5,175.5,205.3,175.6z"/>
<path d="M41.6,164.2c-0.8-1.8-0.1-3.4,0.5-5.1l-1.4-0.7l0.8-0.6c0.7-0.4,1.3-0.9,2-1.2c0.4-0.3,0.8-0.5,1.3-0.6
	c0.5-0.1,1.1,0.2,1.2,0.8c0,0.2,0,0.4,0,0.6c-0.1,0.4-0.3,0.8-0.6,1.1c-1.3,1.7-2.4,3.6-3.4,5.5C41.9,164.1,41.8,164.2,41.6,164.2z"
	/>
<path d="M50.1,202.6h-0.8l0,0H50.1L50.1,202.6z"/>
<path d="M200.5,167.3l-0.1,0.1C200.4,167.4,200.4,167.4,200.5,167.3c-0.1,0,0-0.1,0-0.1V167.3z"/>
<path d="M138.8,253.5l-0.1,0.8C138.4,254,138.5,253.7,138.8,253.5z"/>
<path d="M147.9,232.6v-0.4l0,0V232.6L147.9,232.6z"/>
<path d="M146.9,117.9c0,0.1,0,0.2,0,0.2c-0.1,0.1-0.2,0.1-0.3,0.1c0-0.1,0.1-0.2,0.1-0.3C146.8,117.9,146.9,117.9,146.9,117.9
	L146.9,117.9z"/>
<path d="M139.1,254l-0.4-0.6L139.1,254z"/>
<path d="M138.5,253C138.5,253,138.5,253,138.5,253C138.4,253,138.4,252.9,138.5,253C138.5,252.9,138.5,252.9,138.5,253
	C138.5,252.9,138.5,253,138.5,253z"/>
<path d="M126,157.1v-0.2C126,157,126,157,126,157.1C126,157,126,157.1,126,157.1L126,157.1L126,157.1z"/>
<path d="M105.8,143.8L105.8,143.8l0.1,0.1c0,0-0.1,0-0.1,0C105.8,143.9,105.8,143.8,105.8,143.8z"/>
<polygon points="163.6,196.6 163.6,196.7 163.5,196.6 "/>
</svg>
