<svg id="Layer_1" data-name="Layer 1" xmlns="http://www.w3.org/2000/svg" viewBox="0 0 484.68 89.56"><title>mictlan-logo-wht</title><path d="M161.41,73.11l1.45,0.13a21.08,21.08,0,0,1,3.92-5.84l0-.25-8.22-1.53,0,0.6-0.55,0-0.17-4.52q0.85-4.77,2.39-10.73L163,44.78l-10.95.81L150.63,51l0,0.3-0.85,5.58L150,57.26l-0.34.26-0.08.6,0.17,1.49-0.34.26,0.08,4.43a97.88,97.88,0,0,1-8.16-13.14A126.73,126.73,0,0,1,131.59,22q0.2-1.64-12.9-5.9-1.24.5-4.32,4.42h0.35q3.57,18.75,2.73,26.39l-1.24,5.06-0.64,0-0.64-.74q-9-11-10.91-18.21-2.23-.25-10.22,1.34l-0.35,0a13.52,13.52,0,0,0,.15,4.86l-0.3,0L93,50.85l-0.35,0-0.05.69,0.25,1-0.45,1L92.6,55,89.67,66.08l-0.05.4H90l8.83,2.38a1.48,1.48,0,0,0,1.49-1.24l-0.3-.05a31.82,31.82,0,0,0,2.18-7.79l0.64-6.15-0.15-1.74q6.4,9.48,10.07,16.32l11.06,0.2a31.26,31.26,0,0,0,2.93-10.81,62.9,62.9,0,0,0-.35-16.37l0-.69,0.35,0Q126.68,42,128.91,47q2.48,8.83,12.2,22.17,10,11.21,19.1,13.2l6.9,0.4,1.34,0.1,2.48-.05,0.3,0.4,0.4-.35,0-.35q-6-1.69-14-9.12A12,12,0,0,1,161.41,73.11Z" style="fill:#fff"/><path d="M157,39.71q8.14,0.26,8.95-5,1.32-4.26-3.41-4.56l-1.92.17q-3.19-.77-4.47,4.43Q153.91,39.16,157,39.71Z" style="fill:#fff"/><path d="M192.25,57.39q-4.13,6.39-8.22,6.73t-5.94-1q-1.85-1.34-2.45-5.35-1-8.22,10.78-15.42L194,39.71V39.28q-8.18-3.83-11.5-3.83-16.15,7-16.15,18.7,0,11.5,9.37,16.15l4.22,1.32h0.47q11.67,0,16.15-7.63Q195,56.32,192.25,57.39Z" style="fill:#fff"/><path d="M268.63,59.22a119.16,119.16,0,0,1-13.72-22.71l-4.73-.21-0.3,0-0.3-.26v0.26a22.14,22.14,0,0,1-4.72-1l1.48-.52q1.92,0.21,4.52-5.79l0-.26-0.3-.34-11.67,3.49V31.57q-3.1.74-6.53,1.32,1.45-7.86,3.3-10.27V22.37l-3.32.34q-6.56-.08-6.6,2c-1,3.24-1.88,6.39-2.65,9.48-1.28.13-2.58,0.26-3.91,0.36H219l1.66-4.6,0-.3-8.73.55q-1.66-.21-2.9,4.77-0.09.85-9,.51a5.47,5.47,0,0,0-2.48.28,26.16,26.16,0,0,0-7-1.56h-3V34.6q0,1.11,8.1,3.1h0l0.13,2.22,1.79,0.68,2.22-.13L200,40.82l0.6,0,1.53-.13,1.19,0.13,1.7,0.51-2.51,9.54,0,0.3-0.85,5.58,0.26,0.34-0.34.26-0.09.6,0.17,1.49-0.34.26,0.08,4.81q1.15,9.63,4,10,5.28-1.83,7.92-1.53l1.45,0.13a21.06,21.06,0,0,1,3.92-5.84l0-.26-8.22-1.53,0,0.6-0.55,0-0.17-4.52q0.85-4.77,2.39-10.74l3.54-7.71q0.21-2.6,4.43-2.47l1.59-.18a116.15,116.15,0,0,0-2.19,15.94l-0.34.89,0.3,0-0.38,1.11,0.17,1.53v0.3l-0.3.3,0.21,1.75,0.09,5.24,0.21,5.37H222l0.3,0,0.34-.3a18.38,18.38,0,0,1,5.24,1.79V74.17l0.34-.3,0.2-3,8.4,0.39,0.34,0L240.64,72l0.43-.85-0.72-1.28,3-6.22q0.43-4,13-3.71l0.09-1.15-0.3-.08q-2.43-3.79-4.64-4l-0.26,0-5.07,0,1.36-7.28,0.34-3.24,0.6,0q-0.09.77,2.26,3.83a65.51,65.51,0,0,0,9.71,15q8.39,7.5,15.17,9.12,6.9-1.32,9.37-1.06l0-.6q-2.85-.34-11.25-6.26Zm-29-16L235.83,56l-2.51.89,0.21,3.92a38.71,38.71,0,0,1-5.15,7.68l-0.09-.56,0.34-.26-0.17-1.75V65.57l0.3-.3-0.26-.89q0.17-2.56.34-5L230.33,45q0.45-3.18,1-6,4.59-.92,9-2.21l-0.67,6.21-0.3.3h0.3Z" style="fill:#fff"/><path d="M428.19,54.71Q448.47,39.38,448.77,30q0-3.79-6.73-5.58-11.67-2.13-35.31,4.47a7.74,7.74,0,0,0-4.35,2.6v0.89c0.35,0.48.67,1,1,1.45-2.67.09-4.39,0.91-5.12,2.48l0,0.6a33.22,33.22,0,0,1,1.83,13.25l-0.55,6q-1.7,5.37-3.41,7l-0.85-.38q-4.3-6.18-3.79-11.93l0.64-6.65-0.3-.3-2.77.64a9,9,0,0,0-3.94-4.83L381,38.71l-1.38-.12-9.21-.16c-8,1.16-22.09,3.86-41.87,8l-0.33-.38-0.28.08a29.35,29.35,0,0,1-11.32,1.25,1,1,0,0,1-1.06-.58l0-.36c2.25-3.24,7.36-8.36,15.18-15.2,9.43-7.33,13.9-10.29,16-11.34-0.47.94-1,2.14-1.59,3.59l-0.23.21-0.1.14c-2.74,5.56-5.48,9.6-8.15,12l-0.14.13-0.06.94,0.44,0.65L348,36.46,352.37,29l6.08-12-10.18.4-0.12.13,0,0-10,.62c-0.44,0-1.16-.09-15.11,12.72a132.76,132.76,0,0,0-9.74,9.67l0-.09,1.79-5.45q4.09-10.48,6.48-13.33l0-.26-3.37.21q-6.52-.38-6.69,1.66-9.84,16.61-11.42,31l-0.38.89,0.3,0-0.43,1.11,0.13,1.53,0,0.3-0.3.26,0.13,1.79,0,0.34-0.3,0L295,55q-7.92-10.1-21.68-17.25-0.09.6-9.37,0.81L268.37,45q4.13,9.2,3.62,13.5l-0.3.26,0.17,0.89q0.94,1.88,6.22,6l0.3,0a30.49,30.49,0,0,0,3.19-10.1l0.09-.89q0-.51-3-2.43l0-.3,0.3,0q8.86,4.56,16.49,18.49l3.62-.21,0,0.34,0.34-.3,2.6,0.55,0.3,0.08,0.34-.3a17.93,17.93,0,0,1,5.16,2V72.51l0.34-.3,0.51-4.43-0.17-1.53L308.8,66l-0.08-1.79V63.9l0.34-.25-0.21-.89q0.51-3.07,1-5.77c0.13,0,.25.06,0.39,0.08,4.35,0.47,15.06-2.54,32.7-9.2a225.5,225.5,0,0,1,31.74-5.19L374.9,43l1.83-.1L378,43.07A2.34,2.34,0,0,1,380,44l0,0.13c-1.05,3.49-5.49,9.14-13.2,16.81a61.17,61.17,0,0,1-10.08,9.15,26,26,0,0,0,2.71-8.8,26.46,26.46,0,0,0-.31-7.59l0-.11a11.37,11.37,0,0,0-6.42-6.06l-0.13,0-0.13,0c-8.89,2.07-8.91,2.39-9,2.86l-0.11,1.16L345,52.32V52l2.4,0.9a14.54,14.54,0,0,1,1.9,8.38A49.94,49.94,0,0,1,344.83,76l-0.05.11,0.12,1.82-0.13.89,8,2.41,0.92,0.14,0.11-.39c0.33-1.12,2-3.16,8-6.51l0.05,0C371.84,67,379,61,383.57,56.23c0.38,1.58.85,3.25,1.44,5.05q4,8.31,7.71,8.65l2.73,0.25q4,0.34,8.56-6.82a58.58,58.58,0,0,0,4.26-17.59c0.1-1,.18-2,0.24-2.88A49.86,49.86,0,0,1,413.28,64L412,70.69h4.22l3.32,0.89q1.53-20-3.71-31.82-2.43-5.24-3.32-6.09a74,74,0,0,1,26-4.64,2,2,0,0,1,1.79,1.06q0.81,1.07-.51,4.26l-2.85,4.52a84,84,0,0,1-16.44,14.53l0.26,2a24.78,24.78,0,0,0,4.92,6.77q3.47,3.58,12.84,9.2,9.63,1.36,8.31-.25Q434.2,63.1,428.19,54.71Z" style="fill:#fff"/><path d="M478.29,41.59a91.23,91.23,0,0,0-18.4,5.5L459,47q-2.22-2.68-2-4.22,0.08-.85,5.32-1,14.48-3.11,22.41-8.14,0.08-1.19-2.6-5.2l-0.6,0a47.61,47.61,0,0,1-9.82,5.24q-7,3-21.58,4.43l-2.17-.21q-1.24.3-1.49,2.64l0,0.26q-0.21,2.26,1,2.6l0.34-.3,1.83,0.21q1.19,1.15,2.81,5.5l-0.13.89-2.9,1.87q-0.08.6,2,1.45,2.77,0.26,2.26,11V65.4l-0.64,8.52,7.5,0.68q2.3-7.33,1.24-17.51l-1.24-5.67,0.34-.6q3.75-1,11.69-2.9T482,45Q481.66,44.19,478.29,41.59Z" style="fill:#fff"/><path d="M70.7,35.59l0.21,0,0.46,0.08,1.37,0.22L73.25,36l-0.5-.17,0-.47,0.8-.1,0.18,0h0l-0.89,0a21,21,0,0,0-2.13.11c-0.12,0-.13.05-0.14,0.11A0.13,0.13,0,0,0,70.7,35.59Z" style="fill:#fff"/><path d="M54.42,44.44l-0.23,0-0.21,0c-3.3-.75-6.19-1.5-8.83-2.29l-1.24-.37c-2.85-.85-5.8-1.73-8.63-2.81-1.61-.61-3-1.14-4.31-1.74-0.69-.3-1.36-0.66-2-1L28.66,36A25.45,25.45,0,0,0,31,37.19c0.57,0.25,1.12.51,1.68,0.78l0.89,0.42a5.71,5.71,0,0,0,.55.23l9.33,3.2,1,0.33c1.09,0.38,2.21.76,3.32,1.1,1.86,0.57,3.91,1.1,6.25,1.64a1.31,1.31,0,0,1,.91.7,1.59,1.59,0,0,1,.21.85c0,0.18,0,.36,0,0.55v0.2a8.89,8.89,0,0,1-.55,3,3.88,3.88,0,0,1-.47.84,0.84,0.84,0,0,1-.47.33,5.1,5.1,0,0,1-.85.16l-0.67.06c-0.9.09-1.83,0.18-2.75,0.23-1.2.07-2.6,0.14-4,.13-3.34,0-6.69-.05-9.82-0.1-1.79,0-4.15-.07-6.53-0.15-1.56-.05-3.12-0.13-4.68-0.21l-0.64,0L29.11,52c0.65,0.06,1.29.12,1.94,0.15s1.17,0,1.76.06l0.83,0,2.82,0.08,6.36,0.18,0.68,0c0.89,0,1.8.05,2.7,0,1.76-.05,3.54-0.15,5.27-0.24l0.61,0c0.57,0,1.14-.1,1.68-0.17a1,1,0,0,0,.65-0.37A3.48,3.48,0,0,0,54.9,51a9.28,9.28,0,0,0,.83-4.49,2.5,2.5,0,0,0-.62-1.59A1.43,1.43,0,0,0,54.42,44.44Z" style="fill:#fff"/><path d="M78.44,39.06l0.51-.2c-0.45.09-.88,0.19-1.28,0.31s-0.85.27-1.27,0.41c-0.09,0-.12.08-0.1,0.14s0,0.09.17,0.09l1.34,0,0.72,0-1-.15,0.73-.41Z" style="fill:#fff"/><path d="M23.29,29.6l3.85,1.75a8.24,8.24,0,0,0,1.08.39,5.4,5.4,0,0,0,1.86.27h0.07L30,32l-0.23,0a2,2,0,0,1-.33-0.07l-0.34-.11-0.2-.06v0l-0.48-.18-0.29-.1a3.59,3.59,0,0,1-.56-0.23l-0.26-.14c-0.76-.41-1.55-0.83-2.31-1.29a13,13,0,0,0-3.89-1.69A3.93,3.93,0,0,0,19.7,28a7.15,7.15,0,0,0-2.11.57c-0.17.08-.35,0.15-0.53,0.21a4,4,0,0,0-.69.3c-0.54.32-1.07,0.66-1.61,1l3.48-1.33A3.5,3.5,0,0,1,20,28.48a9.42,9.42,0,0,1,2.51.77Z" style="fill:#fff"/><path d="M73,42.27L73.53,42l-0.35.1c-0.57.21-1.14,0.44-1.7,0.67L70.88,43a0.18,0.18,0,0,0-.15.11,0.14,0.14,0,0,0,0,.13,0.24,0.24,0,0,0,.21,0L72.52,43l0.76-.14H73l-0.71-.08,0.6-.44Z" style="fill:#fff"/><path d="M30.15,27.92H32l-1.1.48a1.73,1.73,0,0,0-1.23,1.38,2.94,2.94,0,0,0,0,.48l0-.18a1.39,1.39,0,0,1,1.1-1.22,1.74,1.74,0,0,1,.46-0.06,2.75,2.75,0,0,1,2.14,1.1,2.09,2.09,0,0,1,.32.94,3,3,0,0,1-.85,2.28l-0.16.16a1.8,1.8,0,0,0-.17.19,0.29,0.29,0,0,0,0,.4,0.28,0.28,0,0,0,.37.1,2,2,0,0,0,.62-0.37,3.72,3.72,0,0,0,1.12-3.89,3.34,3.34,0,0,0-2.92-2.33,4.18,4.18,0,0,0-2,.32,1.61,1.61,0,0,0-.82.69,2.89,2.89,0,0,0-.3.65,2.92,2.92,0,0,1,.21-0.39A1.63,1.63,0,0,1,30.15,27.92Z" style="fill:#fff"/><path d="M4,55.88l0.12-.15,0.18,0.08a1.36,1.36,0,0,0,1.24,0c0.34-.18.7-0.35,1.05-0.51a11.3,11.3,0,0,0,2.13-1.19,11,11,0,0,0,1-.9,1.21,1.21,0,0,0,.37-0.89c0-.25,0-0.49,0-0.74s0-.49,0-0.74a9.62,9.62,0,0,0-.06-1.05,11.74,11.74,0,0,1-.17,2.7,1,1,0,0,1-.26.51l-0.15.14a5.66,5.66,0,0,1-.85.73,15.62,15.62,0,0,1-1.64.9c-0.38.19-.77,0.35-1.17,0.52l-0.53.23a0.94,0.94,0,0,1-1.25-.31,0.14,0.14,0,0,0-.18,0s-0.05,0-.08.11a2.08,2.08,0,0,1-.25.61,3.33,3.33,0,0,1-.93.92l-0.18.13c-0.43.3-.85,0.61-1.29,0.89a2.17,2.17,0,0,1-.49.24L1,58.18l0,0L1.28,58a5.32,5.32,0,0,1,.53-0.35A7,7,0,0,0,4,55.88Z" style="fill:#fff"/><path d="M10.93,31.4a1.25,1.25,0,0,0-.39.17l-0.83.52-0.07,0L10,32.27l-0.17.58c-0.08.25-.16,0.51-0.21,0.77a1.31,1.31,0,0,0,0,.52A18,18,0,0,1,11,32.08a1.46,1.46,0,0,0,.21-0.4,0.24,0.24,0,0,0,0-.23A0.23,0.23,0,0,0,10.93,31.4Z" style="fill:#fff"/><path d="M48.89,37.62a7.24,7.24,0,0,0,4.85,1.52,7.87,7.87,0,0,0,3-.82,4.71,4.71,0,0,0,1.77-1.41A6.25,6.25,0,0,0,59.9,32a5.48,5.48,0,0,0-3.42-4.48A5.67,5.67,0,0,0,53.27,27a7.19,7.19,0,0,0-2.73,1.1,4.76,4.76,0,0,0-2.19,3.09,3.79,3.79,0,0,0,1.27,3.91,5.12,5.12,0,0,0,1.42.85,4,4,0,0,0,2.15.31,3.14,3.14,0,0,0,2.57-1.84A2.35,2.35,0,0,0,56,33a1.1,1.1,0,0,0-.52-0.76,1,1,0,0,0-.88-0.07,3.13,3.13,0,0,0-.71.41l-0.12.09-0.1.08,0.26-.16a2.5,2.5,0,0,1,.75-0.36,1,1,0,0,1,.88.17,1,1,0,0,1,.34.85,2.71,2.71,0,0,1-1.45,2.41,3.36,3.36,0,0,1-1.85.39,4.44,4.44,0,0,1-2.8-1.26,3.25,3.25,0,0,1-1.08-2.85,4.41,4.41,0,0,1,2.8-3.69A6.32,6.32,0,0,1,54,27.66h0.14a1.24,1.24,0,0,1,.36,0l0.09,0a10.86,10.86,0,0,1,1.22.26,4.86,4.86,0,0,1,3,2.48,5.78,5.78,0,0,1-.76,6.35l0,0.06a2.82,2.82,0,0,1-.54.56,8.38,8.38,0,0,1-2.41,1.22,6.69,6.69,0,0,1-4.58-.21A8.66,8.66,0,0,1,47,35.71,9.16,9.16,0,0,0,48.89,37.62Z" style="fill:#fff"/><path d="M74.76,66.74c-0.14-.3-0.27-0.61-0.4-0.91s-0.28-.64-0.42-1-0.39-.8-0.64-1.24a48.67,48.67,0,0,0-2.78-4.48A58.41,58.41,0,0,0,60.9,48.72l-0.19-.18-0.53-.47,0,0,0,0,0.09-.23L60.1,48l-0.22-.18,0,0,0,0h0l0,0a5.63,5.63,0,0,0-.24.72,21.3,21.3,0,0,0-.52,3.8c0,0.61,0,1.24,0,1.85v0.57a5.75,5.75,0,0,1-.62,2.62,1.78,1.78,0,0,1-1.23,1,5.23,5.23,0,0,0-1,.34c-1,.47-1.92.87-2.74,1.27l-0.81.42,0.86,0.64L54,61.48l1.41,1A33.23,33.23,0,0,0,62,66a44.49,44.49,0,0,0,4.83,1.62c0.65,0.19,1.33.34,2,.48l1.11,0.25a13.89,13.89,0,0,0,1.84.27c0.36,0,.72.07,1.07,0.13a11.35,11.35,0,0,0,2,.06l0.58,0c-0.06-.19-0.1-0.39-0.15-0.58A8.2,8.2,0,0,0,74.76,66.74Z" style="fill:#fff"/><polygon points="60.18 48.08 60.28 47.95 60.22 48.02 60.18 48.08" style="fill:#fff"/><path d="M56.55,73.95c-0.42-2.34-1-4.63-1.5-6.55-0.24-.92-0.49-1.84-0.75-2.75L53.94,63.3l0-.18-0.2-.78,0-.09-0.09-.08-0.29-.28-0.8-.71L52,60.81A18.79,18.79,0,0,0,50.26,62a2.46,2.46,0,0,1-2.11.75,8.09,8.09,0,0,0-1.3.1,19.94,19.94,0,0,0-5.19,1.74c-0.15.08-.3,0.16-0.44,0.25l-0.05,0a72.37,72.37,0,0,0,3.35,9.31A37.82,37.82,0,0,0,48.21,81l0.16,0.25v0c0.21-1.29.52-2.56,0.81-3.8l0.12-.5c0.22-.91.41-1.84,0.58-2.72a8.14,8.14,0,0,0,.09-2l-0.1-.71,0.47-.19L50.67,72l0.72,1.4c0.9,1.74,1.83,3.53,2.61,5.37a22,22,0,0,1,1.44,5.18,2.45,2.45,0,0,1,0,.36,0.51,0.51,0,0,1-.39.53,0.68,0.68,0,0,1-.5-0.09,1.32,1.32,0,0,1-.32-0.36l-0.38-.56-0.49-.72A5.52,5.52,0,0,0,53,82.51a0.29,0.29,0,0,0-.22-0.11,0.5,0.5,0,0,0-.19,0,1.22,1.22,0,0,0-.67.76,3.12,3.12,0,0,0,0,1.86,1.17,1.17,0,0,0,.62.85,14.14,14.14,0,0,0,3.49,1.43,3.75,3.75,0,0,0,.69.07A0.33,0.33,0,0,0,57,87.24l0-.06a4.24,4.24,0,0,0,.28-0.55,6.67,6.67,0,0,0,.37-2.05,26.53,26.53,0,0,0-.17-4.43C57.26,78.23,57,76.2,56.55,73.95Z" style="fill:#fff"/><path d="M60.31,47.86L60.22,48l0.12-.14Z" style="fill:#fff"/><polygon points="56.96 23.23 56.86 23.13 56.92 23.2 56.96 23.23" style="fill:#fff"/><path d="M58.46,22.15l-1.4,1L57,23,57,23.19l-0.13.08-0.08-.11-0.09-.06,0,0,0.19,0.16-0.09.1a10.06,10.06,0,0,1,3.51,1.78,9,9,0,0,1,3.16,5.41v0.05l0.11-.1,0.81-.78a27.11,27.11,0,0,0,3.06-3.38,29.13,29.13,0,0,0,4.23-8c0.08-.25.17-0.49,0.26-0.74A9.91,9.91,0,0,0,72.46,16c0.11-.57.23-1.13,0.36-1.65a9.54,9.54,0,0,0,.27-2.1c0-.35,0-0.7.05-1q0-.29,0-0.57a4.42,4.42,0,0,0-.09-1l-0.16.19c-0.18.21-.35,0.41-0.54,0.61-1.55,1.59-3.22,3.16-4.95,4.67-2.47,2.16-5.08,4.14-7.07,5.64Z" style="fill:#fff"/><polygon points="56.76 23.07 56.79 23.1 56.77 23.07 56.76 23.07" style="fill:#fff"/><path d="M34.94,64.48a15.52,15.52,0,0,1,5.47-1,0.58,0.58,0,0,0,.21-0.06A19.4,19.4,0,0,1,44.2,62a12.85,12.85,0,0,1,3-.64c0.4,0,.81,0,1.21,0h0.28A0.36,0.36,0,0,0,49,61.25a19.76,19.76,0,0,1,3.29-2.09,22.55,22.55,0,0,1,4.74-2A0.36,0.36,0,0,0,57.18,57a3.16,3.16,0,0,0,.59-1.55c0-.4.05-0.81,0.06-1.22V54a30.8,30.8,0,0,1,.54-4.88,7.12,7.12,0,0,1,.55-1.79l0.33-.66c0.21-.42.43-0.85,0.61-1.28a26.48,26.48,0,0,0,1.7-5.26c0-.14.05-0.27,0.07-0.4A7.42,7.42,0,0,1,60.22,41a11.32,11.32,0,0,1-4.71,1.88,15.74,15.74,0,0,1-4.6,0,13.24,13.24,0,0,1-4.8-1.6A10.32,10.32,0,0,1,41.37,36c-0.09-.23-0.19-0.46-0.28-0.69l-0.4-1c-0.71-1.72-1.45-3.49-2.31-5.17a11.57,11.57,0,0,0-1.92-2.81l-1.22-.73h0.88a0.92,0.92,0,0,1,.77.3L37,26a2.44,2.44,0,0,1,.39.35,14.25,14.25,0,0,1,1,1.3,37.14,37.14,0,0,1,3,5.6l0.38,0.9a25.06,25.06,0,0,0,1.1,2.41,9,9,0,0,0,2.39,2.77,10.61,10.61,0,0,0,3.4,1.78,14,14,0,0,0,6.49.46,8.39,8.39,0,0,0,5.42-2.93,4.1,4.1,0,0,0,.74-1.24,14.22,14.22,0,0,0,.79-4.31,9.34,9.34,0,0,0-.23-2.45,7.55,7.55,0,0,0-5.54-5.74,9.56,9.56,0,0,0-2.57-.31,13.17,13.17,0,0,0-3.5.29c-0.74.19-1.48,0.43-2.2,0.66a1.67,1.67,0,0,1-1,0c-2.23-.56-4.46-1.13-6.7-1.67a41.33,41.33,0,0,0-5.79-1,6.22,6.22,0,0,0-2.26.12l-1.53.39-1.43.37-1,.27c-2,.55-4.1,1.12-6.14,1.71a27.31,27.31,0,0,1-4.73,1c-1,.1-1.88.23-2.76,0.38a18.66,18.66,0,0,0-4.23,1.24A2.92,2.92,0,0,0,9,29.81a6.9,6.9,0,0,0-.71,2.13,2,2,0,0,1-.78,1.35,9.94,9.94,0,0,1-1.66,1.1,21.36,21.36,0,0,1-3.14,1.36,2,2,0,0,0-.62.31A2.94,2.94,0,0,0,1,38.68c0,0.22,0,.44.07,0.66s0,0.34.06,0.52a2.27,2.27,0,0,0,.35,1c0.2,0.31.32,0.34,0.64,0.14l0.35-.22c0.31-.2.63-0.4,1-0.57A17.6,17.6,0,0,1,6.65,38.9L7,38.8l0.31-.1c0.34-.1.68-0.22,1-0.33a13.44,13.44,0,0,1,2.07-.59l0.55-.11,0.42-.08,1-.2c0.82-.16,1.67-0.32,2.51-0.46a19.67,19.67,0,0,1,3.93-.19h0.28a30.11,30.11,0,0,1,4.34.41l1,0.17a18.42,18.42,0,0,1,2.11.44L27.27,38c0.34,0.08.68,0.17,1,.27a16.06,16.06,0,0,1,1.62.61c0.3,0.13.58,0.28,0.87,0.43l0.61,0.31,1.32,0.66c0.85,0.43,1.74.88,2.64,1.24L36.59,42c0.94,0.38,1.9.77,2.86,1.13,1.16,0.43,2.38.8,3.46,1.13a9.15,9.15,0,0,0,2.52.46,20.28,20.28,0,0,1,3.48.36,6.25,6.25,0,0,1,1.94.65,1.64,1.64,0,0,1,.79.87,3.47,3.47,0,0,1,0,2.46,2.06,2.06,0,0,1-.78,1,1.32,1.32,0,0,1-.56.22c-0.77.08-1.53,0.16-2.28,0.2-2.43.13-4.86,0.18-7.23,0.15q-6.11-.08-12.22-0.2H28.21a42.75,42.75,0,0,1-5-.28c-2.26-.31-4.57-0.62-6.81-1.11l-0.47-.1a21.41,21.41,0,0,1-3.63-1l-0.17,0-0.86-.17a20.09,20.09,0,0,0-2-.35l-0.35,0a12.87,12.87,0,0,0-2.17-.11,4,4,0,0,0-.67.11l-0.28.09a2.66,2.66,0,0,1-.43.12,11.89,11.89,0,0,0-3.09,1A5.55,5.55,0,0,0,1.5,49L1.42,49a0.3,0.3,0,0,0-.14.27c0,0.62,0,1.24,0,1.85l0,1.14L2.41,52l-0.47.59a1.37,1.37,0,0,1-.41.33,3.66,3.66,0,0,0-.94.74,1.67,1.67,0,0,0-.45,1.06c0,0.46,0,.93-0.07,1.39S0,56.88,0,57.28a3.2,3.2,0,0,0,0,.35,1.12,1.12,0,0,0,1-.21c0.43-.28.85-0.58,1.27-0.88l0.18-.13a2.88,2.88,0,0,0,.79-0.78,1.55,1.55,0,0,0,.19-0.46,0.6,0.6,0,0,1,.45-0.49,0.63,0.63,0,0,1,.69.23,0.45,0.45,0,0,0,.65.16l0.53-.23c0.38-.16.77-0.33,1.14-0.51a15.1,15.1,0,0,0,1.59-.87,5.16,5.16,0,0,0,.77-0.67l0.15-.15a0.46,0.46,0,0,0,.12-0.23,11.07,11.07,0,0,0,.16-2.69,2.12,2.12,0,0,0-.05-0.28l-0.27,0a1.57,1.57,0,0,0-.87.51,1.78,1.78,0,0,1-1.29.66h0a0.62,0.62,0,0,1-.67-0.72,1.53,1.53,0,0,1,.05-0.29l0.08-.34,0.51,0.09v0.39a0.58,0.58,0,0,0,0,.15l0.13-.05a0.93,0.93,0,0,0,.24-0.15A3.41,3.41,0,0,0,8,49.31a2.26,2.26,0,0,1,1.3-.79,1.18,1.18,0,0,1,1,.07,1.17,1.17,0,0,1,.41.85,10.85,10.85,0,0,1,.1,1.41c0,0.26,0,.52,0,0.78s0,0.47,0,.7a1.72,1.72,0,0,1-.52,1.24A11.5,11.5,0,0,1,9,54.51a11.67,11.67,0,0,1-2.22,1.24c-0.35.16-.69,0.32-1,0.5a1.82,1.82,0,0,1-1.5.08,7.63,7.63,0,0,1-2.24,1.75,4.81,4.81,0,0,0-.48.31l0.34,0.14C2.28,58.69,2.66,58.85,3,59a61.2,61.2,0,0,0,6,1.63c2.31,0.52,4.42,1,6.43,1.36l1.38,0.26c1.06,0.2,2.15.4,3.21,0.66l1.28,0.32,9.83,2.45a0.73,0.73,0,0,0,.46,0Zm10-33.4a0.6,0.6,0,0,1,.42.46l-0.11.06h0l0.11-.05,0.34,0.71,1.19,2.46a2.8,2.8,0,0,0,.32.51,8.27,8.27,0,0,0,3.44,2.68,6.12,6.12,0,0,0,4.24.2A7.76,7.76,0,0,0,57.21,37a2.46,2.46,0,0,0,.44-0.47l0.05-.06a5.29,5.29,0,0,0,.71-5.8,4.38,4.38,0,0,0-2.72-2.23,10.62,10.62,0,0,0-1.17-.25l-0.09,0a0.84,0.84,0,0,0-.22,0H54a5.82,5.82,0,0,0-2.29.53A3.93,3.93,0,0,0,49.21,32a2.73,2.73,0,0,0,.92,2.43,4,4,0,0,0,2.49,1.13,2.92,2.92,0,0,0,1.58-.33,2.21,2.21,0,0,0,1.2-2,0.53,0.53,0,0,0-.16-0.44,0.51,0.51,0,0,0-.45-0.07,2.08,2.08,0,0,0-.6.29,3.6,3.6,0,0,1-1.5.67,1.65,1.65,0,0,1-1.67-.9,1.62,1.62,0,0,1,.16-1.85,1.17,1.17,0,0,1,.73-0.44l0.18,0a3.34,3.34,0,0,1,.52-0.05l0.76,0-0.62.44a0.79,0.79,0,0,1-.18.12l-0.22.08a2,2,0,0,0-.33.14,0.77,0.77,0,0,0-.31,1,0.8,0.8,0,0,0,1,.49,2.55,2.55,0,0,0,.79-0.44l0.13-.09a3.54,3.54,0,0,1,.83-0.47,1.54,1.54,0,0,1,1.3.11,1.6,1.6,0,0,1,.77,1.11,2.86,2.86,0,0,1-.26,1.75,3.65,3.65,0,0,1-3,2.12,4.5,4.5,0,0,1-2.42-.34,5.62,5.62,0,0,1-1.56-.93,4.26,4.26,0,0,1-1.44-4.4,5.25,5.25,0,0,1,2.4-3.41,7.68,7.68,0,0,1,2.92-1.17,6.15,6.15,0,0,1,3.49.48,6,6,0,0,1,3.71,4.86,6.72,6.72,0,0,1-1.53,5.32,5.21,5.21,0,0,1-2,1.55,8.34,8.34,0,0,1-3.15.87H53.33A7.73,7.73,0,0,1,48.59,38a8.91,8.91,0,0,1-3.26-4.51c-0.12-.4-0.24-0.8-0.35-1.2l-0.3-.9-0.19-.48Zm-33.35.76a2,2,0,0,1-.28.53,15.35,15.35,0,0,0-1.46,2.32l-0.06.1-0.2.29-0.24-.24a1.57,1.57,0,0,1-.24-1.34c0.06-.27.14-0.54,0.22-0.8l0-.11-0.89-.3L9,31.93l0.13-.09,0.27-.18,0.84-.53a1.7,1.7,0,0,1,.56-0.23,0.71,0.71,0,0,1,.68.22A0.73,0.73,0,0,1,11.63,31.84Zm6.79-2.61-3.65,1.39-2.2.85L12.39,31l0.17-.16,0.27-.15,0.91-.58c0.79-.5,1.58-1,2.38-1.48a4.45,4.45,0,0,1,.77-0.34c0.17-.06.33-0.12,0.49-0.2a7.63,7.63,0,0,1,2.25-.61,4.39,4.39,0,0,1,1.55.11,13.85,13.85,0,0,1,4,1.75c0.75,0.45,1.53.87,2.29,1.28l0.26,0.14a2.27,2.27,0,0,0,.31.13,3.31,3.31,0,0,1,.34-2.81,2.11,2.11,0,0,1,1.07-.89,4.63,4.63,0,0,1,2.21-.34A3.82,3.82,0,0,1,35,29.57,4.19,4.19,0,0,1,33.8,34a2.45,2.45,0,0,1-.77.47,0.84,0.84,0,0,1-.34.07,0.78,0.78,0,0,1-.64-0.34,0.79,0.79,0,0,1,0-1,2.34,2.34,0,0,1,.22-0.24l0.13-.14a2.52,2.52,0,0,0,.73-1.91,1.59,1.59,0,0,0-.24-0.72,2.19,2.19,0,0,0-2-.82,0.89,0.89,0,0,0-.73.79,1.46,1.46,0,0,0,0,.89,0.69,0.69,0,0,0,.7.46,0.91,0.91,0,0,0,.28-0.09l0.1,0a0.92,0.92,0,0,1,.26-0.12l0.33-.08,0,0.33a0.83,0.83,0,0,1-.62.8,5.32,5.32,0,0,1-1.08.21,6,6,0,0,1-2-.29,8.64,8.64,0,0,1-1.15-.41l-3.85-1.75-0.76-.35A8.9,8.9,0,0,0,19.94,29,3,3,0,0,0,18.43,29.23ZM31,52.61c-0.65,0-1.31-.1-2-0.15l-18.2-1.52,0-.57,2.15,0.13L24.32,51c1.56,0.08,3.11.15,4.67,0.21,2.37,0.08,4.73.12,6.52,0.15,3.13,0,6.48.09,9.82,0.1,1.4,0,2.81-.06,4-0.13,0.91,0,1.83-.14,2.73-0.22l0.67-.06a4.54,4.54,0,0,0,.77-0.15,0.35,0.35,0,0,0,.17-0.11,3.61,3.61,0,0,0,.42-0.74,8.29,8.29,0,0,0,.52-2.88V47c0-.19,0-0.38,0-0.58a1.1,1.1,0,0,0-.15-0.59,0.81,0.81,0,0,0-.58-0.45c-2.36-.54-4.41-1.08-6.29-1.65-1.12-.34-2.25-0.73-3.34-1.11l-1-.33-9.33-3.2a6.16,6.16,0,0,1-.6-0.25l-0.89-.42c-0.55-.26-1.11-0.53-1.67-0.77a28,28,0,0,1-2.59-1.36l-0.77-.43A13,13,0,0,0,23,34.32a1.16,1.16,0,0,0-.23,0H20.91l0.33-.41a0.31,0.31,0,0,1,.19-0.15,5.68,5.68,0,0,1,2-.15,14.74,14.74,0,0,1,3.4,1l0.13,0a10.73,10.73,0,0,1,1.13.51l1.06,0.55c0.64,0.34,1.31.7,2,1,1.34,0.59,2.68,1.12,4.29,1.73,2.82,1.07,5.76,1.95,8.6,2.8l1.24,0.37c2.64,0.79,5.52,1.54,8.8,2.29l0.18,0L54.56,44a1.91,1.91,0,0,1,.92.63,3,3,0,0,1,.75,1.9,9.77,9.77,0,0,1-.88,4.73,3.92,3.92,0,0,1-.53.78,1.53,1.53,0,0,1-1,.55c-0.55.07-1.13,0.14-1.72,0.17l-0.61,0c-1.73.09-3.52,0.18-5.28,0.24H45.44c-0.65,0-1.3,0-1.94,0l-0.68,0-6.36-.18-2.82-.08-0.83,0C32.21,52.66,31.62,52.65,31,52.61Z" style="fill:#fff"/><path d="M82,37.73l-0.19-.17A4.77,4.77,0,0,0,81.08,37a20.18,20.18,0,0,0-4.25-2,43.69,43.69,0,0,0-6.22-1.65c-1.15-.23-2.11-0.39-3-0.52a20.37,20.37,0,0,0-2.81-.15H63.69a11.26,11.26,0,0,1-.28,2.78,26.21,26.21,0,0,1-.75,2.72,5,5,0,0,0-.28,1.28,18.4,18.4,0,0,1-.32,2.21,26,26,0,0,1-1.63,5l0.53,0c0.54,0,1.07-.06,1.61-0.11l0.78-.07c0.88-.07,1.79-0.15,2.67-0.28,2.35-.36,4.76-0.86,7.16-1.48A29.25,29.25,0,0,0,80.08,42a11.4,11.4,0,0,0,1.67-1.2l0.09-.1,0-.14A12,12,0,0,0,82,37.84,0.59,0.59,0,0,0,82,37.73ZM70.68,34.84a20,20,0,0,1,3.1-.09l0.63,0,0.72,0a1.87,1.87,0,0,1,1.11.42l0.15,0.14a0.78,0.78,0,0,1,.12,1l0,0.1-0.17.09L76.2,37,76,36.81,76,37l-0.42-.11-0.79-.12-2.08-.32-1.37-.22-0.45-.07-0.29-.06a0.62,0.62,0,0,1-.46-0.69A0.6,0.6,0,0,1,70.68,34.84Zm5.78,7.53a0.6,0.6,0,0,1-.75.62h0l-0.54.1-1.16.2-1.38.25L71,43.82H70.89a0.68,0.68,0,0,1-.5-0.2A0.62,0.62,0,0,1,70.25,43a0.67,0.67,0,0,1,.44-0.45l0.6-.25c0.56-.23,1.14-0.47,1.72-0.68s1-.31,1.48-0.44l0.27-.07a1.65,1.65,0,0,1,1.33.19,0.74,0.74,0,0,1,.39.78Zm5-2.9h0l0,0.17a0.67,0.67,0,0,1-.26.46l-0.07,0-0.14.27V40.14H80.87l-0.13,0-0.69,0-2.22.12-1.35,0h0a0.61,0.61,0,0,1-.63-0.43,0.61,0.61,0,0,1,.41-0.78c0.43-.15.86-0.29,1.29-0.42a16,16,0,0,1,2.55-.52,1.39,1.39,0,0,1,1.13.36l0.09,0.1,0.18-.35,0,0.59a0.59,0.59,0,0,1,0,.1l0.29-.15Z" style="fill:#fff"/><path d="M75.9,36.35L76,36.21l0,0a0.3,0.3,0,0,0,0-.33l-0.12-.1a1.64,1.64,0,0,0-1-.13l-0.92.12,1.9,0.64Z" style="fill:#fff"/><path d="M80.8,39A0.9,0.9,0,0,0,80,39l-0.32.13-0.56.22,1.06,0.16,0.43,0.09,0.15,0h0.09a0.3,0.3,0,0,1,0-.31A0.54,0.54,0,0,0,80.8,39Z" style="fill:#fff"/><path d="M75.77,41.85a1.2,1.2,0,0,0-.91.06l-1,.49H75.4a0.85,0.85,0,0,1,.28.06l0,0h0.21a0.21,0.21,0,0,1,0-.07V42.36a0.39,0.39,0,0,1,0-.2A0.33,0.33,0,0,0,75.77,41.85Z" style="fill:#fff"/><path d="M40.64,65.92c0-.24-0.06-0.47-0.1-0.71l0-.15H39.67a14.52,14.52,0,0,0-4,.76l-3,1-1.11.37v0.06c0,0.18,0,.37.05,0.55l0.09,0.83c0.09,0.82.18,1.65,0.28,2.47,0.16,1.27.32,2.54,0.5,3.81,0.24,1.68.46,3.16,0.69,4.52,0.14,0.85.29,1.71,0.45,2.56,0.09,0.51.18,1,.27,1.52l0,0.27a10.37,10.37,0,0,1,.16,1.15c0.05,0.81.09,1.63,0.13,2.45L34.3,88.6c0,0.29,0,.59.06,0.88v0.08a3.66,3.66,0,0,0,.42-0.34c0.43-.42.92-0.92,1.38-1.43a35.19,35.19,0,0,0,3.73-5.4,28.46,28.46,0,0,0,2.32-4.77,11,11,0,0,0,.71-2.9,0.9,0.9,0,0,0,0-.4A31.59,31.59,0,0,1,40.64,65.92Z" style="fill:#fff"/><path d="M47.35,24.12a0.62,0.62,0,0,0,.37,0L48.11,24c0.44-.15.89-0.3,1.35-0.42a11.77,11.77,0,0,1,3.42-.44h0.24l0.47,0a10.81,10.81,0,0,1,2.25.05L55.9,23a4.2,4.2,0,0,0,.24-0.53l0.22-.63c0.29-.82.59-1.66,0.83-2.5,0.75-2.61,1.48-5.28,2.18-7.85l0.21-.77c0.28-1,.57-2.07.8-3.11a14.84,14.84,0,0,0,.36-3.76,4.61,4.61,0,0,0-.23-1.41,0.49,0.49,0,0,0-.67-0.35,6,6,0,0,0-.68.21,13,13,0,0,0-2.43,1.22l-1.26.75v0a2.47,2.47,0,0,0,.44.85,1.1,1.1,0,0,0,1.52.21A4.11,4.11,0,0,0,57.87,5l0.36-.32,0.29-.25a0.52,0.52,0,0,1,.71,0,0.56,0.56,0,0,1,.13.68c-0.13.3-.27,0.61-0.42,0.91-0.6,1.19-1.15,2.42-1.65,3.66-0.24.6-.49,1.2-0.75,1.8a16.87,16.87,0,0,1-1.59,3,5.86,5.86,0,0,1-1.17,1.19L53.31,16l0-.63L53.39,15c0-.17.08-0.35,0.11-0.53a7.27,7.27,0,0,0-.26-3.08,30,30,0,0,1-.89-3.68L51.58,8.94c-0.59.9-1.2,1.83-1.77,2.77-1.08,1.78-2.15,3.61-3.19,5.38L46.08,18a41,41,0,0,0-2.55,5l0,0.08,1,0.25Z" style="fill:#fff"/><path d="M40.77,22.58h0l-0.18-.3c-0.3-.49-0.61-1-1-1.48A16.49,16.49,0,0,0,33,15.36l-0.17-.07a32,32,0,0,1,.81,6.26A44,44,0,0,1,40.77,22.58Z" style="fill:#fff"/><path d="M18.5,43.25a4.74,4.74,0,0,0,0,1.62,9.24,9.24,0,0,0,.43,1.72h0c0.69,0,1.4-.09,2.1-0.09a11.15,11.15,0,0,1,2.25.2l-0.09-.15a6.3,6.3,0,0,1-.8-4.35,7.42,7.42,0,0,1,.75-2.14,3.44,3.44,0,0,1,1-1.26,8.08,8.08,0,0,0-2.57.68A5.22,5.22,0,0,0,18.5,43.25Z" style="fill:#fff"/><path d="M16.15,41.59a3.67,3.67,0,0,0-1.85-.07c-0.5.1-1,.25-1.48,0.4l-0.59.18-0.86.26-0.24.07a15.9,15.9,0,0,0,.69,3.27,6.66,6.66,0,0,0,.34.79l0.14,0.29a0.18,0.18,0,0,0,.14.09l0.67,0.21,0.46,0.15,0.28,0.09c0.31,0.1.62,0.19,0.93,0.26L17,48l0.32,0.06a4.43,4.43,0,0,1-.53-0.54,5.38,5.38,0,0,1-1.25-4.17A3.66,3.66,0,0,1,16.15,41.59Z" style="fill:#fff"/><path d="M25.13,43.25a7.52,7.52,0,0,0,0,3.78,5.73,5.73,0,0,0,1.08,2,0.12,0.12,0,0,0,.1,0l2,0a3.48,3.48,0,0,1-.79-3,4.13,4.13,0,0,1,2-2.84l0.07,0a19.81,19.81,0,0,0-3.85-1.13l-0.18,0-0.1.25A9.34,9.34,0,0,0,25.13,43.25Z" style="fill:#fff"/><path d="M34.3,44.25l0.56-.86,0-.07a3,3,0,0,0-1.06-.16,2.38,2.38,0,0,0-1.7.89,5,5,0,0,0-.89,1.53,9.71,9.71,0,0,0-.57,2.85l-0.05.75h4.05a4,4,0,0,1-.86-3.62A3.65,3.65,0,0,1,34.3,44.25Z" style="fill:#fff"/><path d="M10.55,39.07l0.15,0.67c0.09,0.41.18,0.83,0.29,1.25a7.9,7.9,0,0,1,2.33-.92l0.12,0A4.9,4.9,0,0,1,15.78,40a7,7,0,0,1,.86.25l0.28,0.09a5.36,5.36,0,0,0,1.29-2.2A37,37,0,0,0,10.55,39.07Z" style="fill:#fff"/><path d="M3.13,44a11,11,0,0,0,.82,3l0.27-.08,0.54-.12a4.26,4.26,0,0,0,1.06-.32,1.06,1.06,0,0,1,.42-0.1l1.49-.05H7.81a3.22,3.22,0,0,1-.88-1.67,3.88,3.88,0,0,1,.16-1.95A23,23,0,0,0,3.13,44Z" style="fill:#fff"/><path d="M29.6,40.41a4,4,0,0,0-.6-0.29c-0.88-.31-1.79-0.6-2.67-0.87l-0.19-.06a5,5,0,0,0-.5-0.12h0a4.38,4.38,0,0,0-.15,1.15,2.6,2.6,0,0,0,.08.49,0.23,0.23,0,0,0,.25.23,10.89,10.89,0,0,1,2.51.45,7.18,7.18,0,0,1,2.12,1,0.24,0.24,0,0,0,.31,0,6,6,0,0,0,1.19-.81l-2-1Z" style="fill:#fff"/><path d="M37.7,48.8a11,11,0,0,1,.44-2.22A5.26,5.26,0,0,1,38.93,45l0.19-.23-2.24-.88a4.38,4.38,0,0,0-.62,2.63,2.82,2.82,0,0,0,.64,1.6A2.85,2.85,0,0,0,37.7,48.8Z" style="fill:#fff"/><path d="M7.89,39.79L7.4,40,4.51,41.07a7.48,7.48,0,0,0-1.73,1,2.12,2.12,0,0,0,.06.83,11,11,0,0,1,4.88-1.56,9.23,9.23,0,0,0,.17-1.52h0Z" style="fill:#fff"/><path d="M45.45,46.34a2.71,2.71,0,0,0,.76,2.1,1.56,1.56,0,0,0,1,.44,3.3,3.3,0,0,1,0-2.42Z" style="fill:#fff"/><path d="M54.22,12.18a5.58,5.58,0,0,1,0,1.88,8.65,8.65,0,0,0,1-1.74c0.7-1.74,1.39-3.48,2.07-5.22l0.21-.53a2.24,2.24,0,0,1-2.11-.33,3,3,0,0,1-1-1.49A4.36,4.36,0,0,1,55.79,0a2.24,2.24,0,0,0-.38.22,4.46,4.46,0,0,0-1.3,1.69,9,9,0,0,0-.89,4,15,15,0,0,0,.41,3.63C53.81,10.28,54,11.24,54.22,12.18Z" style="fill:#fff"/><path d="M51.95,81.4a1.53,1.53,0,0,1,2,.44h0a23.65,23.65,0,0,0-1.26-3.76l-2-4.49c0,0.07,0,.15,0,0.22-0.06.74-.16,1.49-0.3,2.24s-0.3,1.59-.46,2.39-0.36,1.85-.53,2.78a8.59,8.59,0,0,0-.1,2.77,3.48,3.48,0,0,0,1.37,2.45,1.77,1.77,0,0,0,.53.28,6,6,0,0,1-.54-1.21,4,4,0,0,1,.08-2.84A2.34,2.34,0,0,1,51.95,81.4Z" style="fill:#fff"/><path d="M20,47.73l-1-.07a1.27,1.27,0,0,0,0,.44c0,0.08,0,.16,0,0.24s0,0,0,0l0.7,0.09,0.48,0.07,0.44,0.06,2,0.25L24.14,49l0.46,0,0.27,0-0.59-.84a0.37,0.37,0,0,0-.1-0.1c-0.37-.06-0.74-0.11-1.1-0.13Z" style="fill:#fff"/><path d="M41.23,47.35a4.44,4.44,0,0,0-1.08,1.87h0l2.55,0a4.3,4.3,0,0,1,.58-2.71A3,3,0,0,0,41.23,47.35Z" style="fill:#fff"/><path d="M29.22,31.31l0.22,0.08a2.41,2.41,0,0,1-.3-1.66,1.94,1.94,0,0,1,.67-1.26,1.13,1.13,0,0,0-.63.47,2.75,2.75,0,0,0-.37,2.24Z" style="fill:#fff"/></svg>