<svg id="Layer_1" data-name="Layer 1" xmlns="http://www.w3.org/2000/svg" viewBox="0 0 392.47 67.37"><title>mictlan-logo-wht</title><path d="M25,7.8Q36.21,11.47,36,12.87a108.83,108.83,0,0,0,8.35,25,82.3,82.3,0,0,0,9.5,14.48Q63.6,63,70.46,64.89l0,0.3-0.34.3-0.26-.34-2.13,0-1.15-.09-5.92-.34q-7.84-1.7-16.4-11.33Q35.87,42,33.74,34.39q-1.92-4.3-1.83-5.54l-0.3,0,0,0.6a54,54,0,0,1,.3,14.06,26.85,26.85,0,0,1-2.51,9.29l-9.5-.17q-3.15-5.88-8.65-14l0.13,1.49-0.55,5.28A27.32,27.32,0,0,1,8.9,52l0.26,0a1.27,1.27,0,0,1-1.28,1.06l-7.58-2H0l0-.34L2.56,41.2,2.43,40l0.38-.89L2.6,38.22l0-.6,0.3,0L3.15,27.53l0.26,0a11.61,11.61,0,0,1-.13-4.17l0.3,0q6.86-1.36,8.78-1.15Q14,28.46,21.73,37.92l0.55,0.64,0.55,0,1.06-4.35q0.72-6.56-2.34-22.66h-0.3Q23.9,8.23,25,7.8Z" style="fill:#fff"/><path d="M59,33.15q-1.53,6-2.39,10.73l0.17,4.52,0.55,0,0-.6,8.22,1.53,0,0.25a21.08,21.08,0,0,0-3.92,5.84l-1.45-.13q-2.64-.3-7.92,1.53-2.85-.34-4-10L48.18,42.1l0.34-.26-0.17-1.49,0.08-.6,0.34-.26-0.26-.34,0.85-5.58,0-.3,1.45-5.45L61.81,27ZM54.91,17q1.28-5.2,4.47-4.43l1.92-.17q4.73,0.3,3.41,4.56-0.81,5.28-8.95,5Q52.7,21.39,54.91,17Z" style="fill:#fff"/><path d="M92.78,21.52v0.43L85.2,24.59Q73.4,31.79,74.42,40q0.6,4,2.45,5.35t5.94,1Q86.9,46,91,39.63q2.77-1.06,4.3,6.6-4.47,7.63-16.15,7.63H78.72l-4.22-1.32q-9.37-4.64-9.37-16.15,0-11.72,16.15-18.7Q84.6,17.69,92.78,21.52Zm7.67-2.13-4.69.85Q86.39,18,86.39,16.83V16.41h3Q92.4,16.41,100.45,19.39Z" style="fill:#fff"/><path d="M98.83,17.69q8.9,0.34,9-.51,1.23-5,2.9-4.77l8.73-.55,0,0.3-1.66,4.6H118a131.55,131.55,0,0,0,19.72-2.94v0.26l11.67-3.49,0.3,0.34,0,0.26q-2.6,6-4.52,5.79a104.1,104.1,0,0,1-26.24,5.88q-4.22-.13-4.43,2.47L110.93,33q-1.53,6-2.39,10.74l0.17,4.52,0.55,0,0-.6,8.22,1.53,0,0.26a21.06,21.06,0,0,0-3.92,5.84l-1.45-.13q-2.64-.3-7.92,1.53-2.85-.34-4-10L100.11,42l0.34-.26-0.17-1.49,0.09-.6,0.34-.26L100.45,39l0.85-5.58,0-.3,2.51-9.54-1.7-.51L101,23l-1.53.13-0.6,0-0.21-.34-2.22.13-1.79-.68-0.13-2.22Q95.38,17.39,98.83,17.69Z" style="fill:#fff"/><path d="M127.29,46.61l0.26,0.89-0.3.3v0.34l0.17,1.75-0.34.26,0.26,1.53L127,56.11l-0.34.3v0.26a18.38,18.38,0,0,0-5.24-1.79l-0.34.3-0.3,0h-2.56L118,49.76,118,44.52l-0.21-1.75,0.3-.3v-0.3l-0.17-1.53,0.38-1.11-0.3,0,0.34-.89a136.44,136.44,0,0,1,6.26-31.69q0-2,6.6-2l3.32-.34V4.86q-2.26,2.94-3.92,14-0.81,3.88-1.45,8.35l-1.49,14.4Q127.46,44.06,127.29,46.61Z" style="fill:#fff"/><path d="M140.58,16.15a19.91,19.91,0,0,0,7.8,2.34V18.24l0.3,0.26,0.3,0,4.73,0.21a119.16,119.16,0,0,0,13.72,22.71l5.11,5q8.39,5.92,11.25,6.26l0,0.6q-2.47-.26-9.37,1.06-6.77-1.62-15.17-9.12a65.51,65.51,0,0,1-9.71-15q-2.34-3.07-2.26-3.83l-0.6,0-0.34,3.24-1.36,7.28,5.07,0,0.26,0q2.21,0.26,4.64,4l0.3,0.08-0.09,1.15q-12.52-.3-13,3.71l-3,6.22,0.72,1.28-0.43.85L136,53.56l-0.34,0L125.54,53l0.08-.6A39.34,39.34,0,0,0,132.31,43l-0.21-3.92,2.51-.89,3.79-12.74h-0.3l0.3-.3,0.77-7.07L139,16.58Z" style="fill:#fff"/><path d="M207.63,45l0.21,0.89-0.34.25v0.34l0.08,1.79-0.34.21L207.42,50l-0.51,4.43-0.34.3V55a17.93,17.93,0,0,0-5.16-2l-0.34.3-0.3-.08-2.6-.55-0.34.3,0-.34-3.62.21q-7.63-13.93-16.49-18.49l-0.3,0,0,0.3q3.07,1.92,3,2.43l-0.09.89A30.49,30.49,0,0,1,177.17,48l-0.3,0q-5.28-4.17-6.22-6L170.48,41l0.3-.26q0.51-4.3-3.62-13.5l-4.39-6.43q9.29-.21,9.37-0.81,13.76,7.16,21.68,17.25L198,42.78l0.3,0,0-.34-0.13-1.79,0.3-.26,0-.3-0.13-1.53,0.43-1.11-0.3,0,0.38-.89q1.58-14.36,11.42-31,0.17-2,6.69-1.66l3.37-.21,0,0.26Q218,6.82,213.94,17.3l-1.79,5.45Q210.31,28.68,207.63,45Z" style="fill:#fff"/><path d="M289.93,23.83l-4.56-1.13-1.52-.13-10.17-.17c-8.84,1.21-24.4,4-46.25,8.42l-0.37-.4-0.31.08a34.1,34.1,0,0,1-12.5,1.31c-1-.11-1.13-0.44-1.17-0.6l0-.38c2.48-3.4,8.13-8.76,16.76-15.92C240.28,7.23,245.22,4.12,247.51,3c-0.52,1-1.1,2.24-1.76,3.76L245.5,7l-0.11.15c-3,5.82-6,10.06-9,12.59l-0.16.14-0.07,1,0.49,0.68L249,20.35l4.83-7.78L260.52,0l-11.24.42-0.14.13,0,0-11,.65c-0.48,0-1.28-.09-16.69,13.33-10.62,9.32-12.5,12-12.86,13a22.73,22.73,0,0,0-4.35,7.06l-0.77,1.66L203,39.85,203.59,40a4.58,4.58,0,0,0,3.64,1.94c4.81,0.49,16.63-2.66,36.12-9.64a261.57,261.57,0,0,1,35.06-5.44l0.27,0.35,2-.1,1.45,0.17c0.84,0.09,1.87.34,2.13,1l0,0.14C283.1,32,278.2,37.94,269.68,46a66.49,66.49,0,0,1-11.13,9.58,26.17,26.17,0,0,0,3-9.22,26.31,26.31,0,0,0-.35-7.95l0-.12a12.31,12.31,0,0,0-7.09-6.35l-0.14-.05-0.14,0c-9.82,2.17-9.85,2.5-9.89,3l-0.12,1.21L245.66,37V36.64l2.65,0.94a14.59,14.59,0,0,1,2.1,8.78c-0.47,4.3-2.14,9.48-4.94,15.39l-0.06.12,0.13,1.91-0.14.93,8.88,2.52,1,0.15,0.13-.41c0.36-1.17,2.19-3.31,8.87-6.82l0.06,0c19.55-13.81,29.5-23.1,30.42-28.5A9,9,0,0,0,289.93,23.83Z" style="fill:#fff"/><path d="M311.06,25a58.58,58.58,0,0,1-4.26,17.59q-4.6,7.16-8.56,6.82l-2.73-.25q-3.71-.34-7.71-8.65-2.85-8.69-2.39-13.89l0-.6q0.21-2.13,4.47-1.75l4.64-1.06,0.3,0.3-0.64,6.65Q293.72,35.92,298,42.1l0.85,0.38q1.7-1.62,3.41-7l0.55-6A33.22,33.22,0,0,0,301,16.2l0-.6q1.36-2.94,7.24-2.43l2.39,0.26Q312,15,311.06,25Z" style="fill:#fff"/><path d="M320.26,21.9q0.89,0.85,3.32,6.09,5.24,11.84,3.71,31.82L324,58.92h-4.22l1.32-6.69q0-16.36-10.91-31.57V19.77a7.74,7.74,0,0,1,4.35-2.6q23.64-6.6,35.31-4.47,6.73,1.79,6.73,5.58-0.3,9.33-20.58,24.67,6,8.39,18.57,16.36,1.32,1.62-8.31.25-9.37-5.62-12.84-9.2a24.78,24.78,0,0,1-4.92-6.77l-0.26-2A84,84,0,0,0,344.67,27.1l2.85-4.52q1.32-3.19.51-4.26a2,2,0,0,0-1.79-1.06A74,74,0,0,0,320.26,21.9Z" style="fill:#fff"/><path d="M389.27,16.62l0.6,0q2.68,4,2.6,5.2-7.92,5-22.41,8.14-5.24.17-5.32,1-0.17,1.53,2,4.22l0.89,0.08a91.23,91.23,0,0,1,18.4-5.5q3.36,2.6,3.66,3.45-1.58,1-9.52,2.9t-11.69,2.9l-0.34.6,1.24,5.67q1.06,10.18-1.24,17.51l-7.5-.68,0.64-8.52V52.19q0.51-10.74-2.26-11-2-.85-2-1.45l2.9-1.87,0.13-.89q-1.62-4.35-2.81-5.5l-1.83-.21-0.34.3q-1.19-.34-1-2.6l0-.26q0.26-2.34,1.49-2.64l2.17,0.21q14.57-1.41,21.58-4.43A47.61,47.61,0,0,0,389.27,16.62Z" style="fill:#fff"/></svg>