<svg id="Layer_1" data-name="Layer 1" xmlns="http://www.w3.org/2000/svg" viewBox="0 0 371.2 225.82"><title>mictlan-big-logo</title><path d="M239.4,201.45a7,7,0,0,1-1-.07l-0.93-.13a6.88,6.88,0,0,1-.9-0.19l-8.09-2.3a6.89,6.89,0,0,1-4.92-7.65V191l-0.07-1a6.9,6.9,0,0,1,.62-3.37l0-.11a40.07,40.07,0,0,0,3.9-11.88,4.67,4.67,0,0,0-.09-1.44l-0.22-.09-1.72-.77a6.89,6.89,0,0,1-1.64-1,173.32,173.32,0,0,1-21.65,6.29,6.42,6.42,0,0,1-.13,1,6.7,6.7,0,0,1,0,.92l-0.46,4a6.91,6.91,0,0,1-1.15,3.09,6.8,6.8,0,0,1-2.83,2.73,7,7,0,0,1-7.07-.45h0a8.79,8.79,0,0,0-.94-0.38H190a6.88,6.88,0,0,1-1.89-.26l-0.37-.08a6.86,6.86,0,0,1-2.34-.16l-1.21.07a6.92,6.92,0,0,1-4.94-1.69,6.76,6.76,0,0,1-.63.6,6.89,6.89,0,0,1-5.13,1.57h-0.13a38.82,38.82,0,0,0-6.41.88,6.92,6.92,0,0,1-2.89-.07c-5.29-1.26-10.78-4.49-16.8-9.86a7,7,0,0,1-.63-0.64l-0.4-.46a25.84,25.84,0,0,0-4.1.29L141.07,181a6.85,6.85,0,0,1-.68,3.91l-0.39.78a6.84,6.84,0,0,1-6.15,3.8h0a6.89,6.89,0,0,1-1.33-.13l-2.84-.56-1.78-.08a6.85,6.85,0,0,1-2.32,2.12,7,7,0,0,1-6.93-.16,9.12,9.12,0,0,0-1-.35,7,7,0,0,1-1.2,0h-1.85a6.86,6.86,0,0,1-1.86-.26,6.72,6.72,0,0,1-3,.42l-1.48-.13a16.05,16.05,0,0,0-4.2,1.06,6.88,6.88,0,0,1-3.06.33c-3.41-.41-6-2.54-7.62-6.34-3.84,2.49-8.66,3.75-14.34,3.75H78.57A6.89,6.89,0,0,1,77,189a6.83,6.83,0,0,1,.81,4.32l0,0.27a6.88,6.88,0,0,1-2.28,4.19l-0.31.27a6.87,6.87,0,0,1-6.46,1.43H68.52l-0.51,0-1-.07-5.33-.31a6.86,6.86,0,0,1-1.06-.15c-6.28-1.36-12.36-5.44-18.61-12.47q-0.22-.25-0.42-0.52-0.8-1.1-1.55-2.17l-0.33.66a6.85,6.85,0,0,1-6.11,3.72s-2.93-.05-8.78-0.16A6.85,6.85,0,0,1,20,185.85a7.67,7.67,0,0,1-6.63,2.59,6.91,6.91,0,0,1-1.09-.2L6,186.55a6.78,6.78,0,0,1-4.3-2.27,6.88,6.88,0,0,1-1.67-5.41l0-.31a6.72,6.72,0,0,1,.17-0.89l2-7.47a6.86,6.86,0,0,1,.14-2q0-.33,0-0.66l0-.54a6.89,6.89,0,0,1,.3-1.56l0.15-7.29q0-.35.05-0.7A18.85,18.85,0,0,1,3,153.71a6.92,6.92,0,0,1,2.63-4.64,6.83,6.83,0,0,1,4-1.42,44.26,44.26,0,0,1,7.88-1,11.85,11.85,0,0,1,1.31.07,6.86,6.86,0,0,1,1.21.25L20,146.77a6.91,6.91,0,0,1,.78-7.25c2.59-3.29,4.27-4.81,6.23-5.59a6.9,6.9,0,0,1,4.68-.15c7.78,2.54,14.5,4.72,14.83,10.52a80.4,80.4,0,0,0,2.36,8.88l0.35-.27a11.64,11.64,0,0,1,1.14-6.66c2.19-7.75,7.6-8.59,9.82-8.59,0.32,0,.65,0,1,0l0.89-.09a6.93,6.93,0,0,1,1,0c4.59,0.29,7,2.44,8.2,4.2a9.1,9.1,0,0,1,1.5,3.89A49.12,49.12,0,0,1,78.17,143a7.49,7.49,0,0,1,3.52-.54,6.83,6.83,0,0,1,3.87-1.19h2.72A23.23,23.23,0,0,1,95,142.49a12.94,12.94,0,0,1,2.28,0c1,0,2,.06,2.82.07,1.74-3.25,4.25-4.9,7.47-4.9l6.17-.39c0.83-3,3.64-6.4,12.12-6.4H126l2.63-.27a6.88,6.88,0,0,1,7.58,6.84v0.26l4.73-1.42a7,7,0,0,1,7.14,2.06l0.27,0.31a6.85,6.85,0,0,1,1.62,5.57,6.88,6.88,0,0,1,2.17,1.76,6.86,6.86,0,0,1,2.79-.68c3.79-.09,5.52-0.21,6.23-0.28a7,7,0,0,1,5.63.32A72.5,72.5,0,0,1,183,156.59a88.4,88.4,0,0,1,9.1-21c0.89-2.56,3.52-5.71,10.73-5.71q0.8,0,1.73,0l2.64-.17a6.92,6.92,0,0,1,5.53,2.25,6.66,6.66,0,0,1,.83,1.15c6.53-5.39,7.71-5.67,10-5.67l8.62-.51a6,6,0,0,1,1.41-.21l10.5-.39a6.88,6.88,0,0,1,6.06,10.12l-6.12,11.45-0.22.39-0.23.36c4.66-.81,8.54-1.43,11.55-1.85a6.84,6.84,0,0,1,.94-0.06l9.38,0.15,0.47,0,1.39,0.12a6.85,6.85,0,0,1,1.07.18l3.43,0.85,1.75-.4,0.53-.1v-0.08l0-.54a6.83,6.83,0,0,1,.62-2.41c1.08-2.34,4-6.26,11.33-6.26,0.67,0,1.37,0,2.09.1l2.31,0.25a6.85,6.85,0,0,1,4.47,2.34l0.23,0.28c9.85-2.55,17.83-3.79,24.39-3.79a39.63,39.63,0,0,1,7.07.58l0.53,0.12c9.48,2.52,11.14,8.1,11.23,11.42,6.15-.91,9.51-2,11.26-2.74,4.84-2.09,6.72-3.31,7.41-3.86a6.91,6.91,0,0,1,4.75-1.46l0.54,0a6.83,6.83,0,0,1,5.22,3h0c2.78,4.14,3.7,6.51,3.51,9.05a6.91,6.91,0,0,1-3.18,5.31l-0.65.41a7.9,7.9,0,0,1,1,1.92,6.84,6.84,0,0,1-2.86,8.11c-1.47.91-3.77,1.81-10.69,3.48L350.18,174a46.42,46.42,0,0,1-1.42,18.55,6.86,6.86,0,0,1-7.18,4.79l-6.83-.62a6.85,6.85,0,0,1-4.22-2,13,13,0,0,1-2.38.21,52.5,52.5,0,0,1-6.9-.64,6.83,6.83,0,0,1-2.57-.91c-2.66-1.6-5-3.1-7-4.47a6.85,6.85,0,0,1-2.8,4.42,6.93,6.93,0,0,1-5.76,1l-2.15-.58h-2.93a6.87,6.87,0,0,1-6.75-8.21l1.07-5.4a37.64,37.64,0,0,0-.33-4.4c-1.49,2.32-6,9.38-13.25,9.38q-0.46,0-.92,0l-2.53-.24a11.74,11.74,0,0,1-7.32-3.75c-4.33,3.64-9.86,7.84-16.44,12.49l-0.36.24-0.45.26a28.64,28.64,0,0,0-5,3.14A6.92,6.92,0,0,1,239.4,201.45Zm-14.74-31.25,0.22,0.2a5.88,5.88,0,0,0,1.6,1.06l1.72,0.77,0.41,0.17,0.25,0.09,0.07,0.26a5.84,5.84,0,0,1,.18,2,41,41,0,0,1-4,12.2l0,0.1a5.88,5.88,0,0,0-.53,2.88l0.08,1.09,0,0.21a5.89,5.89,0,0,0,4.21,6.54l8.09,2.3a5.91,5.91,0,0,0,.77.16l0.93,0.13a5.91,5.91,0,0,0,6.3-3.65l0-.11,0.09-.08a27.92,27.92,0,0,1,5.33-3.35l0.39-.23,0.31-.21c6.74-4.76,12.37-9,16.73-12.74l0.36-.31,0.33,0.35a10.83,10.83,0,0,0,7,3.78l2.53,0.24q0.41,0,.83,0c6.68,0,11-6.71,12.41-8.92a5.93,5.93,0,0,0,.45-0.84l0.83-2,0.3,1.67a38.54,38.54,0,0,1,.59,6.16v0.1l-1.08,5.46a5.88,5.88,0,0,0,5.76,7l3.13,0,2.21,0.6a5.88,5.88,0,0,0,7.39-5.22l0.07-.89,0.74,0.33c2.07,1.48,4.62,3.14,7.58,4.91a5.84,5.84,0,0,0,2.2.78,51.64,51.64,0,0,0,6.76.63,11.74,11.74,0,0,0,2.44-.24l0.28-.06,0.19,0.21a5.86,5.86,0,0,0,3.77,1.86l6.83,0.62a5.86,5.86,0,0,0,6.14-4.09,45.59,45.59,0,0,0,1.36-18.32l-0.09-.69,0.44-.11,5-1.22c6.79-1.64,9-2.5,10.39-3.36a5.84,5.84,0,0,0,2.45-6.93,7.09,7.09,0,0,0-1.16-2.09l-0.35-.45,0.49-.29,1.1-.67a5.9,5.9,0,0,0,2.71-4.54c0.16-2.29-.71-4.49-3.35-8.42h0a5.84,5.84,0,0,0-4.46-2.59l-0.54,0a5.91,5.91,0,0,0-4.06,1.25c-0.73.58-2.69,1.86-7.63,4-1.86.8-5.46,2-12.09,2.9l-0.6.08,0-.85c0-3-1.36-8.33-10.5-10.76l-0.45-.1a38.68,38.68,0,0,0-6.89-.57c-6.55,0-14.55,1.26-24.46,3.84l-0.33.09-0.2-.28q-0.18-.25-0.38-0.48a5.86,5.86,0,0,0-3.82-2l-2.29-.24c-0.69-.06-1.37-0.09-2-0.09-6.78,0-9.44,3.56-10.43,5.68a5.86,5.86,0,0,0-.53,2.06l0,0.54q0,0.23,0,.45v0.46l-0.46,0a5.85,5.85,0,0,0-.84.13l-2,.46-3.66-.91a5.92,5.92,0,0,0-.92-0.15l-1.39-.12-0.41,0-9.37-.15a5.83,5.83,0,0,0-.79.06c-3.23.44-7.48,1.13-12.61,2l-1.1.19,1.41-2.26,0.19-.33L249.33,136a5.88,5.88,0,0,0-5.18-8.64h-0.22l-10.24.39a5.88,5.88,0,0,0-1.29.19l-8.75.53c-2,0-2.87,0-9.9,5.84l-0.5.41-0.27-.59a5.83,5.83,0,0,0-5.69-3.38l-2.69.17c-0.65,0-1.21,0-1.73,0-6.62,0-9,2.79-9.82,5.13a87,87,0,0,0-9.25,21.67l-0.21.83-0.62-.6a70.89,70.89,0,0,0-16.58-11.69,5.94,5.94,0,0,0-4.87-.25l-0.13,0c-0.84.09-2.63,0.21-6.38,0.3a5.89,5.89,0,0,0-2.71.75l-0.39.22-0.26-.36a5.88,5.88,0,0,0-2.38-1.95l-0.36-.16,0.12-.65a5.85,5.85,0,0,0-1.37-4.84l-0.27-.31a6,6,0,0,0-6.1-1.76l-6.16,1.84,0.09-.75a5.81,5.81,0,0,0,.06-0.66v-0.23a5.87,5.87,0,0,0-6.47-5.84l-2.89.28c-6.46,0-10.34,2.07-11.23,6l-0.08.36-6.89.44c-3,0-5.23,1.56-6.8,4.63l-0.14.28h-0.31c-0.91,0-2,0-3.18-.08a11.86,11.86,0,0,0-2.22,0h-0.1l-0.1,0a22.54,22.54,0,0,0-6.55-1.2H85.56a5.83,5.83,0,0,0-3.43,1.11l-0.15.11H81.79a6.65,6.65,0,0,0-3.23.45,47.21,47.21,0,0,0-5.88,3l-0.71.44,0-.83a8.18,8.18,0,0,0-1.41-4.19c-1.08-1.57-3.25-3.5-7.44-3.77a6,6,0,0,0-.89,0l-1,.09c-0.39,0-.68,0-1,0-2,0-6.85.77-8.88,7.93a10.59,10.59,0,0,0-1,6.45l0.07,0.34-0.29.18a5.78,5.78,0,0,0-1,.85l-0.57.57-0.26-.77a81.7,81.7,0,0,1-2.64-9.8c-0.3-5.18-6.72-7.27-14.15-9.69a5.9,5.9,0,0,0-4,.13c-1.77.71-3.35,2.14-5.82,5.28a5.91,5.91,0,0,0-.66,6.2l0.11,0.26,0.35,1.94-0.86-.39a5.88,5.88,0,0,0-1.77-.48,10.82,10.82,0,0,0-1.2-.06,44.39,44.39,0,0,0-7.78,1A5.89,5.89,0,0,0,4,153.83a18.89,18.89,0,0,0-.11,3.64c0,0.29,0,.49,0,0.69l-0.18,7.5a5.9,5.9,0,0,0-.27,1.39l0,0.54a6,6,0,0,0,0,.62v0.13a5.85,5.85,0,0,0-.12,1.85v0.09l-2,7.64a5.88,5.88,0,0,0-.15.76L1,179a5.88,5.88,0,0,0,5.16,6.57l6.32,1.7a5.86,5.86,0,0,0,.93.17,6.63,6.63,0,0,0,6.12-2.67l0.39-.51,0.4,0.5a5.86,5.86,0,0,0,4.48,2.2l8.76,0.16a5.85,5.85,0,0,0,5.21-3.18q0.35-.68.67-1.41l0.36-.83,0.51,0.75q1,1.41,2,2.87,0.17,0.23.36,0.44c6.1,6.86,12,10.84,18.08,12.16a6,6,0,0,0,.91.12l6.34,0.38,0.44,0h0.39l0.08,0a5.87,5.87,0,0,0,5.58-1.2l0.31-.27a5.88,5.88,0,0,0,1.95-3.58l0-.27a5.86,5.86,0,0,0-1.44-4.74l-1.21-1.35,2.6,0.81a5.88,5.88,0,0,0,1.76.27H79c5.73,0,10.53-1.32,14.28-3.92l0.52-.36L94,184.45c1.49,3.79,3.86,5.9,7,6.28a5.87,5.87,0,0,0,2.62-.28,16.11,16.11,0,0,1,4.58-1.11l1.52,0.13a5.8,5.8,0,0,0,2.72-.42l0.17-.07,0.17,0.05a5.88,5.88,0,0,0,1.73.26h1.9a6.06,6.06,0,0,0,1.16,0h0.09l0.09,0a8.61,8.61,0,0,1,1.32.47,6,6,0,0,0,6,.16,5.88,5.88,0,0,0,2.12-2l0.16-.25,2.43,0.11,2.91,0.57a8.09,8.09,0,0,0,1.14.11,5.84,5.84,0,0,0,5.25-3.25l0.39-.78a5.85,5.85,0,0,0,.56-3.47l0-.15,1.43-2.95,0.24,0a25.78,25.78,0,0,1,4.77-.35h0.23l0.15,0.18,0.54,0.63a5.94,5.94,0,0,0,.54.55c5.89,5.26,11.24,8.41,16.36,9.64a5.92,5.92,0,0,0,2.47.06c4.61-.88,6.28-0.94,6.81-0.9a5.8,5.8,0,0,0,4.39-1.34,5.92,5.92,0,0,0,.84-0.87l0.35-.45,0.4,0.41a5.9,5.9,0,0,0,4.56,1.77l1.36-.08,0.08,0a5.91,5.91,0,0,0,2.14.15h0.08l0.59,0.13a5.88,5.88,0,0,0,1.61.23h0.31l0.09,0a8.17,8.17,0,0,1,1.23.5,6,6,0,0,0,6.08.41,5.86,5.86,0,0,0,2.44-2.37,6,6,0,0,0,1-2.68l0.46-4a5.75,5.75,0,0,0,0-.84v-0.13a5.83,5.83,0,0,0,.13-1.27v-0.41l0.41-.08c5.09-.94,12.34-3,22.18-6.42Zm105.43,10.2-0.76-.53a60.86,60.86,0,0,1-7.66-6.3l-0.39-.39,0.42-.35c1.32-1.1,2.57-2.19,3.7-3.24l0.77-.71,0.07,1a6.65,6.65,0,0,0,3.58,5.33l0.22,0.13,0,0.25a33.44,33.44,0,0,1,.06,3.83Zm-7.33-7.16a59.58,59.58,0,0,0,6.38,5.26c0-1.15,0-2-.06-2.53a7.76,7.76,0,0,1-3.71-5C324.55,171.7,323.68,172.46,322.77,173.23Z" style="fill:#fff"/><path d="M61.7,183.64L63,183.76a19.2,19.2,0,0,1,3.57-5.32l0-.23-7.49-1.4,0,0.54-0.5,0-0.16-4.11q0.78-4.34,2.17-9.78l2.56-5.59-10,.74-1.32,5,0,0.27-0.78,5.08,0.23,0.31-0.31.23-0.08.54,0.16,1.36-0.31.23,0,2.23c-1.23-1.93-2.4-3.93-3.49-6A99.11,99.11,0,0,1,39.7,145q0.15-1.28-10.09-4.62-1,.39-3.38,3.45h0.27q2.79,14.67,2.13,20.64l-1,4-0.5,0-0.5-.58q-7-8.61-8.54-14.24-1.75-.19-8,1l-0.27,0a10.57,10.57,0,0,0,.12,3.8l-0.23,0-0.19,9.23-0.27,0,0,0.54,0.19,0.81-0.35.81,0.12,1.09-2.29,8.69,0,0.31H7.15l6.91,1.86a1.15,1.15,0,0,0,1.16-1l-0.23,0a24.88,24.88,0,0,0,1.71-6.09l0.5-4.81-0.12-1.36q5,7.41,7.88,12.76l8.65,0.16a24.45,24.45,0,0,0,2.29-8.46,49.19,49.19,0,0,0-.27-12.8l0-.54,0.27,0q-0.08,1.13,1.67,5,1.94,6.91,9.54,17.34,7.8,8.77,14.94,10.32l5.39,0.31,1,0.08,1.94,0,0.23,0.31L71,192.6l0-.27q-5.24-1.47-12.32-8.48A10.2,10.2,0,0,1,61.7,183.64Z" style="fill:#fff"/><path d="M57.66,153.22q7.41,0.23,8.15-4.58,1.2-3.88-3.1-4.15l-1.75.16q-2.91-.7-4.07,4Q54.87,152.72,57.66,153.22Z" style="fill:#fff"/><path d="M89.79,169.32q-3.76,5.82-7.49,6.13t-5.41-.91q-1.69-1.22-2.23-4.87-0.93-7.49,9.82-14l6.91-2.41v-0.39q-7.45-3.49-10.48-3.49-14.7,6.36-14.7,17,0,10.47,8.54,14.7l3.84,1.2H79q10.63,0,14.7-6.94Q92.31,168.35,89.79,169.32Z" style="fill:#fff"/><path d="M159.35,171a108.52,108.52,0,0,1-12.49-20.68l-4.31-.19-0.27,0-0.27-.23v0.23a20.16,20.16,0,0,1-4.3-.92l1.35-.47q1.75,0.19,4.11-5.28l0-.23-0.27-.31L132.31,146v-0.23q-2.82.67-6,1.2,1.32-7.16,3-9.35v-0.23l-3,.31q-6-.08-6,1.79c-0.92,2.95-1.71,5.82-2.41,8.63-1.17.12-2.35,0.23-3.56,0.33h-0.23l1.51-4.19,0-.27-8,.5q-1.51-.19-2.64,4.35-0.08.78-8.19,0.47a5,5,0,0,0-2.25.25,23.83,23.83,0,0,0-6.36-1.42H85.56v0.39q0,1,7.38,2.82h0l0.12,2L94.67,154l2-.12,0.19,0.31,0.54,0,1.4-.12,1.09,0.12,1.55,0.47-2.29,8.69,0,0.27-0.78,5.08,0.23,0.31-0.31.23-0.08.54,0.16,1.36-0.31.23,0.08,4.38q1,8.77,3.65,9.08,4.81-1.67,7.22-1.4l1.32,0.12a19.18,19.18,0,0,1,3.57-5.32l0-.23-7.49-1.4,0,0.54-0.5,0-0.16-4.11q0.78-4.35,2.17-9.78l3.22-7q0.19-2.37,4-2.25l1.45-.16a105.77,105.77,0,0,0-2,14.52l-0.31.81,0.27,0-0.35,1,0.16,1.4v0.27l-0.27.27,0.19,1.59,0.08,4.77,0.19,4.89h2.33l0.27,0,0.31-.27a16.74,16.74,0,0,1,4.77,1.63v-0.23l0.31-.27,0.18-2.72,7.65,0.36,0.31,0,3.14,0.62,0.39-.78-0.66-1.16,2.75-5.66q0.39-3.65,11.79-3.38l0.08-1-0.27-.08q-2.21-3.45-4.23-3.69l-0.23,0-4.62,0,1.24-6.63,0.31-2.95,0.54,0q-0.08.7,2.06,3.49a59.66,59.66,0,0,0,8.85,13.7q7.64,6.83,13.81,8.3,6.29-1.2,8.54-1l0-.54q-2.6-.31-10.24-5.7Zm-26.42-14.55L129.48,168l-2.29.81,0.19,3.57a35.25,35.25,0,0,1-4.69,7l-0.09-.51,0.31-.23-0.16-1.59v-0.31l0.27-.27-0.23-.81q0.15-2.33.31-4.54L124.47,158q0.41-2.89.91-5.51,4.18-.84,8.16-2l-0.61,5.65-0.27.27h0.27Z" style="fill:#fff"/><path d="M312.87,172.35q18.47-14,18.74-22.46,0-3.45-6.13-5.08-10.63-1.94-32.16,4.07a6.78,6.78,0,0,0-2.77,1.28q0-3.81-.72-4.7l-2.17-.23q-5.35-.47-6.6,2.21l0,0.54A30.26,30.26,0,0,1,282.69,160l-0.5,5.51q-1.55,4.89-3.1,6.36l-0.78-.35a18.29,18.29,0,0,1-3.4-8.14,6.74,6.74,0,0,0,.44-1.4,8.33,8.33,0,0,0-.4-2.33l0.48-5-0.27-.27-3.76.86c-0.16-.1-0.3-0.21-0.46-0.31l-4.15-1-1.39-.12-9.27-.15c-8,1.11-22.22,3.69-42.12,7.67l-0.33-.36-0.28.08A31.05,31.05,0,0,1,202,162.21c-0.87-.1-1-0.4-1.07-0.55l0-.35c2.26-3.09,7.4-8,15.27-14.5,9.49-7,14-9.82,16.07-10.82-0.47.9-1,2-1.6,3.43l-0.23.2-0.1.13c-2.75,5.3-5.51,9.16-8.2,11.46l-0.14.12-0.06.9,0.44,0.62,11.23-1.09,4.4-7.08,6.12-11.45-10.24.39-0.12.12,0,0-10,.6c-0.44,0-1.17-.09-15.2,12.14-4.19,3.68-6.88,6.21-8.62,8l0.15-.51,1.63-5q3.72-9.54,5.9-12.14l0-.23-3.06.19q-5.94-.35-6.09,1.51-9,15.13-10.4,28.21l-0.35.81,0.27,0-0.39,1,0.12,1.4,0,0.27-0.27.23,0.12,1.63,0,0.31-0.27,0-3.84-5q-7.22-9.19-19.75-15.71-0.08.54-8.54,0.74l4,5.86q3.76,8.38,3.3,12.3l-0.27.23,0.16,0.81q0.85,1.71,5.66,5.51l0.27,0a27.77,27.77,0,0,0,2.91-9.19l0.08-.81q0-.47-2.75-2.21l0-.27,0.27,0q8.07,4.15,15,16.84l3.3-.19,0,0.31,0.31-.27,2.37,0.5,0.27,0.08,0.31-.27a16.33,16.33,0,0,1,4.7,1.86V183.1l0.31-.27,0.47-4-0.15-1.4,0.31-.19-0.08-1.63v-0.31l0.31-.23-0.19-.81c0.16-.95.31-1.86,0.46-2.75,4.82,0.06,15.34-2.83,32.08-8.82a238.23,238.23,0,0,1,31.93-5l0.25,0.32,1.84-.09,1.32,0.16c0.77,0.09,1.71.31,1.94,0.87l0,0.12c-1.06,3.33-5.52,8.72-13.28,16a60.56,60.56,0,0,1-10.14,8.73,22.58,22.58,0,0,0,2.41-15.64l0-.11a11.21,11.21,0,0,0-6.46-5.78l-0.13,0-0.13,0c-8.94,2-9,2.28-9,2.73l-0.11,1.1,1.72,0.77V166.6l2.42,0.85a13.29,13.29,0,0,1,1.91,8,45.83,45.83,0,0,1-4.5,14l-0.05.11,0.12,1.74-0.13.85,8.09,2.3,0.93,0.13,0.11-.37c0.33-1.07,2-3,8.08-6.21l0.05,0c9.89-7,17.07-12.7,21.65-17.24,2.32,4.63,4.56,7.08,6.71,7.27l2.48,0.23q3.61,0.31,7.8-6.21a53.35,53.35,0,0,0,3.88-16c0.09-.88.16-1.7,0.21-2.48q8.9,13.17,8.91,27.27l-1.2,6.09h3.84l3,0.81q1.4-18.2-3.38-29-2.21-4.77-3-5.55A67.42,67.42,0,0,1,322.22,149a1.77,1.77,0,0,1,1.63,1q0.74,1-.47,3.88l-2.6,4.11a76.54,76.54,0,0,1-15,13.23l0.23,1.78a22.57,22.57,0,0,0,4.48,6.17q3.16,3.26,11.7,8.38,8.77,1.24,7.57-.23Q318.34,180,312.87,172.35Z" style="fill:#fff"/><path d="M358.5,160.4a83.09,83.09,0,0,0-16.76,5l-0.81-.08q-2-2.44-1.86-3.84,0.08-.78,4.85-0.93,13.19-2.83,20.41-7.41,0.08-1.09-2.37-4.73l-0.54,0a43.36,43.36,0,0,1-8.94,4.77q-6.38,2.76-19.65,4l-2-.19q-1.13.27-1.36,2.41l0,0.23q-0.19,2.06.89,2.37l0.31-.27,1.67,0.19q1.09,1,2.56,5l-0.12.81-2.64,1.71q-0.08.54,1.79,1.32,2.52,0.23,2.06,10v1.32l-0.58,7.76,6.83,0.62a39.62,39.62,0,0,0,1.13-15.95l-1.13-5.16,0.31-.54q3.41-.89,10.65-2.64t8.67-2.64Q361.56,162.77,358.5,160.4Z" style="fill:#fff"/><path d="M243.44,148l-0.82,1.31c5.16-.91,9.38-1.59,12.63-2a6.38,6.38,0,0,1,.87-0.06h0.74q-3.73-5-7.8-9.71l-5.41,10.13Z" style="fill:#fff"/><path d="M233.67,127.23l5.23-.2c-1.66-1.55-3.35-3.08-5.07-4.54-0.16-.14-0.31-0.28-0.46-0.43l-0.2-.2-1.15-1h0l-0.62-.55-0.16-.1-0.34-.28a0.64,0.64,0,0,0-.17.16l-0.14.37a14.33,14.33,0,0,0-.63,1.85,46.31,46.31,0,0,0-.93,5.32l3.24-.19A6.36,6.36,0,0,1,233.67,127.23Z" style="fill:#fff"/><path d="M224,191.69c-0.3-1.87-.61-3.77-1-5.76-0.86-4.79-2-9.47-3-13.64a142.35,142.35,0,0,1-17.72,4.92,6.4,6.4,0,0,1-.14,1.38,6.31,6.31,0,0,1,0,.91l-0.46,4a6.58,6.58,0,0,1-8.29,5.92,90.31,90.31,0,0,0,8.11,14.36c0.14,0.2.27,0.42,0.4,0.63l0.55,0.94c0.53-3.56,1.38-7.1,2.2-10.53l0.3-1.25c0.55-2.31,1-4.65,1.46-6.84a20.73,20.73,0,0,0,.23-5.12l-0.21-1.51,0.57-.23,0.63,1.3c0.6,1.18,1.22,2.37,1.83,3.55,2.24,4.33,4.56,8.82,6.51,13.39a54.76,54.76,0,0,1,3.58,12.9v0.07a5.27,5.27,0,0,1,.09.78,0.9,0.9,0,0,1-.67.94,1.32,1.32,0,0,1-1-.17,3,3,0,0,1-.71-0.8l-1-1.42c-0.4-.6-0.81-1.2-1.22-1.79a14.19,14.19,0,0,0-1.16-1.46,1.1,1.1,0,0,0-.83-0.4,1.63,1.63,0,0,0-.62.14,3.46,3.46,0,0,0-1.9,2.12,8.16,8.16,0,0,0-.09,4.89,3.29,3.29,0,0,0,1.73,2.37,35.78,35.78,0,0,0,8.83,3.61,9.62,9.62,0,0,0,1.79.18,1.18,1.18,0,0,0,1.19-.62l0.08-.14a11.43,11.43,0,0,0,.73-1.44,17,17,0,0,0,.94-5.26,66.81,66.81,0,0,0-.44-11.16c-0.25-2.27-.56-4.6-0.91-7A6.34,6.34,0,0,1,224,191.69Z" style="fill:#fff"/><path d="M227.2,55.92l-3.46,2.54-0.07-.1,0.06,0.1-0.46.32-0.17.2-0.54.4,0.32,0.11a25.16,25.16,0,0,1,9,4.51,22.23,22.23,0,0,1,7.78,13.33l0.16,0.81,0.59-.57,2.2-2.13a68.2,68.2,0,0,0,7.72-8.53A73.28,73.28,0,0,0,261,46.71c0.2-.62.43-1.23,0.66-1.83a25.46,25.46,0,0,0,1.25-4.09c0.26-1.41.57-2.79,0.9-4.12a24.13,24.13,0,0,0,.68-5.33c0-.87.08-1.75,0.13-2.6,0-.48.06-1,0.09-1.45a11.35,11.35,0,0,0-.24-2.51c0-.25-0.08-0.5-0.12-0.75l-0.3.33-0.64.74c-0.43.5-.87,1-1.34,1.49-3.88,4-8,7.9-12.38,11.69-6.17,5.39-12.7,10.37-17.7,14.1Z" style="fill:#fff"/><path d="M81.83,143a6.35,6.35,0,0,1,3.72-1.2H88a6.28,6.28,0,0,0,1.35-1.48,4.27,4.27,0,0,0,.51-1.27,1.15,1.15,0,0,1,.85-0.94,1.21,1.21,0,0,1,1.35.45,1.49,1.49,0,0,0,2.08.51l1.34-.58c1-.4,1.93-0.82,2.87-1.28a37.56,37.56,0,0,0,4-2.2,13.31,13.31,0,0,0,2-1.72l0.37-.37a1.52,1.52,0,0,0,.41-0.79,28.12,28.12,0,0,0,.4-6.84,6.28,6.28,0,0,0-.15-0.84l-0.06-.24-0.23,0a8.11,8.11,0,0,0-.81.1,4.35,4.35,0,0,0-2.38,1.4,4.11,4.11,0,0,1-3,1.53,1.41,1.41,0,0,1-1-.36,1.34,1.34,0,0,1-.31-1,3.49,3.49,0,0,1,.12-0.66c0-.09,0-0.18.07-0.27l0.05-.24,0.6,0.11v0.36c0,0.11,0,.21,0,0.32a0.86,0.86,0,0,0,.2.7,0.83,0.83,0,0,0,.7-0.11,2.65,2.65,0,0,0,.7-0.43,8.82,8.82,0,0,0,1.14-1.12,5.31,5.31,0,0,1,3-1.85,2.52,2.52,0,0,1,2.08.13,2.49,2.49,0,0,1,.87,1.86,26.78,26.78,0,0,1,.25,3.48c0,0.65-.06,1.3-0.11,1.93s-0.1,1.19-.11,1.78a3.93,3.93,0,0,1-1.18,2.85,28,28,0,0,1-2.7,2.34,29,29,0,0,1-5.49,3.07c-0.86.4-1.75,0.82-2.6,1.26a4.26,4.26,0,0,1-3.71.08q-0.26.32-.55,0.63A36,36,0,0,1,95,143a11.79,11.79,0,0,1,1.29-.09q0.48,0,1,0c1.2,0,2.26.07,3.16,0.08,1.66-3.26,4.06-4.91,7.17-4.91h0l6.52-.41c0.66-2.9,3.22-6.37,11.72-6.37H126l2.68-.27a6.38,6.38,0,0,1,7,6.34v0.23a6.34,6.34,0,0,1-.06.72l5.44-1.63a6.37,6.37,0,0,1,6.62,1.91L148,139a6.37,6.37,0,0,1,1.49,5.25l0,0.23v0a6.36,6.36,0,0,1,2.58,2.11,6.35,6.35,0,0,1,2.94-.81c3.84-.09,5.59-0.21,6.34-0.29a6.38,6.38,0,0,1,5.28.27,71.23,71.23,0,0,1,16.7,11.78,86.72,86.72,0,0,1,9.26-21.71,7.14,7.14,0,0,1,1.69-2.69c-1.43,0-2.86,0-4.26-.09l-1.7,0-15.68-.43-7.34-.21-2.08,0c-1.46,0-3-.06-4.45-0.14-1.63-.09-3.29-0.24-4.89-0.39l-1.95-.17-7.78-.67-30.53-2.61-5-.35,0-.67,5.15,0.31,22.92,1.06,5.17,0.25c3.85,0.19,7.82.39,11.73,0.52,5.91,0.21,11.84.31,16.34,0.37,7.82,0.11,16.21.22,24.6,0.25,3.54,0,7.07-.16,10.05-0.32,2.29-.13,4.62-0.35,6.87-0.56l1.67-.16a11.91,11.91,0,0,0,2-.37,1.2,1.2,0,0,0,.65-0.42,9.23,9.23,0,0,0,1.1-1.95,21.16,21.16,0,0,0,1.32-7.34v-0.45c0-.49,0-1,0-1.46a3.13,3.13,0,0,0-.43-1.68,2.41,2.41,0,0,0-1.7-1.31c-5.89-1.34-11-2.69-15.73-4.12-2.82-.86-5.66-1.84-8.4-2.79l-2.39-.82q-11.38-3.89-22.75-7.81l-0.64-.22a15.17,15.17,0,0,1-1.47-.6l-2.24-1.06c-1.36-.65-2.77-1.32-4.18-1.94a70,70,0,0,1-6.45-3.38l-1.93-1.09a32.9,32.9,0,0,0-11.32-3.88,3.35,3.35,0,0,0-.65,0h-3.79l0.33-.41a0.47,0.47,0,0,1,.27-0.24,13.84,13.84,0,0,1,5-.37,36.63,36.63,0,0,1,8.43,2.36l0.33,0.12a26.6,26.6,0,0,1,2.8,1.26c0.89,0.45,1.76.92,2.64,1.39,1.62,0.86,3.29,1.76,5,2.51,3.36,1.49,6.73,2.81,10.76,4.33,7.08,2.68,14.44,4.89,21.57,7l3.12,0.94c6.63,2,13.85,3.87,22.08,5.73l0.47,0.08a5.69,5.69,0,0,1,.68.14,4.45,4.45,0,0,1,2.13,1.46,7.12,7.12,0,0,1,1.78,4.53,24.12,24.12,0,0,1-2.17,11.68,7,7,0,0,1-.46.79c2.46-1.68,3.37-1.71,4.75-1.71l3.39-.2c0.18-1.31.39-2.63,0.64-4a17.5,17.5,0,0,1,1.35-4.38c0.27-.55.54-1.11,0.82-1.66,0.53-1,1.07-2.13,1.54-3.23a66.71,66.71,0,0,0,4.28-13.26A19.77,19.77,0,0,0,236,99l-0.2.24a20,20,0,0,1-4.11,4A28,28,0,0,1,220,107.88a39.1,39.1,0,0,1-11.42,0,32.78,32.78,0,0,1-11.9-4A25.48,25.48,0,0,1,185,90.65c-0.23-.59-0.47-1.16-0.72-1.74L183.88,88l-0.62-1.49c-1.78-4.3-3.62-8.75-5.79-13a29.33,29.33,0,0,0-4.92-7.16l-2-1.17h0.88a1.88,1.88,0,0,1,1.63.62l0.39,0.31a5.81,5.81,0,0,1,.92.83l0.09,0.11a33.74,33.74,0,0,1,2.4,3.11,92.66,92.66,0,0,1,7.46,14c0.32,0.75.63,1.49,0.94,2.24a63.54,63.54,0,0,0,2.78,6.09,22.86,22.86,0,0,0,6.08,7.06,27,27,0,0,0,8.64,4.54,35.43,35.43,0,0,0,16.45,1.17c6-1,10.54-3.45,13.81-7.47A10.65,10.65,0,0,0,235,94.54a36,36,0,0,0,2-10.91,23.84,23.84,0,0,0-.59-6.24c-1.87-7.52-6.63-12.46-14.14-14.66a24.36,24.36,0,0,0-6.55-.81,32.86,32.86,0,0,0-8.87.73c-1.84.48-3.69,1.07-5.48,1.64l-0.11,0a3.75,3.75,0,0,1-2.15.06c-6-1.5-11.34-2.86-16.8-4.18a104,104,0,0,0-14.57-2.62,16,16,0,0,0-5.81.32c-1.27.35-2.57,0.67-3.83,1s-2.4.59-3.59,0.92l-2.61.71c-5,1.36-10.19,2.77-15.25,4.25a68.08,68.08,0,0,1-11.8,2.52c-2.37.26-4.7,0.58-6.93,1a47.2,47.2,0,0,0-10.68,3.14,7.68,7.68,0,0,0-4,3.81,17.67,17.67,0,0,0-1.83,5.45,4.74,4.74,0,0,1-1.82,3.15,24.61,24.61,0,0,1-4.09,2.72,53.21,53.21,0,0,1-7.82,3.39,5.26,5.26,0,0,0-1.67.85,7.72,7.72,0,0,0-2.84,6.88c0,0.56.11,1.11,0.17,1.66s0.1,0.85.14,1.28a6,6,0,0,0,.94,2.67,1.27,1.27,0,0,0,2.12.48l0.88-.55c0.77-.49,1.56-1,2.39-1.42a43.58,43.58,0,0,1,8-3.25c0.27-.08.54-0.17,0.81-0.27L99.3,98c0.86-.26,1.72-0.55,2.55-0.84A33.39,33.39,0,0,1,107,95.73l1.39-.27,1-.21,2.57-.49c2.05-.4,4.18-0.81,6.28-1.14a48.77,48.77,0,0,1,9.77-.48l0.69,0a75.53,75.53,0,0,1,10.85,1c0.81,0.16,1.63.29,2.45,0.43a45.72,45.72,0,0,1,5.25,1.08c0.65,0.19,1.3.35,2,.51,0.83,0.21,1.68.42,2.52,0.68a39.45,39.45,0,0,1,4,1.52c0.74,0.32,1.46.7,2.15,1.07,0.51,0.27,1,.54,1.54.78,1.11,0.53,2.22,1.1,3.3,1.64,2.15,1.09,4.37,2.22,6.65,3.13l3.17,1.28c2.34,1,4.76,1.93,7.17,2.82,2.91,1.07,6,2,8.68,2.83a23.28,23.28,0,0,0,6.41,1.16,50.45,50.45,0,0,1,8.65.89,15.37,15.37,0,0,1,4.75,1.59,3.63,3.63,0,0,1,1.81,2,8.32,8.32,0,0,1-.09,5.9,4.8,4.8,0,0,1-1.8,2.4,2.93,2.93,0,0,1-1.23.49c-1.87.2-3.79,0.4-5.68,0.51-6.09.33-12.18,0.45-18.09,0.37-9.81-.13-19.28-0.29-30.63-0.49h-0.79a107.14,107.14,0,0,1-12.58-.71l-0.18,0c-5.54-.75-11.28-1.53-16.85-2.76l-1.17-.25a53.23,53.23,0,0,1-9-2.52,2.54,2.54,0,0,0-.51-0.14l-2.14-.43a50.61,50.61,0,0,0-5.06-.87l-0.85-.09a32.38,32.38,0,0,0-5.52-.27,10.48,10.48,0,0,0-1.74.3c-0.25.06-.49,0.14-0.73,0.23a6.33,6.33,0,0,1-1,.29,30.18,30.18,0,0,0-7.85,2.48,14.38,14.38,0,0,0-2,1.2l-0.18.12a1.13,1.13,0,0,0-.52,1c0,1.55,0,3.09-.06,4.64q0,1.48,0,3a2.55,2.55,0,0,0,0,.39l2.27-.59-0.47.59a3.09,3.09,0,0,1-.93.73,9.52,9.52,0,0,0-2.46,1.92,4.56,4.56,0,0,0-1.22,2.9c-0.05,1.18-.12,2.35-0.18,3.53,0,0.55-.06,1.1-0.09,1.65H80.9Q81.35,142.94,81.83,143Zm111.76-64a1.13,1.13,0,0,1,.8.9l0,0.13,1,2q1.42,3,2.84,5.89a7.45,7.45,0,0,0,.84,1.35,21.12,21.12,0,0,0,8.79,6.83,15.9,15.9,0,0,0,10.89.5,19.86,19.86,0,0,0,5.78-2.94,6.41,6.41,0,0,0,1.17-1.24l0.12-.15a13.62,13.62,0,0,0,1.81-15,11.33,11.33,0,0,0-7.05-5.78,26.47,26.47,0,0,0-2.95-.64l-0.24,0a2.39,2.39,0,0,0-.66,0l-0.43,0a15,15,0,0,0-5.88,1.37c-3.92,1.79-6.11,4.67-6.51,8.55a7.29,7.29,0,0,0,2.42,6.4,10.28,10.28,0,0,0,6.48,2.92,7.61,7.61,0,0,0,4.17-.87,6,6,0,0,0,3.19-5.31,1.68,1.68,0,0,0-.54-1.41,1.62,1.62,0,0,0-1.45-.25,5.53,5.53,0,0,0-1.61.78,8.72,8.72,0,0,1-3.6,1.62,3.78,3.78,0,0,1-3.8-2.06,3.69,3.69,0,0,1,.37-4.22,2.57,2.57,0,0,1,1.6-1l0.45-.08a6.18,6.18,0,0,1,1.24-.13l0.76,0-0.63.44-0.09.07a1.22,1.22,0,0,1-.29.18l-0.54.2a5.48,5.48,0,0,0-.88.37,2.31,2.31,0,0,0-.93,3A2.39,2.39,0,0,0,213.11,83a6.62,6.62,0,0,0,2.09-1.15l0.32-.23a8.58,8.58,0,0,1,2-1.12,3.47,3.47,0,0,1,3,.24,3.64,3.64,0,0,1,1.74,2.51,6.81,6.81,0,0,1-.63,4.17,8.78,8.78,0,0,1-7.11,5.11,10.87,10.87,0,0,1-5.86-.83,13.68,13.68,0,0,1-3.81-2.28,10.32,10.32,0,0,1-3.48-10.66,12.78,12.78,0,0,1,5.86-8.3,18.88,18.88,0,0,1,7.16-2.87,15,15,0,0,1,8.53,1.18,14.57,14.57,0,0,1,9.08,11.89c0.7,4.63-.53,8.9-3.75,13.05a12.69,12.69,0,0,1-4.75,3.78,20.55,20.55,0,0,1-7.75,2.14l-1.08,0a19,19,0,0,1-11.65-4,22,22,0,0,1-8-11.11c-0.31-1-.6-2-0.89-3l-0.4-1.39-0.54-1.34Zm-83.83,1.42h0a4.62,4.62,0,0,1-.64,1.23,38.67,38.67,0,0,0-3.71,5.88,1.13,1.13,0,0,1-.12.19l-0.29.4-0.21-.28a3.54,3.54,0,0,1-.53-3.05c0.15-.67.36-1.34,0.55-2L105,82.1l-1.86-.63L103.8,81l0.32-.22,0.73-.47c0.68-.44,1.36-0.87,2.06-1.29a3.91,3.91,0,0,1,1.28-.54,1.41,1.41,0,0,1,1.35.42A1.43,1.43,0,0,1,109.76,80.36ZM127,73.59q-4.6,1.73-9.18,3.5l-3.75,1.44-0.36.13-1,.41-0.24-.58,0.87-.48,2.3-1.46c1.94-1.23,3.94-2.5,5.94-3.7a10.92,10.92,0,0,1,1.87-.82c0.42-.15.86-0.31,1.26-0.5A18.75,18.75,0,0,1,130.22,70a10.68,10.68,0,0,1,3.76.26,33.52,33.52,0,0,1,10,4.35c1.88,1.14,3.86,2.2,5.78,3.23l0.62,0.33a8.2,8.2,0,0,0,1.27.5l0.27,0.09-0.16-.49a8,8,0,0,1,.74-6.94A4.91,4.91,0,0,1,155,69.28a11.26,11.26,0,0,1,5.37-.84,9.22,9.22,0,0,1,8.05,6.46c1.16,3.88.14,7.46-3,10.63a5.84,5.84,0,0,1-1.82,1.11,1.75,1.75,0,0,1-.7.15,1.57,1.57,0,0,1-1.29-.71,1.6,1.6,0,0,1,.06-2,5.55,5.55,0,0,1,.51-0.56c0.12-.12.24-0.24,0.35-0.36a6.68,6.68,0,0,0,1.91-5.07,4.36,4.36,0,0,0-.67-2,5.86,5.86,0,0,0-5.52-2.22,2.59,2.59,0,0,0-2.1,2.29,4,4,0,0,0,.12,2.44A2.12,2.12,0,0,0,158.35,80a2.53,2.53,0,0,0,.83-0.25l0.24-.1,0.17-.09a1.4,1.4,0,0,1,.42-0.19l0.32-.07,0,0.33A1.73,1.73,0,0,1,159,81.25a13,13,0,0,1-2.62.52,14.37,14.37,0,0,1-5-.71,21.47,21.47,0,0,1-2.82-1c-3.24-1.45-6.47-2.93-9.7-4.4l-1.86-.85A22.7,22.7,0,0,0,131,72.94,8,8,0,0,0,127,73.59Z" style="fill:#fff"/><path d="M213.42,133.9c0.85-.71,1.62-1.33,2.31-1.88-1.2.16-2.26,0.28-3.3,0.36A6.39,6.39,0,0,1,213.42,133.9Z" style="fill:#fff"/><path d="M271.11,92.21L271.8,92l0-.11a0.49,0.49,0,0,1,0-.37,1.16,1.16,0,0,0-.18-1.25L271.23,90a4.47,4.47,0,0,0-2.69-.4l-3.15.4-0.76.1,6.52,2.18Z" style="fill:#fff"/><path d="M250.46,82.46a51.56,51.56,0,0,0-7.09-.37h-3.17v0.31a27.91,27.91,0,0,1-.69,6.94,65.3,65.3,0,0,1-1.87,6.77,12.89,12.89,0,0,0-.72,3.31,45.49,45.49,0,0,1-.8,5.49A65,65,0,0,1,232,117.38l-0.19.44h0.29l1.64-.1c1.33-.08,2.7-0.16,4-0.28l1.95-.17c2.22-.18,4.51-0.37,6.73-0.72a183.4,183.4,0,0,0,18-3.72,73.7,73.7,0,0,0,17.39-6.59,29.15,29.15,0,0,0,4.21-3l0.16-.13a0.67,0.67,0,0,0,.22-0.37l0-.35a30.35,30.35,0,0,0,.34-6.9,1.07,1.07,0,0,0-.11-0.44l-0.53-.51A12.41,12.41,0,0,0,284.36,93a51.1,51.1,0,0,0-10.72-5.09A110,110,0,0,0,258,83.77C255.07,83.2,252.68,82.78,250.46,82.46Zm21.64,25.38-0.38-1,0-.09a0.71,0.71,0,0,1-.1-0.38,1.24,1.24,0,0,0-.56-1.14,3.38,3.38,0,0,0-2.64.16l-3.8,1.94h1.16l4.19,0a1.78,1.78,0,0,1,.57.13l0.21,0.07,1.08,0.3-2.49.42-3,.51-3.43.62-3.93.71a1.88,1.88,0,0,1-.33,0,1.32,1.32,0,0,1-1-.39,1.19,1.19,0,0,1-.26-1.12,1.3,1.3,0,0,1,.89-0.88l1.54-.63c1.39-.57,2.83-1.17,4.27-1.69,1.21-.43,2.47-0.77,3.69-1.09l0.67-.18a3.71,3.71,0,0,1,3,.43,1.5,1.5,0,0,1,.79,1.6ZM275.35,98a39.83,39.83,0,0,1,6.33-1.28,3.07,3.07,0,0,1,2.54.82,1.55,1.55,0,0,1,.41,2l0,0.82-0.27-.2-0.18.34V100a0.44,0.44,0,0,1-.16-0.36,0.4,0.4,0,0,1,.15-0.28,1.78,1.78,0,0,0-.43-1.21,2.64,2.64,0,0,0-2.3-.15l-0.62.25-2.85,1.14,0.66,0.1,3.37,0.52c0.35,0.06.69,0.14,1,.22l0.47,0.11,1.77,0.4-4,.21-5.24.27c-1.13.06-2.27,0.1-3.39,0.12h0a1.17,1.17,0,0,1-1.23-.81,1.14,1.14,0,0,1,.8-1.47C273.33,98.61,274.38,98.27,275.35,98Zm-9.53-9.84,1.57,0.11c0.6,0,1.2.09,1.81,0.12a4.27,4.27,0,0,1,2.57,1l0.36,0.33a1.64,1.64,0,0,1,.1,2.26l-0.31.49,0-.1-0.14.37-0.54-.4-0.15.63-0.79-.21-2.06-.31-5.08-.78L259.61,91l-1-.17a4.65,4.65,0,0,1-.68-0.15,1.19,1.19,0,0,1-.88-1.33,1.14,1.14,0,0,1,1.12-1A50.27,50.27,0,0,1,265.82,88.14Z" style="fill:#fff"/><path d="M188.19,187.83l-0.42-.09a6.37,6.37,0,0,1-2.32-.16l-1.29.08h-0.38a6.38,6.38,0,0,1-4.57-1.93,6.36,6.36,0,0,1-5,2.44,6.47,6.47,0,0,1-.66,0h-0.18a39.23,39.23,0,0,0-6.5.89,6.38,6.38,0,0,1-2.68-.06c-0.73-.17-1.46-0.39-2.19-0.64v0.1c0.6,4.22,1.17,7.93,1.72,11.33,0.35,2.13.74,4.29,1.11,6.38q0.35,1.92.68,3.84l0.12,0.69a25.7,25.7,0,0,1,.4,2.84c0.14,2,.24,4.08.33,6.08q0.08,1.58.16,3.16c0,0.75.1,1.5,0.15,2.25l0.06,0.83,0.4-.29a10.68,10.68,0,0,0,1.24-1c1.14-1.11,2.34-2.32,3.47-3.62a88.49,88.49,0,0,0,9.4-13.58,71.68,71.68,0,0,0,5.84-12,28,28,0,0,0,1.8-7.33,6.34,6.34,0,0,1-.65-0.14Z" style="fill:#fff"/><path d="M192.28,59.66c2.42,0.6,4.84,1.21,7.25,1.82h0a1.88,1.88,0,0,0,1.13-.06l1-.33c1.09-.37,2.21-0.75,3.34-1A29.1,29.1,0,0,1,213.47,59c0.21,0,.43,0,0.65,0l0.32,0,0.83,0a26,26,0,0,1,5.81.16l0.06,0,0.25-.49a11,11,0,0,0,.63-1.39l0.57-1.61c0.72-2,1.47-4.16,2.07-6.27,1.86-6.51,3.68-13.14,5.44-19.56l0.55-2c0.7-2.56,1.43-5.21,2-7.85a37.57,37.57,0,0,0,.91-9.52A12,12,0,0,0,233,6.67a1.6,1.6,0,0,0-2.12-1.12,15.23,15.23,0,0,0-1.74.52,32.83,32.83,0,0,0-6.18,3.09l-2,1.18-1.3.78c-0.09.07-.09,0.13,0,0.43a6.55,6.55,0,0,0,1.18,2.26,3.13,3.13,0,0,0,4.31.6,10.86,10.86,0,0,0,1.14-.94l0.47-.42,0.42-.37c0.23-.21.46-0.42,0.71-0.61a0.94,0.94,0,0,1,1.29-.08,1,1,0,0,1,.23,1.27c-0.3.68-.65,1.48-1,2.25-1.51,3-2.9,6.09-4.15,9.21-0.54,1.34-1.18,2.93-1.88,4.49a41.81,41.81,0,0,1-4,7.36,14.29,14.29,0,0,1-2.87,2.89l-0.58.45,0.08-.77c0.05-.24.1-0.46,0.15-0.67,0.1-.44.21-0.9,0.27-1.34a18.59,18.59,0,0,0-.67-7.87,69.39,69.39,0,0,1-2.37-10.11,0.26,0.26,0,0,0,0-.08l0,0.07c-0.09.17-.18,0.34-0.28,0.5Q211,21.27,209.9,22.9c-1.48,2.26-3,4.59-4.44,6.94-2.71,4.46-5.39,9-8,13.48l-1.38,2.35a103.27,103.27,0,0,0-6.4,12.7c-0.07.18-.14,0.36-0.21,0.54l0,0,0.13,0Z" style="fill:#fff"/><path d="M183,57.63l1,0.19-0.91-1.48c-0.76-1.24-1.54-2.53-2.4-3.72a41.71,41.71,0,0,0-16.78-13.78c-0.3-.13-0.62-0.25-1-0.37l-0.12,0C164,44.3,165,49.64,165,55.07A107.58,107.58,0,0,1,183,57.63Z" style="fill:#fff"/><path d="M141.67,97.54a21,21,0,0,0-6.83,1.76A13.61,13.61,0,0,0,127,109a12.23,12.23,0,0,0-.08,4.19,24.48,24.48,0,0,0,1.19,4.67l0.3,0c1.73-.11,3.49-0.22,5.25-0.22a26.26,26.26,0,0,1,6.41.7c-0.14-.25-0.3-0.5-0.45-0.75l-0.24-.38a15.42,15.42,0,0,1-1.95-10.65,18.23,18.23,0,0,1,1.85-5.26,8.07,8.07,0,0,1,3.26-3.59l0.05,0h0A3,3,0,0,0,141.67,97.54Z" style="fill:#fff"/><path d="M122,104.73a9.42,9.42,0,0,0-5.34-.36c-1.26.25-2.53,0.64-3.75,1l-1.47.44-2.2.66-0.84.26a39.55,39.55,0,0,0,1.76,8.58,16.93,16.93,0,0,0,.88,2l0.34,0.71a0.82,0.82,0,0,0,.6.43c0.56,0.16,1.12.34,1.67,0.52l1.17,0.37,0.7,0.22c0.77,0.24,1.57.49,2.37,0.66,1.85,0.4,3.74.76,5.57,1.12l1.87,0.36,0.48,0.09a12,12,0,0,1-2.51-2.26,13.12,13.12,0,0,1-3.05-10.16A8.44,8.44,0,0,1,122,104.73Z" style="fill:#fff"/><path d="M143.66,118.63a14.87,14.87,0,0,0,2.77,5.24l0.06,0.09a0.5,0.5,0,0,0,.49.17l2,0,3.86,0.07-0.22-.22a8.49,8.49,0,0,1-2.24-7.66,10,10,0,0,1,4.78-6.86c0.21-.12.42-0.26,0.67-0.43l0.09-.06a47,47,0,0,0-10.35-3.13l-0.77-.17-0.37.92a23.49,23.49,0,0,0-.86,2.36A19.2,19.2,0,0,0,143.66,118.63Z" style="fill:#fff"/><path d="M167.23,111.79l1.32-2,0.44-.69a7.81,7.81,0,0,0-3.25-.58,6.31,6.31,0,0,0-4.51,2.37,12.75,12.75,0,0,0-2.31,4,24.69,24.69,0,0,0-1.46,7.25l-0.16,2.27h11.46c-2.55-2.38-3.46-5.54-2.69-9.38A8.81,8.81,0,0,1,167.23,111.79Z" style="fill:#fff"/><path d="M107,98.34c0.16,0.67.31,1.35,0.46,2,0.26,1.19.53,2.42,0.86,3.63l0.16-.08a19.12,19.12,0,0,1,6-2.44l0.11,0,0.2-.05a11.94,11.94,0,0,1,5.67-.16,17.19,17.19,0,0,1,2.1.61l0.9,0.29c1.84-1.53,2.7-3.73,3.6-6.05l0.09-.24C122.71,95.5,110.6,97.22,107,98.34Z" style="fill:#fff"/><path d="M88.42,110.63a25.65,25.65,0,0,0,2.27,8.11l0.17,0,0.78-.22c0.44-.12.88-0.21,1.32-0.31a11,11,0,0,0,2.74-.84,2.26,2.26,0,0,1,.9-0.21l3.76-.13,0.85,0h0.2a8.27,8.27,0,0,1-2.72-4.6,9.25,9.25,0,0,1,.64-5.36A59.44,59.44,0,0,0,88.42,110.63Z" style="fill:#fff"/><path d="M159.28,103.62l-3.12-1.54c-0.28-.14-0.56-0.29-0.83-0.45a10.12,10.12,0,0,0-1.56-.76c-2.22-.77-4.5-1.5-6.71-2.19l-0.48-.15a13,13,0,0,0-1.27-.31l-0.4-.08a12.36,12.36,0,0,0-.48,3.34,7,7,0,0,0,.21,1.29l0,0.12a0.87,0.87,0,0,0,.93.75,26.57,26.57,0,0,1,6.2,1.12,17.68,17.68,0,0,1,5.2,2.41,1,1,0,0,0,1.17.09,16,16,0,0,0,3.46-2.45l-0.46-.24Z" style="fill:#fff"/><path d="M175.78,123.58a27.29,27.29,0,0,1,1.15-6.06,12.74,12.74,0,0,1,1.9-3.82,8.35,8.35,0,0,1,.76-0.85l0.09-.09-6.43-2.52a11.61,11.61,0,0,0-1.77,7.08,7.43,7.43,0,0,0,1.69,4.22A7.66,7.66,0,0,0,175.78,123.58Z" style="fill:#fff"/><path d="M100.61,100.06l-0.78.3-7.68,2.91a19.29,19.29,0,0,0-4.56,2.59,5.13,5.13,0,0,0,.33,2.83,27.12,27.12,0,0,1,12.72-4.11,24.46,24.46,0,0,0,.52-4.69h0C100.93,100,100.77,100,100.61,100.06Z" style="fill:#fff"/><path d="M194.51,116.41a7.29,7.29,0,0,0,2,5.93,4.22,4.22,0,0,0,3.33,1.19,8,8,0,0,1-.05-6.77Z" style="fill:#fff"/><path d="M216.47,31.28a13.38,13.38,0,0,1-.26,6.25,22.7,22.7,0,0,0,3.48-5.82c1.78-4.41,3.54-8.9,5.26-13.25l0.8-2A5.22,5.22,0,0,1,220,16a7.05,7.05,0,0,1-2.41-3.55A10.57,10.57,0,0,1,221.46.63l0.5-.35,0.05,0A0.49,0.49,0,0,0,221.59,0a0.83,0.83,0,0,0-.3.06,7.23,7.23,0,0,0-1.68.87,11.53,11.53,0,0,0-3.38,4.37A23,23,0,0,0,214,15.41a37.77,37.77,0,0,0,1,9.18C215.56,27,216.06,29.11,216.47,31.28Z" style="fill:#fff"/><path d="M208.51,208h0a5.52,5.52,0,0,1,2.8-3,3.49,3.49,0,0,1,4.5,1c0.27,0.33.51,0.67,0.76,1l0.33,0.46c0-.07,0-0.13,0-0.19a62,62,0,0,0-3.55-11.08L207.54,183l0,0.37a13.07,13.07,0,0,1,.07,2.25c-0.15,1.85-.4,3.72-0.74,5.58s-0.75,4-1.14,6c-0.45,2.29-.91,4.65-1.32,7a21.89,21.89,0,0,0-.26,7.07,9.07,9.07,0,0,0,3.6,6.4,4,4,0,0,0,2.29.9,16,16,0,0,1-1.74-3.63A9.68,9.68,0,0,1,208.51,208Z" style="fill:#fff"/><path d="M141.67,120.8h0c-1-.16-1.93-0.28-2.83-0.34l-7.69-.53-2.87-.19a2.81,2.81,0,0,0-.1,1.54c0,0.19,0,.38.06,0.57s0.08,0.37.45,0.41c0.58,0.06,1.16.15,1.74,0.23l1.2,0.17,1.09,0.14c1.68,0.22,3.41.44,5.12,0.63,1.21,0.13,2.44.23,3.64,0.33l1.12,0.09,1.25,0.08h0.21l-0.32-.47c-0.56-.81-1.08-1.55-1.61-2.29A0.94,0.94,0,0,0,141.67,120.8Z" style="fill:#fff"/><path d="M189.94,116.74h-0.19a7.91,7.91,0,0,0-5.73,2.34,11.49,11.49,0,0,0-2.79,4.84,4.68,4.68,0,0,0-.12.5h0l7.33-.13c-0.68-2.89.45-5.26,1.61-7.54h-0.1Z" style="fill:#fff"/><path d="M153.09,79.18h0l1,0.32,0.83,0.28a4,4,0,0,0,.66.13l0.16,0a5.23,5.23,0,0,1-1.34-4.71A4.83,4.83,0,0,1,157,71.53h-0.53a3.16,3.16,0,0,0-2.7,1.44,7.25,7.25,0,0,0-1,5.89A0.35,0.35,0,0,0,153.09,79.18Z" style="fill:#fff"/></svg>