<svg xmlns="http://www.w3.org/2000/svg" viewBox="0 0 250 340.68"><title>tzahui board logo b&amp;amp;W</title><path d="M35.54,0c0,2.17,0,4.33.08,6.5,0.06,1.73.24,3.46,0.38,5.19,0.44,5.53,1.1,11,2.06,16.51,1.09,6.15,2.25,12.28,3.71,18.35A101.67,101.67,0,0,0,47,62.45a32.89,32.89,0,0,0,2.7,5c0.59,0.91,1.15,1.84,1.69,2.78a3.54,3.54,0,0,1,.54,1.85,1.85,1.85,0,0,1-1,1.71,3.81,3.81,0,0,1-2.5.52,34.61,34.61,0,0,1-5.86-1.15,1.72,1.72,0,0,0-.45,0,3.53,3.53,0,0,0,.53,1.3c2.09,4.14,4.17,8.29,6.29,12.41q3.44,6.72,6.49,13.62c0.38,0.87.73,1.75,1.1,2.65a2.39,2.39,0,0,0,1.18-.58,88.29,88.29,0,0,1,19.61-9.21A62.78,62.78,0,0,1,86.52,91a70.3,70.3,0,0,1,8.54-.77,0.64,0.64,0,0,1,.23.09c0,0.37-.27.38-0.5,0.45L89.45,92.4a102.07,102.07,0,0,0-22.67,10A77.16,77.16,0,0,0,53.26,112.5a44.63,44.63,0,0,0-7,8.32,19.4,19.4,0,0,0-2.85,7.07c-0.09.51-.18,1-0.32,1.53a3.23,3.23,0,0,1-3.31,2.4,3.16,3.16,0,0,1-3-2.76,4.55,4.55,0,0,1,.12-1.41,28.67,28.67,0,0,1,7.47-14,62.09,62.09,0,0,1,10-8.71L55.5,104c-0.39-.56-0.76-1-1.08-1.55-2.32-3.61-4.67-7.2-6.93-10.85-2.92-4.72-5.75-9.49-8.62-14.24-0.24-.4-0.51-0.79-0.78-1.21a2.08,2.08,0,0,0-.44,1.2c-0.1,1.12-.17,2.25-0.31,3.37s-0.29,2.24-.53,3.34a5.05,5.05,0,0,1-.7,1.66,2.3,2.3,0,0,1-3.59.58A5.24,5.24,0,0,1,31.42,85a16.9,16.9,0,0,1-1-1.95c-0.32-.66-0.6-1.35-0.87-2A32.57,32.57,0,0,0,20.2,68.41a31.3,31.3,0,0,0-3.59-2.57,5.64,5.64,0,0,0-3.95-1,3.09,3.09,0,0,1-3.39-2.23,3.18,3.18,0,0,1,1.4-3.72,2.94,2.94,0,0,1,1.09-.37,11.57,11.57,0,0,1,8.18,1.87,36.6,36.6,0,0,1,8,7c1.41,1.71,2.68,3.51,3.93,5.34a3.19,3.19,0,0,0,.81,1,1.45,1.45,0,0,0,.24-0.37c0.24-1.19.43-2.39,0.72-3.56A2.25,2.25,0,0,0,33.22,68c-1.69-2.78-3.37-5.56-5.05-8.35-0.47-.78-1-1.55-1.41-2.34a3.25,3.25,0,0,1,2.34-4.93,3.1,3.1,0,0,1,3.12,1.47,10.68,10.68,0,0,1,.55,1c1.7,3.36,3.42,6.72,5.1,10.1a2.32,2.32,0,0,0,1.27,1.19c1.36,0.57,2.67,1.25,4,1.87,0.5,0.23,1,.41,1.51.6a0.43,0.43,0,0,0,0-.64,87.46,87.46,0,0,1-6.26-19.24c-1-4.62-1.89-9.26-2.51-13.94-0.47-3.52-.83-7.06-1.15-10.6-0.25-2.76-.4-5.53-0.54-8.3-0.17-3.38-.1-6.76.05-10.14A36,36,0,0,1,34.91.9C35,0.6,35,.3,35,0h0.52Z" style="fill:#fff"/><path d="M250,283.95a1.87,1.87,0,0,1-.66.76,1.76,1.76,0,0,1-1.26-.13,8.24,8.24,0,0,1-1.23-.73,31.09,31.09,0,0,0-8.55-4.32,21.3,21.3,0,0,0-6.18-1.44c-0.29,0-.58-0.09-1.12-0.18a4.9,4.9,0,0,1,1.8-.44,17.87,17.87,0,0,1,7.3.94c0.95,0.31,1.88.66,2.82,1a7.68,7.68,0,0,0,.86.17c-0.56-1.24-1.28-2.21-1.84-3.27s-1.17-2.13-1.72-3.21-1.1-2.26-1.63-3.4-1-2.2-1.5-3.32-0.9-2.25-1.37-3.37a35.54,35.54,0,0,0-1.49-3.53c-0.24,1.1-.44,2-0.63,2.86a109.2,109.2,0,0,1-4,14.11,7.32,7.32,0,0,1-.65,1.41,2.58,2.58,0,0,1-4.51.09,4.86,4.86,0,0,1-.38-0.68,88.64,88.64,0,0,0-5.52-9.57q-2.56-4-5.23-7.92c-0.8-1.18-1.74-2.27-2.59-3.42-0.69-.94-1.35-1.91-2-2.88a4.28,4.28,0,0,1-.64-2,2.55,2.55,0,0,1,2.35-3,4.85,4.85,0,0,1,2.31.22c1.35,0.47,2.7.94,4,1.5a33.34,33.34,0,0,0,6.82,2.09c0.47,0.09.94,0.13,1.41,0.19a10.79,10.79,0,0,1,1.16.17,3.19,3.19,0,0,1,2.42,3.52,3.12,3.12,0,0,1-3.21,2.8,15.73,15.73,0,0,1-4.22-.69c-0.54-.16-1.09-0.29-1.63-0.42a0.6,0.6,0,0,0-.24.06,0.52,0.52,0,0,0,0,.24c2.36,3.79,4.7,7.59,6.89,11.49a0.84,0.84,0,0,0,.28.15,2.4,2.4,0,0,0,.23-0.41A134.94,134.94,0,0,0,231,252.7c0.13-.68.17-1.38,0.29-2.06a9.3,9.3,0,0,1,.38-1.64,2,2,0,0,1,3.57-.37,9.79,9.79,0,0,1,.8,1.76,15.71,15.71,0,0,1,.38,1.65c0.26,1.14.48,2.29,0.8,3.41A119.7,119.7,0,0,0,244,273.71a58.67,58.67,0,0,0,3.75,6.69,5,5,0,0,0,.78,1,5,5,0,0,1,1.44,2.26v0.26Z" style="fill:#fff"/><path d="M115.44,340.68c-0.15-1-.34-2-0.45-3.08a51.63,51.63,0,0,1-.28-8.83q0.27-4.35.67-8.68c0.23-2.46.49-4.91,0.83-7.35s0.79-4.87,1.2-7.31l0.22-1.27a6.11,6.11,0,0,1-.85-0.73,3.23,3.23,0,0,1,2.24-5.32,3.53,3.53,0,0,1,.65,0c4,0.32,8,.61,12,1a35.47,35.47,0,0,1,6.74,1.36,9.37,9.37,0,0,1,1.68.69,2.94,2.94,0,0,1,.4,5.12c-2.35,1.71-4.72,3.38-7.17,4.94-2.78,1.76-5.58,3.51-8.5,5a4.93,4.93,0,0,0-.55.39,4.3,4.3,0,0,0,.5.32,67.73,67.73,0,0,1,6.1,3.19,32.27,32.27,0,0,1,4.37,3,10.14,10.14,0,0,1,1.44,1.49,2.58,2.58,0,0,1,.18,3.24,14.5,14.5,0,0,1-2.56,2.92,36.68,36.68,0,0,1-6.35,4.51c-1.72,1-3.48,1.94-5.25,2.86a28.92,28.92,0,0,1-5.1,1.93,3.41,3.41,0,0,0-1.43.55h-0.78ZM120.17,320c-1.49,6.63-3,13.18-4.43,19.72a1.06,1.06,0,0,0,.07.33c0.31-.14.61-0.26,0.9-0.42a86.74,86.74,0,0,0,11.41-7.45,29.63,29.63,0,0,0,4.93-4.6,1.72,1.72,0,0,0,.63-1.09C131.6,324.39,123.74,320.59,120.17,320Zm3.76-15.28a38.26,38.26,0,0,0-1.91,7.33,1.29,1.29,0,0,0,.91-0.37q3.31-2.16,6.61-4.34c0.76-.5,1.49-1,2.23-1.56a2.69,2.69,0,0,0,.4-0.46A34.13,34.13,0,0,0,123.93,304.75Z" style="fill:#fff"/><path d="M21.41,206.77A1.14,1.14,0,0,1,21,206c-0.06-2.21-.12-4.42-0.22-6.63a2.41,2.41,0,0,1,1-2.11,14.48,14.48,0,0,1,3.76-2,18,18,0,0,0,1.89-.76c-3-2.17-3.44-5-2.35-8.27a2.54,2.54,0,0,1-1-2c0-.72.16-1.44,0.25-2.22a3.42,3.42,0,0,0-.54,0A3.28,3.28,0,0,1,20.55,180a9,9,0,0,1-1.11-4.1c0-.65-0.07-1.3-0.16-1.94a7.68,7.68,0,0,1,.17-2.45,9,9,0,0,1,2.24-4.48,6.91,6.91,0,0,1,2.66-1.81q3.28-1.26,6.53-2.59a18.17,18.17,0,0,0,4.28-2.45c0.31-.24.61-0.49,0.9-0.74a2.8,2.8,0,0,0,.9-1.54c0.24-1,.55-2,0.85-3a15.62,15.62,0,0,1,2.57-4.79A4.4,4.4,0,0,1,42,148.86a29.71,29.71,0,0,1,2.85-1.27,37.79,37.79,0,0,1,7.92-2c3.27-.44,6.5-1.07,9.74-1.66a34.9,34.9,0,0,0,3.66-.9c7.81-2.32,15.6-4.7,23.42-7,2.58-.76,5.2-1.35,7.8-2a1,1,0,0,0,.24-0.15,2,2,0,0,0,0-1.25,81,81,0,0,0-2.31-10.8c-0.46-1.72-.92-3.43-1.34-5.16-0.34-1.36.17-1.89,1.53-1.7a12.92,12.92,0,0,1,3.48,1,32.73,32.73,0,0,1,10.69,7.71,41,41,0,0,1,5.29,6.91,16.63,16.63,0,0,1,1.94,4.8,1.64,1.64,0,0,1,0,.41,4.78,4.78,0,0,1-.91-1.33,40,40,0,0,0-8.19-10,38.61,38.61,0,0,0-10-6.48c-0.39-.18-0.81-0.29-1.31-0.47a4.07,4.07,0,0,0,0,.85c0.64,2.61,1,5.28,1.41,7.93a42.94,42.94,0,0,1,.54,7.44,1.91,1.91,0,0,0,.48.14,57.3,57.3,0,0,1,8.66.91c3.12,0.53,6.23,1.12,9.34,1.7,1,0.18,1.93.46,2.9,0.67a1.82,1.82,0,0,0,1.18,0,2.9,2.9,0,0,0,.17-0.47,25.67,25.67,0,0,1,1.22-4.24,90.41,90.41,0,0,1,5.27-11.59A101,101,0,0,1,138.72,104c1.24-1.51,2.66-2.85,4-4.23,0.3,0.25.07,0.42,0,.55-1.43,2.23-2.88,4.44-4.31,6.67-1.17,1.83-2.34,3.66-3.44,5.52q-3.87,6.55-7.68,13.14A90.89,90.89,0,0,0,122.13,136c-0.17.4-.32,0.8-0.5,1.27a4,4,0,0,0,.7.33c3,0.75,6,1.48,9,2.24a2.21,2.21,0,0,0,1.39-.06c0.45-.17.91-0.29,1.36-0.46a44.88,44.88,0,0,1,6.29-1.6,6.73,6.73,0,0,1,1.16-.12c2.47-.1,4.94-0.21,7.41-0.26,1,0,2,.1,3,0.16a3.28,3.28,0,0,0,1-1.6c0.56-1.5,1.11-3,1.61-4.53,2.24-6.89,4.11-13.88,6-20.88q1.08-4.09,2.18-8.17a42.74,42.74,0,0,0,1.26-7.69,21.39,21.39,0,0,0,0-5.06,11.69,11.69,0,0,0-.52-2.14,1.63,1.63,0,0,0-2-1.16,8.77,8.77,0,0,0-1.13.28,27.93,27.93,0,0,0-6.44,3.06l-2.5,1.52a1.7,1.7,0,0,1,.17-0.45A25.06,25.06,0,0,1,159,85.53a11.8,11.8,0,0,1,2.1-.67,3.14,3.14,0,0,1,3.81,1.94,11.85,11.85,0,0,1,1,4.29,47,47,0,0,1-.08,6.24,48.6,48.6,0,0,1-2.22,10.27q-3,10.59-6.78,20.9c-0.77,2.07-1.67,4.09-2.54,6.12a9.83,9.83,0,0,1-1.81,3,6,6,0,0,0,.69.35c1.27,0.45,2.57.8,3.8,1.33A20.15,20.15,0,0,1,169,153.61c0.14,0.55.21,1.11,0.33,1.66a4.7,4.7,0,0,0,.2.56,4.33,4.33,0,0,0,.56-0.39c1.92-1.89,3.85-3.75,5.73-5.68a58.31,58.31,0,0,0,8.26-11.16,64.12,64.12,0,0,0,4.09-8c0.88-2.12,1.58-4.31,2.43-6.45a64.49,64.49,0,0,0,2.09-7.91,34.56,34.56,0,0,0,.73-6.31c0.06-.91.1-1.82,0.12-2.73a10,10,0,0,0-.07-1.43c-0.08-.68-0.21-1.35-0.34-2.14a2.58,2.58,0,0,0-.49.31,184.51,184.51,0,0,1-24.29,22c-3.73,2.9-7.54,5.7-11.32,8.54-0.23.18-.48,0.34-0.75,0.52-0.13-.34.15-0.4,0.26-0.54a3.48,3.48,0,0,1,.39-0.35q7.54-6.59,15.09-13.19c5.44-4.78,10.74-9.72,15.71-15,1-1,1.91-2.13,2.85-3.21a9.44,9.44,0,0,0,1.86-2.8,1.92,1.92,0,0,1,.8-1,1,1,0,0,1,1.52.38,8.14,8.14,0,0,1,1,2.67,19.5,19.5,0,0,1,.32,2.58,48.74,48.74,0,0,1-2.48,17.68,74.11,74.11,0,0,1-15.08,26.49,33,33,0,0,1-5.5,5.14c-1,.71-1.93,1.47-2.89,2.22-0.2.16-.39,0.34-0.54,0.47a10,10,0,0,0,0,1.23,23.83,23.83,0,0,1-.48,8c-0.43,2.07-1.07,4.11-1.62,6.16a2.24,2.24,0,0,1-.21.61,5.86,5.86,0,0,0-.65,3,34.62,34.62,0,0,1-1.15,6.92,67.62,67.62,0,0,1-3.23,9.47,3.26,3.26,0,0,0-.44,1.4,5.46,5.46,0,0,0,.76.05c1.69-.13,3.37-0.31,5.06-0.39a104.86,104.86,0,0,0,15.83-2.18,140.4,140.4,0,0,0,15.5-3.9,56.75,56.75,0,0,0,11.86-5.27,25.74,25.74,0,0,0,3-2.32,1.15,1.15,0,0,0,.31-0.68,30,30,0,0,0,.4-6.61,1.4,1.4,0,0,0-.5-1,19.55,19.55,0,0,0-3.09-2.36,62.25,62.25,0,0,0-14.8-5.95,140.47,140.47,0,0,0-15.37-3.31,34.85,34.85,0,0,0-3.62-.34c-1.47-.08-2.95-0.08-4.42-0.12-0.33,0-.66-0.07-1.06-0.11a0.78,0.78,0,0,1,.2-0.23c2-.16,4.06-0.38,6.09-0.45a26.11,26.11,0,0,1,4,.19,118.25,118.25,0,0,1,21,4.36A46.44,46.44,0,0,1,214.51,168c2.25,1.45,2.45,2.1,2.65,4.55a4.2,4.2,0,0,1,0,.65c-0.16,2.12-.33,4.23-0.47,6.35a1.9,1.9,0,0,1-.7,1.34,22.36,22.36,0,0,1-4.18,3.08,58.78,58.78,0,0,1-13.89,5.43,143.89,143.89,0,0,1-15.67,3.18c-2,.29-4,0.55-6.06.81a55.12,55.12,0,0,1-7.15.26c-2.17,0-4.34,0-6.51-.08h-0.93a11.83,11.83,0,0,0-1.5,3.17,42.78,42.78,0,0,0-1,5.63,58.27,58.27,0,0,0-.47,9.6,12,12,0,0,1-1.23,5.79,8.66,8.66,0,0,1-.91,1.42,2.63,2.63,0,0,1-1.39.91,58.62,58.62,0,0,0-14.28,6.8c-1.36.85-2.62,1.85-3.89,2.83a2.74,2.74,0,0,1-1.65.66c-0.78,0-1.56.13-2.34,0.13a20.63,20.63,0,0,0-5.26.77,50.14,50.14,0,0,0-9.52,3.43c-0.69.34-1.36,0.75-2.06,1.14,0.07,0.37.1,0.66,0.18,0.94a168.85,168.85,0,0,0,10.16,26.84,78.57,78.57,0,0,0,6.15,10.55c0.24,0.36.45,0.73,0.67,1.11a0.53,0.53,0,0,1-.07.18,9.36,9.36,0,0,1-1.27-1.23c-0.43-.43-0.84-0.88-1.24-1.33s-0.87-1-1.29-1.46-0.78-.93-1.15-1.41-0.73-1-1.07-1.47-0.68-1-1-1.52-0.65-1-1-1.55-0.66-1.12-1-1.69-0.57-1.07-.87-1.6a7.61,7.61,0,0,0-.94-1.6,1.18,1.18,0,0,0-.21.36,22.3,22.3,0,0,1-.9,4.85,53.15,53.15,0,0,1-3.51,9.23c-1.75,3.54-3.63,7-5.71,10.36a65.12,65.12,0,0,1-6,8.2,34.82,34.82,0,0,1-2.6,2.73,14.48,14.48,0,0,1-2.17,1.64,4.79,4.79,0,0,1-1.56.6,1.61,1.61,0,0,1-2.14-1.46c-0.22-1.54-.36-3.1-0.45-4.65s-0.07-2.95-.06-4.42a47.06,47.06,0,0,0-.8-8.66c-0.4-2.26-.67-4.54-1-6.82-0.33-2.54-.65-5.07-0.93-7.62-0.32-2.93-.65-5.86-0.89-8.8q-0.4-4.93-.63-9.87c-0.08-1.77,0-3.55,0-5.4a8.9,8.9,0,0,0-.94-0.37c-9.92-2.67-19.81-5.44-29.8-7.83-2.57-.62-5.18-1.05-7.76-1.62a241.14,241.14,0,0,1-25.63-6.77c-1.56-.53-3.09-1.15-4.61-1.77-0.67-.28-1.3-0.66-2-1a0.8,0.8,0,0,1,.22-0.16,60.69,60.69,0,0,0,8.87,3C38,226.2,44.7,227.67,51.45,229c3.48,0.71,7,1.23,10.47,2,5.75,1.28,11.48,2.67,17.21,4.07,4.42,1.08,8.83,2.21,13.23,3.38a4.2,4.2,0,0,0,2.65-.14q4.22-1.53,8.47-2.95a38,38,0,0,1,9.29-1.84c0.65,0,1.3,0,2,0a2.81,2.81,0,0,0,1.37-.34,48.23,48.23,0,0,1,13.26-4.47c1-.17,2-0.21,3-0.29,0.43,0,.87,0,1.3,0a4.55,4.55,0,0,0,3.09-1.08,34.38,34.38,0,0,1,5.81-3.69c2.31-1.2,4.64-2.36,7-3.42a41.26,41.26,0,0,1,4.66-1.63,2.55,2.55,0,0,0,1.66-1.33,9,9,0,0,0,1.1-3.71q0.08-1.82.16-3.64a68.45,68.45,0,0,1,1.5-12.12,16.53,16.53,0,0,1,1.46-3.87c1-2,1.94-4.17,2.8-6.3a57.56,57.56,0,0,0,3-9.55c0.18-.85.29-1.71,0.41-2.57a4.16,4.16,0,0,0,0-.61,0.49,0.49,0,0,0-.58.29,21.37,21.37,0,0,1-10.27,7,26.31,26.31,0,0,1-7.11,1.45,38,38,0,0,1-12.63-1.19,29,29,0,0,1-11.38-6.09,21.93,21.93,0,0,1-6-8.25c-1.12-2.68-2.22-5.37-3.36-8-1-2.35-2.07-4.68-3.11-7a37.83,37.83,0,0,0-5.41-8.7c0.24-.27.41,0,0.51,0.09,0.94,1.13,1.92,2.24,2.78,3.43a46.67,46.67,0,0,1,2.9,4.78,108.13,108.13,0,0,1,5.72,12.1c0.54,1.32,1.18,2.6,1.8,3.89a19.75,19.75,0,0,0,2.42,3.69,20.31,20.31,0,0,0,3.83,3.69,28.13,28.13,0,0,0,13.23,5.38,35.74,35.74,0,0,0,10.63,0,22.52,22.52,0,0,0,11.44-5.23,14.93,14.93,0,0,0,3.55-4.77,6.48,6.48,0,0,0,.29-0.86,35.83,35.83,0,0,0,1.58-7.36,23,23,0,0,0-1.36-11.51,18.37,18.37,0,0,0-14.26-11.45,36,36,0,0,0-9.2-.35,26.91,26.91,0,0,0-6.48,1.31c-0.83.27-1.67,0.49-2.48,0.79a4,4,0,0,1-2.53.08c-3.9-1-7.8-2-11.73-3s-7.86-1.8-11.81-2.58a44.3,44.3,0,0,0-8-1,12.45,12.45,0,0,0-3.35.38c-3.73,1-7.47,1.92-11.2,2.91-5,1.32-10,2.64-14.89,4.19A49.51,49.51,0,0,1,59.86,145a67.73,67.73,0,0,0-10,1.73,48.41,48.41,0,0,0-6.14,2.13,7.43,7.43,0,0,0-4,3.88,16.69,16.69,0,0,0-1.66,5,4.3,4.3,0,0,1-1.74,2.94,23.89,23.89,0,0,1-2,1.44,38.78,38.78,0,0,1-6.87,3.39c-0.73.27-1.46,0.56-2.2,0.8a6.17,6.17,0,0,0-3.67,3.3,7.27,7.27,0,0,0-.73,4.92,8.89,8.89,0,0,1,.12,1.55,6.5,6.5,0,0,0,.82,3,3.82,3.82,0,0,0,.72.91,1.12,1.12,0,0,0,1.54.13,5,5,0,0,0,.44-0.27,38.56,38.56,0,0,1,6.43-3.4c0.59-.26,1.21-0.49,1.82-0.69,2.67-.89,5.35-1.76,8-2.66a28.74,28.74,0,0,1,3.66-.87c2.51-.5,5-1,7.52-1.51a42.59,42.59,0,0,1,6.59-.75,56,56,0,0,1,8.84.17c0.34,0,.69.06,1,0.06a37.52,37.52,0,0,1,5.68.62c1.45,0.24,2.91.45,4.36,0.73,1.15,0.22,2.28.51,3.42,0.8,1.3,0.33,2.61.65,3.9,1a25.67,25.67,0,0,1,4.49,1.72c3.37,1.7,6.72,3.42,10.13,5,2.11,1,4.32,1.8,6.47,2.74,4.18,1.83,8.53,3.17,12.86,4.57a31.27,31.27,0,0,0,9.34,1.53,31.14,31.14,0,0,1,8.2,1.28,14.18,14.18,0,0,1,2.17.87,3.41,3.41,0,0,1,1.94,2.46,7.94,7.94,0,0,1-.29,4.73A5.15,5.15,0,0,1,140,200a2.9,2.9,0,0,1-1.82.89c-4.23.49-8.48,0.64-12.73,0.71-9.07.15-18.13,0.09-27.19-.14-5.07-.13-10.15-0.25-15.22-0.34a93.59,93.59,0,0,1-13.33-1.23c-2.14-.35-4.3-0.6-6.43-1-2.64-.48-5.27-1.07-7.9-1.6a47.51,47.51,0,0,1-6.62-1.89,22.62,22.62,0,0,0-2.77-.69,49.51,49.51,0,0,0-9.53-1.2c-0.69,0-1.39,0-2.08.05a2.38,2.38,0,0,0-.89.16,12.69,12.69,0,0,1-3.14.81,29.43,29.43,0,0,0-6.51,2.22c-0.31.14-.6,0.34-0.91,0.51a2.64,2.64,0,0,0-1.55,2.61c0,2.08-.08,4.16-0.12,6.24a2.44,2.44,0,0,0,.15.61Zm78.77,89a3.23,3.23,0,0,0,.65-0.3c0.71-.57,1.44-1.12,2.08-1.76a58.75,58.75,0,0,0,7.36-9.08,120.53,120.53,0,0,0,6.47-10.82,54.67,54.67,0,0,0,3.78-9,25.82,25.82,0,0,0,1.08-4.68,3.94,3.94,0,0,0-.26-2.15,72,72,0,0,1-3.82-11.86,92,92,0,0,1-1.56-9.22,6.73,6.73,0,0,0-.2-0.8,2.18,2.18,0,0,0-.33-0.1l-0.52,0a29.39,29.39,0,0,0-9.37,1.26c-4.05,1.24-8.07,2.57-12.1,3.86,0,0.38,0,.68,0,1,0.31,2.93.6,5.86,0.95,8.79s0.74,5.93,1.17,8.89c0.53,3.69,1.08,7.38,1.68,11.05,0.54,3.29,1.17,6.57,1.74,9.85,0.21,1.19.43,2.39,0.52,3.6,0.16,2.2.24,4.41,0.34,6.62,0,0.56,0,1.13.06,1.69C100,293.62,100,294.65,100.19,295.77ZM63.45,193.21a5.52,5.52,0,0,0,2.06,0,30.08,30.08,0,0,1,7.51.15l1.79,0.3a3.85,3.85,0,0,0,.53,0,3.27,3.27,0,0,0-.57-1.12,14.22,14.22,0,0,1-2.19-8.16,15.63,15.63,0,0,1,1.7-6.48,8.28,8.28,0,0,1,3.12-3.73,2.15,2.15,0,0,0,.35-0.4,2.73,2.73,0,0,0-1.73-.21,23,23,0,0,0-5.16,1.26,14,14,0,0,0-7.1,6,11.22,11.22,0,0,0-1.43,4A16.53,16.53,0,0,0,63.45,193.21Zm-18.6-10.82c0,0.25,0,.46,0,0.67a35.83,35.83,0,0,0,2,8.83,11,11,0,0,0,.62,1.28,1.6,1.6,0,0,0,1.09.83c0.75,0.2,1.48.48,2.23,0.7,1.16,0.34,2.32.72,3.49,1,1.69,0.38,3.39.69,5.09,1,0.88,0.17,1.77.32,2.71,0.49a1.53,1.53,0,0,0-.83-0.87A12.4,12.4,0,0,1,56.5,188a15,15,0,0,1,.09-3.11A7.28,7.28,0,0,1,58,181a2.53,2.53,0,0,0,.2-0.4,0.62,0.62,0,0,0-.11-0.17,2.82,2.82,0,0,0-.35-0.15,9.78,9.78,0,0,0-5.88,0c-2.13.59-4.23,1.25-6.34,1.89C45.28,182.21,45.09,182.29,44.84,182.39Zm34.59-1.09a15.8,15.8,0,0,0-1.73,5.17,22.5,22.5,0,0,0,.29,6.59,13.46,13.46,0,0,0,3.26,6.3h6a0.19,0.19,0,0,0,.12,0,0.71,0.71,0,0,0,.08-0.19c-0.22-.26-0.48-0.53-0.7-0.84a7.89,7.89,0,0,1-1.5-7.2,9.29,9.29,0,0,1,4-5.55,2.66,2.66,0,0,0,1.14-.93,7.17,7.17,0,0,0-2.08-1A55,55,0,0,0,79.43,181.3Zm11.83,18a76.18,76.18,0,0,0,11.34.15,0.24,0.24,0,0,0,0-.12,1.8,1.8,0,0,0-.23-0.3c-2.69-2.64-3.18-5.82-2.24-9.33a11.3,11.3,0,0,1,2.43-4.53,2.16,2.16,0,0,0,.23-0.43,1.07,1.07,0,0,0-.23-0.21,6.36,6.36,0,0,0-7.9,2,8.63,8.63,0,0,0-1.08,1.61,25.17,25.17,0,0,0-1.31,3.1A27.56,27.56,0,0,0,91.17,199,1.19,1.19,0,0,0,91.26,199.31ZM59.17,178.52A11.66,11.66,0,0,0,62.9,172a12.19,12.19,0,0,0-2.58-.07c-2.16.17-4.31,0.35-6.47,0.57a84.25,84.25,0,0,0-9.6,1.61,8.8,8.8,0,0,0-.91.31c0.43,1.95.8,3.84,1.33,5.68a1.79,1.79,0,0,0,1.16-.4A14.38,14.38,0,0,1,50,178l0.62-.18a12.18,12.18,0,0,1,6.66-.05A16.55,16.55,0,0,1,59.17,178.52Zm-22.29,3.94a6.56,6.56,0,0,0-.82.11c-1.74.51-3.49,1-5.22,1.54a24.31,24.31,0,0,0-4.35,1.66c-0.26.14-.49,0.31-0.74,0.47a36.7,36.7,0,0,0,1.57,6.6,2.66,2.66,0,0,0,.77,1.34c1.24-.29,2.46-0.55,3.67-0.86,0.41-.1.8-0.33,1.21-0.45a8.69,8.69,0,0,1,1.26-.28,18.74,18.74,0,0,1,3.75-.08,0.56,0.56,0,0,0,.71-0.23,12.68,12.68,0,0,1-2.1-2.72,7.94,7.94,0,0,1-.69-3.53A9.17,9.17,0,0,1,36.88,182.46Zm42.59-8.35A10.48,10.48,0,0,0,79,178a3.76,3.76,0,0,0,.12.77,1.23,1.23,0,0,0,1.35,1.13,29,29,0,0,1,5.23.93,17.94,17.94,0,0,1,5.2,2.3,1.35,1.35,0,0,0,1.67.08c1-.65,1.92-1.33,2.86-2a3.19,3.19,0,0,0,.44-0.51c-0.26-.16-0.43-0.28-0.62-0.38L88.84,177c-0.27-.14-0.56-0.24-0.84-0.35a60.09,60.09,0,0,0-6.92-2.22C80.59,174.33,80.08,174.24,79.47,174.11Zm33.58,14-6.54-2.57a10.15,10.15,0,0,0-2,5.45,9.36,9.36,0,0,0,.41,3.46,7.3,7.3,0,0,0,3.59,4.1,2.41,2.41,0,0,0,.57.14c0.14-1,.23-1.89.39-2.78C110,193.13,110.8,190.4,113,188.16ZM38.29,175.8c-0.38.09-.68,0.13-1,0.23a86.48,86.48,0,0,0-9.3,3.65,18.66,18.66,0,0,0-3,1.91,4.15,4.15,0,0,0,.45,3,0.3,0.3,0,0,0,.12,0l0.8-.42a24.24,24.24,0,0,1,7.86-2.94c0.81-.13,1.63-0.24,2.44-0.37,0.38-.06.74-0.16,1.06-0.23A14.35,14.35,0,0,0,38.29,175.8Zm25.43,21.54a120,120,0,0,0,14.84,1.79,3.28,3.28,0,0,0,.56-0.1,15.88,15.88,0,0,0-2.38-3.38c-1.45-.15-2.91-0.32-4.37-0.44s-2.85-.22-4.28-0.28a35.78,35.78,0,0,0-4.39-.22A3.31,3.31,0,0,0,63.71,197.33Zm59-5.51a7.5,7.5,0,0,0-5.13,1.39,10.34,10.34,0,0,0-3.75,5.63,2.9,2.9,0,0,0-.06.6,39,39,0,0,0,7.3-.15C121,196.53,120.51,197.28,122.71,191.82Zm3.75-.25a7.26,7.26,0,0,0,.73,4.45,5.13,5.13,0,0,0,2.22,2.13,4.57,4.57,0,0,0,2.66.57c-0.14-.43-0.27-0.79-0.38-1.16a7.22,7.22,0,0,1,.12-5.08,2.65,2.65,0,0,0,.1-0.63A37.32,37.32,0,0,0,126.46,191.57Z" style="fill:#fff"/><path d="M232.19,76.48c-0.31-.09-0.47-0.12-0.62-0.18-3.27-1.27-6.56-2.5-9.81-3.83a74.5,74.5,0,0,1-15.4-8.88c-2.21-1.6-4.34-3.32-6.5-5-0.26-.2-0.54-0.39-0.9-0.64-0.11.28-.2,0.47-0.26,0.66-1.75,5.67-3.59,11.32-5.69,16.87-0.64,1.7-1.34,3.39-2,5.06a30.59,30.59,0,0,1-3.41,6.33c0.31,0.21.59,0.4,0.87,0.58,2.49,1.57,5.05,3,7.47,4.73a65.89,65.89,0,0,1,13.72,12.65,22.63,22.63,0,0,1,2.13,3.11c0.81,1.44,1.66,2.85,2.48,4.27,0.15,0.25.26,0.53,0.4,0.8-0.35.26-.5,0-0.66-0.17-1.41-1.35-2.81-2.71-4.2-4.08A87.62,87.62,0,0,0,191.57,95a52.38,52.38,0,0,0-12.66-5.33,21.71,21.71,0,0,0-4.22-.71,14.09,14.09,0,0,0-3.63.18,3.63,3.63,0,0,1-2.17-.14,3.19,3.19,0,0,1-1.93-3.6,3.11,3.11,0,0,1,2.86-2.59,24.75,24.75,0,0,1,11.26,1.4c1.38,0.51,2.75,1.07,4.12,1.6l0.91,0.37c0.14-.36.28-0.66,0.36-1q2.92-11.33,5.25-22.8c0.56-2.76,1.15-5.51,1.73-8.27,0.07-.34.11-0.68,0.18-1.08l-2.4-2.53a62.28,62.28,0,0,1-11.27-15.83,51.26,51.26,0,0,1-2.16-5.29,3.22,3.22,0,0,1,5.94-2.46,10.66,10.66,0,0,1,.55,1.46A50.5,50.5,0,0,0,192,43a57,57,0,0,0,5.53,6.56,4.08,4.08,0,0,0,.92.69,3.37,3.37,0,0,1,1.34,1.37,5.8,5.8,0,0,0,.92,1.24,111.46,111.46,0,0,0,15.57,13.17c4.77,3.33,9.71,6.37,14.68,9.39,0.37,0.22.72,0.47,1.08,0.71A1.47,1.47,0,0,1,232.19,76.48Z" style="fill:#fff"/><path d="M97.77,65.61l-1-.28a3.22,3.22,0,0,1-1.89-4.8,2.76,2.76,0,0,1,1.34-1.18c0.52-.21,1-0.46,1.57-0.71,0-.33,0-0.62,0-0.92,0-4.77-.18-9.54-0.46-14.3C97.15,40.27,97,37.11,96.69,34c-0.24-2.85-.59-5.69-0.91-8.53-0.3-2.67-.75-5.32-1.28-8a4.39,4.39,0,0,1-.06-1.29,2.06,2.06,0,0,1,1.61-1.83,2.17,2.17,0,0,1,2.45.74A4.64,4.64,0,0,1,99.29,17c0.15,0.72.27,1.45,0.41,2.17,1,5.1,2.55,10.08,4,15.06C106,41.66,108.37,49,111,56.34c0.06,0.16.12,0.32,0.21,0.54a12.09,12.09,0,0,1,4.73,1.62,2.67,2.67,0,0,1-1.71.82,7.39,7.39,0,0,0-1.9.64c1.77,4.88,3.51,9.72,5.53,14.46s4.15,9.3,6.28,14.07a1.77,1.77,0,0,1-.9-0.9,90.15,90.15,0,0,1-9.05-16.06c-1.42-3.16-2.79-6.35-4.18-9.52-0.17-.39-0.35-0.78-0.56-1.25a47.71,47.71,0,0,0-5.59,1.82c0,0.34-.05.63-0.06,0.93,0,5.07,0,10.15-.11,15.22,0,2.34-.28,4.67-0.45,7a3.18,3.18,0,0,1-3.38,2.91,3.23,3.23,0,0,1-3.06-3.4c0-1,.19-2,0.26-3,0.17-2.38.36-4.75,0.47-7.13,0.13-2.73.18-5.46,0.26-8.19C97.78,66.51,97.77,66.08,97.77,65.61Zm5.35-20.71-0.2.05c0.09,1.37.19,2.75,0.27,4.12s0.15,2.67.24,4a29.17,29.17,0,0,0,.27,4.15l4-.34a1.07,1.07,0,0,0,0-.34q-2.19-5.68-4.39-11.35A1.75,1.75,0,0,0,103.12,44.9Z" style="fill:#fff"/><path d="M128.79,54.07c-0.13-.87-0.24-1.64-0.37-2.4-1.06-6.06-2-12.15-2.74-18.26-0.4-3.14-.71-6.29-1-9.44a3.23,3.23,0,0,1,6.22-1.54,3.72,3.72,0,0,1,.21,1c0.08,1.08.14,2.16,0.2,3.24,0.26,5.33.51,10.65,1,16,0.24,2.72.41,5.45,0.62,8.17,0.07,0.95.18,1.9,0.28,2.93a6.47,6.47,0,0,0,.86.13c1,0,2,0,3,0a47.77,47.77,0,0,1,6.74.46c0.3,0,.6,0,0.88,0a1.46,1.46,0,0,0,.21-1.14q0-8.52.05-17c0-1.34,0-2.69,0-4a6.34,6.34,0,0,1,.13-1.29,3.17,3.17,0,0,1,3.47-2.48,3.14,3.14,0,0,1,2.85,3,26.53,26.53,0,0,1-.14,2.73q-0.32,4.21-.67,8.43t-0.71,8.68c-0.11,1.34-.21,2.68-0.32,4.09,1,0.61,2.31.95,2.91,2.3-1.06.18-2-.32-3.06,0-0.3,1.79-.35,3.6-0.55,5.4s-0.37,3.62-.56,5.43-0.38,3.62-.59,5.43-0.4,3.61-.76,5.34a2,2,0,0,1-1.39.12,6.67,6.67,0,0,1-.15-0.88c-0.12-2.77-.25-5.54-0.32-8.32-0.1-3.9-.14-7.8-0.21-11.71,0-.21,0-0.42-0.05-0.72a21.1,21.1,0,0,0-3.75.16c-1.21.11-2.41,0.26-3.62,0.42a31.46,31.46,0,0,0-3.78.61c0,0.32,0,.61,0,0.9q0.45,4.92.92,9.84a45.25,45.25,0,0,1,.3,8.56c-0.31.12-.36-0.12-0.44-0.31a39.18,39.18,0,0,1-2.33-7.57c-0.72-3.35-1.42-6.7-2.13-10,0-.21-0.12-0.41-0.2-0.66a6,6,0,0,0-.78.08c-2.53.59-5.06,1.19-7.59,1.81a3.68,3.68,0,0,1-2,0,3.22,3.22,0,0,1-2.28-3.14,3.13,3.13,0,0,1,2.52-3.08c0.85-.18,1.71-0.26,2.57-0.38l5.93-.75Z" style="fill:#fff"/><path d="M217.38,18.81a0.87,0.87,0,0,1,.33,0c1.38,0.62,2.8,1.18,4.13,1.89a12.9,12.9,0,0,1,4.25,4,18.84,18.84,0,0,1,3.67,10A17.76,17.76,0,0,1,225.42,48a15.93,15.93,0,0,1-12,5.64,16.53,16.53,0,0,1-4.13-.39c-6.09-1.37-9.89-5.21-11.55-11.11a14.61,14.61,0,0,1,2.71-13.62,13.13,13.13,0,0,1,10.9-5.11,13.46,13.46,0,0,1,3.59.54c4.53,1.29,7.16,4.38,8.21,8.86a11.22,11.22,0,0,1-.88,7.48A10.51,10.51,0,0,1,210.35,46a7.57,7.57,0,0,1-6-7.09,7,7,0,0,1,9.66-7,3.14,3.14,0,0,1,1.77,3.54A3.2,3.2,0,0,1,212.47,38a9.88,9.88,0,0,1-1-.18,0.63,0.63,0,0,0-.77.52,1.29,1.29,0,0,0,.92,1.62,4.11,4.11,0,0,0,4.45-1,5.48,5.48,0,0,0,1.29-6A5.88,5.88,0,0,0,213.18,29,8.61,8.61,0,0,0,203,33.65a10.75,10.75,0,0,0,.1,9.9,10.48,10.48,0,0,0,7.51,5.88c5.63,1.19,10.19-.61,13.65-5.12a15,15,0,0,0,3-10.54,16.94,16.94,0,0,0-7.47-13.22L217.46,19A0.62,0.62,0,0,1,217.38,18.81Z" style="fill:#fff"/><path d="M9,264.06a1,1,0,0,1,.26.41A8,8,0,0,1,9.06,266a27.2,27.2,0,0,1-2.3,5.65c-0.6,1.2-1.28,2.36-1.92,3.54l-0.34.65a0.81,0.81,0,0,0,.11.15,0.15,0.15,0,0,0,.11,0,56.41,56.41,0,0,1,6.68-2.14q4.1-1,8.24-1.87c2.5-.51,5-0.9,7.74-1.38a8.79,8.79,0,0,0-.87-0.51,67.65,67.65,0,0,1-7.95-3.87,36.52,36.52,0,0,1-6.1-4.2,25.44,25.44,0,0,1-2.23-2.16,2.56,2.56,0,0,1,1.59-4.27,39.74,39.74,0,0,0,7.39-2c6-2,11.9-4,17.84-6.09,0.61-.21,1.2-0.49,1.8-0.75a3.64,3.64,0,0,1,3.24.17c1.39,0.69,2.14,3.65.38,4.76a6.45,6.45,0,0,0-2.23,2.79,42,42,0,0,0-2.56,6.11c-0.47,1.44-1,2.88-1.39,4.33a3.67,3.67,0,0,1-2.37,2.71,0.86,0.86,0,0,0-.22.13,0.89,0.89,0,0,0-.12.17c0.42,0.15.82,0.28,1.21,0.43,1.09,0.42,2.19.83,3.27,1.28a2.67,2.67,0,0,1,1.34,1.18,1.71,1.71,0,0,1-.27,2.15,2.36,2.36,0,0,1-1.35.74c-0.69.1-1.37,0.22-2.06,0.26-1.77.1-3.55,0.2-5.33,0.24a66.37,66.37,0,0,0-7,.61c-4,.51-8,1.15-11.91,2a45,45,0,0,0-6.39,1.76c-1.09.42-2.15,0.91-3.21,1.4a1.47,1.47,0,0,1-1,.18A1.17,1.17,0,0,1,0,279.44a6,6,0,0,1,1.08-2.52c0.41-.61.86-1.2,1.32-1.77a51.89,51.89,0,0,0,5.82-9.22C8.51,265.36,8.69,264.74,9,264.06Zm21.65,2.76a3.82,3.82,0,0,1-.41-4c0.88-2.26,1.69-4.54,2.53-6.82,0.07-.19.12-0.38,0.18-0.57a0.78,0.78,0,0,0-.3-0.1l-14.45,4.25a1,1,0,0,0-.3.24C19.43,261.47,28,266.22,30.61,266.81Z" style="fill:#fff"/><path d="M79.07,81.52a2.36,2.36,0,0,0,1.2-.61,6.25,6.25,0,0,1,2.77-1,4.08,4.08,0,0,1,2.85.67c0.17,0.12.36,0.22,0.55,0.34a4.29,4.29,0,0,0,1.42-2.16A28.57,28.57,0,0,0,89.17,74c0.2-1.06.36-2.14,0.55-3.2,0.06-.33.16-0.65,0.24-1a0.47,0.47,0,0,1,.24.56,21,21,0,0,1,0,5.83c-0.23,1.23-.48,2.47-0.79,3.68a5.69,5.69,0,0,1-1.28,2.38,2.25,2.25,0,0,1-2.93.56,4.85,4.85,0,0,1-.44-0.27,1.77,1.77,0,0,0-1.86-.09,8.08,8.08,0,0,0-1.62,1.05A10.35,10.35,0,0,0,78.69,87c-0.15.31-.27,0.64-0.43,0.94a1.48,1.48,0,0,1-1.63.81A1,1,0,0,1,75.68,88a9.26,9.26,0,0,1-.34-1.91,22.78,22.78,0,0,1,.11-3.37,57.34,57.34,0,0,0,.42-6.22q0.05-3.32.09-6.63c0-.25,0-0.51,0-0.76-0.38,0-.32.28-0.38,0.46-0.59,1.86-1.14,3.73-1.77,5.57A15.7,15.7,0,0,1,72,78.85a13.77,13.77,0,0,1-1.54,1.92,5.52,5.52,0,0,1-3.57,1.68c-0.17,0-.34,0-0.51.08a0.61,0.61,0,0,0-.14.08A6.26,6.26,0,0,0,66,84.51a3.17,3.17,0,0,1-2,2.7,3.21,3.21,0,0,1-4.49-2.81,7.6,7.6,0,0,1,.06-1.17q0.37-3.23.75-6.46c0-.21.08-0.41,0.13-0.65a5.39,5.39,0,0,1,2-.07c0.65,0,1.3.11,1.94,0.13s1.3,0,2,0a11.44,11.44,0,0,0,2-3.39,55.59,55.59,0,0,0,2.83-9.45,116.33,116.33,0,0,0,2-12.17c0.21-1.81.38-3.62,0.58-5.43,0-.34.1-0.68,0.16-1a2.54,2.54,0,0,1,3.93-1.46,3.73,3.73,0,0,1,1.44,2.1,19.24,19.24,0,0,1,.69,4,103.46,103.46,0,0,1,.2,12.35c-0.12,3.55-.27,7.1-0.48,10.65-0.17,2.85-.45,5.7-0.67,8.55C79.05,81.08,79.07,81.28,79.07,81.52Z" style="fill:#fff"/><path d="M190.09,302.41a1.56,1.56,0,0,0,1,.49,41.6,41.6,0,0,0,5.52,1.48c2.21,0.45,4.38,1,6.63,1.28a41.33,41.33,0,0,0,6.49.23c0.65,0,1.29,0,1.94,0a0.41,0.41,0,0,1,.08.13,0.84,0.84,0,0,1-.22.25,18,18,0,0,1-6.37,1.66,45.61,45.61,0,0,1-8.94-.42c-1.37-.18-2.74-0.42-4.11-0.63-0.25,0-.51-0.05-0.74-0.08a0.75,0.75,0,0,0,.17.86c1.55,3,3.12,6,4.67,9,0.64,1.23,1.24,2.48,1.86,3.72a1.12,1.12,0,0,1,.14.84c-0.28-.21-0.49-0.35-0.67-0.51A55.91,55.91,0,0,1,188.9,311a148.29,148.29,0,0,1-10.06-16.08c-0.36-.69-0.71-1.38-1.1-2.14-0.31.11-.58,0.2-0.84,0.31a3.22,3.22,0,0,1-2.53,0,3.24,3.24,0,0,1-.65-5.61,34,34,0,0,1,5.77-3.24,51.86,51.86,0,0,1,8.38-2.76,18.25,18.25,0,0,1,5.3-.4,6.47,6.47,0,0,1,1.88.44,2.2,2.2,0,0,1,1.53,2.44,12.47,12.47,0,0,1-.38,2.43,73.61,73.61,0,0,1-5.65,14.92l-0.48.92A0.34,0.34,0,0,0,190.09,302.41Zm-7-12.91a81.7,81.7,0,0,0,3.76,8.78,0.73,0.73,0,0,0,.28.12c0.09-.18.19-0.36,0.27-0.55a84.29,84.29,0,0,0,2.73-8.81,14.1,14.1,0,0,0,.3-1.53,3.25,3.25,0,0,0,0-.62A23.53,23.53,0,0,0,183.1,289.5Z" style="fill:#fff"/><path d="M183.07,337.68a2.84,2.84,0,0,1-1.79-1.48c-1-1.54-1.94-3.08-2.83-4.67-2.59-4.62-4.77-9.44-7-14.23-0.2-.43-0.41-0.85-0.64-1.31a8.7,8.7,0,0,0-2.3,1.43c0,0.83.07,1.7,0.1,2.56,0.07,2.21.18,4.42,0.18,6.63a13.57,13.57,0,0,1-.37,3,3.21,3.21,0,0,1-6.29-1.27c0.55-2.67.33-5.35,0.39-8-3.13-1.36-3.13-5-.27-6.36,0-.37,0-0.76,0-1.14-0.23-3.46-.44-6.92-0.73-10.38-0.12-1.42-.41-2.83-0.64-4.24a23.64,23.64,0,0,1-.4-6.47,10.52,10.52,0,0,1,.4-2,2.09,2.09,0,0,1,3.3-.89,6,6,0,0,1,1.53,2.08,16.58,16.58,0,0,1,1.06,2.79,132.17,132.17,0,0,0,4.22,12.7c0.4,1.14.82,2.28,1.24,3.42,0.09,0.24.21,0.46,0.34,0.76l2.22-.13a9.15,9.15,0,0,1,3.21.35,4.69,4.69,0,0,1,1.27.63,2.67,2.67,0,0,1,.5.78,31.52,31.52,0,0,1-3,1,19.77,19.77,0,0,0-2.77,1.22,26.21,26.21,0,0,0,1.21,3.43c0.39,1.1.82,2.19,1.24,3.28s0.86,2.27,1.29,3.4,0.85,2.18,1.28,3.27,0.89,2.26,1.35,3.38,0.91,2.15,1.35,3.24A30.33,30.33,0,0,1,183.07,337.68Zm-14.26-26.24a3.92,3.92,0,0,0-1.1-1.89,9.59,9.59,0,0,0,.41,2.08Z" style="fill:#fff"/><path d="M66.82,318.34A17.93,17.93,0,0,1,64,316.08a29.39,29.39,0,0,1-2.53-2.43,21.8,21.8,0,0,1-2-2.7c-0.63-1-1.14-2-1.73-3.09a1.65,1.65,0,0,0-.64.81L52.28,317a3.9,3.9,0,0,1-.83,1.15,6.23,6.23,0,0,1,0-.89,67.5,67.5,0,0,1,2.05-9.52c0.63-1.93,1.38-3.83,2.07-5.74a2.37,2.37,0,0,0,.2-0.86A3.25,3.25,0,0,1,57,298.3a1.75,1.75,0,0,0,.47-0.6,56.91,56.91,0,0,1,4.39-7.59,16.73,16.73,0,0,1-.35-1.82,3.17,3.17,0,0,1,4.13-3.18,8.83,8.83,0,0,1,1.09.42,3.13,3.13,0,0,0,1.39.28,2.31,2.31,0,0,1,1.76.71,4.2,4.2,0,0,0,1.44.85,93.6,93.6,0,0,1,8.84,4.09c1.18,0.64,2.31,1.37,3.46,2.06A4.13,4.13,0,0,1,85,294.88a2.54,2.54,0,0,1-.33,3.32,7.42,7.42,0,0,1-2.78,1.86,23.49,23.49,0,0,1-5.7,1.26,68,68,0,0,1-9.21.52c-1.51,0-3-.19-4.59-0.3a7.11,7.11,0,0,0-.08.85,14.74,14.74,0,0,0,.66,4.09c0.6,1.94,1.24,3.88,1.89,5.8,0.56,1.68,1.16,3.36,1.73,5A9.38,9.38,0,0,1,66.82,318.34Zm-4.73-18.2c0.31,0,.48,0,0.65-0.07,3.15-.61,6.3-1.2,9.44-1.85,1.78-.37,3.54-0.84,5.31-1.28a2.25,2.25,0,0,0,.49-0.18c0.13-.07.37,0,0.33-0.3a59.09,59.09,0,0,0-10.44-3.8A31.71,31.71,0,0,0,62.09,300.14Z" style="fill:#fff"/><path d="M215.86,303.6a1.67,1.67,0,0,1-.91-0.77c-1.83-2.42-3.68-4.83-5.49-7.26-3.1-4.17-6.17-8.37-9.29-12.53-0.93-1.25-2-2.41-3-3.62-0.55.05-1.06,0.14-1.57,0.14a3.2,3.2,0,0,1-2.82-4.72,2.87,2.87,0,0,1,1.28-1.25,21.46,21.46,0,0,1,9.76-2.35,54.17,54.17,0,0,1,12,1.28,17.42,17.42,0,0,1,2.58.86A1.74,1.74,0,0,1,219.6,275c0.07,1,.23,2.07.25,3.1,0,3.94,0,7.89-.36,11.82a59.42,59.42,0,0,1-1.54,9.74,22.83,22.83,0,0,1-.92,2.7A2.22,2.22,0,0,1,215.86,303.6Zm-12.49-26.28a4.15,4.15,0,0,0,.22.46c3.24,5.14,6.13,10.47,8.85,15.9a33.34,33.34,0,0,1,3,8c0.07,0.33.2,0.64,0.34,1.06,1.05-2.8.28-20.67-.73-25.18C212.87,276.9,205.77,276.73,203.36,277.33Z" style="fill:#fff"/><path d="M70.38,162.83a7.87,7.87,0,0,1,3.34-.43,26.55,26.55,0,0,1,6,1.24,51,51,0,0,1,8.77,3.91,68.9,68.9,0,0,0,6.68,3.19,250.69,250.69,0,0,0,26.15,9.09c6,1.78,12,3.63,18.14,5.12,2.78,0.68,5.56,1.34,8.36,1.92a4.69,4.69,0,0,1,3,1.92,6.87,6.87,0,0,1,1.31,4,23.34,23.34,0,0,1-1.9,10.27,9.64,9.64,0,0,1-.9,1.57,4,4,0,0,1-2.81,1.7c-0.86.11-1.72,0.22-2.59,0.26q-7.54.37-15.08,0.71c-1,0-2.08,0-3.12,0l-18.08-.5c-4.9-.14-9.8-0.27-14.7-0.45-1.65-.06-3.29-0.24-4.93-0.38l-11.28-1-10.76-.94-7.26-.61c-2.33-.2-4.65-0.4-7-0.72,0.32,0,.64-0.06,1,0q4.36,0.17,8.71.36l8.45,0.41c5.07,0.24,10.14.45,15.21,0.72,5.5,0.29,11,.38,16.52.43,8.41,0.08,16.83.2,25.24,0.26,2.51,0,5-.1,7.54-0.21,2.3-.1,4.59-0.22,6.88-0.41,1.55-.13,3.09-0.41,4.64-0.61a2.16,2.16,0,0,0,1.65-1.13,11,11,0,0,0,1.28-3.26,25.31,25.31,0,0,0,.67-7,3.89,3.89,0,0,0-.49-1.86,2.52,2.52,0,0,0-1.71-1.27q-7.8-1.77-15.47-4.05c-2.78-.83-5.51-1.83-8.26-2.78l-23.24-8c-0.74-.25-1.46-0.55-2.17-0.87-1.38-.63-2.74-1.31-4.12-1.93a104,104,0,0,1-9.45-4.93A30.48,30.48,0,0,0,74.15,163a16.28,16.28,0,0,0-2.21-.06A4.09,4.09,0,0,1,70.38,162.83Z" style="fill:#fff"/><path d="M90.1,300.1c0.72-1.66,1.86-2.57,3.67-2.36,1.51,0.17,2.34,1.09,2.86,3.15a3.37,3.37,0,0,0,.58.19c3.73,0.55,7.46,1.08,11.19,1.65,1.41,0.22,2.82.49,4.21,0.81a5.63,5.63,0,0,1,2.66,1.18c0,0.3-.21.28-0.36,0.32a23.07,23.07,0,0,1-4.6.78c-4.55.32-9.1,0.18-13.65,0.21H94.88a38.89,38.89,0,0,0-2.6,5.19l1.23,0.38a64.26,64.26,0,0,1,7.49,2.58,10.58,10.58,0,0,1,3.26,2.1,2,2,0,0,1,.21.29,0.39,0.39,0,0,1-.47.35c-1,0-1.91.08-2.86,0-2.2-.16-4.4-0.4-6.6-0.6l-5.34-.49c-1,1.32-1.89,2.62-2.84,3.9s-2,2.64-3,3.93-1.94,2.52-3,3.73a0.66,0.66,0,0,1,0-.9c1.24-3.19,2.49-6.37,3.74-9.56,0.17-.44.33-0.89,0.52-1.39a7.32,7.32,0,0,0-1.93-.35,6.16,6.16,0,0,1-1.27-.23,3.22,3.22,0,0,1,1.76-6.17c1,0.22,2,.53,3,0.79,0.21,0.05.42,0.09,0.61,0.12a12,12,0,0,0,1.4-3.57,7,7,0,0,0-.72-0.09c-0.65,0-1.3,0-2,0a3.22,3.22,0,0,1,.33-6.44c1,0,2,.24,3,0.36Z" style="fill:#fff"/><path d="M62.31,278.37a4,4,0,0,1-.07.5c-0.33,1.26-.67,2.51-1,3.77a25.23,25.23,0,0,1-8,12.81,23.32,23.32,0,0,1-7,4.34,15.61,15.61,0,0,1-10.07.52,5.74,5.74,0,0,1-3.27-2.2,13.59,13.59,0,0,1-2.63-9.93,14.62,14.62,0,0,1,2.34-6.54c0.46-.69.89-1.39,1.35-2.07a18.83,18.83,0,0,1,6.23-5.8q2.54-1.46,5.13-2.8a3.15,3.15,0,0,1,4.34,1.35,3.2,3.2,0,0,1-1.37,4.35c-0.19.1-.39,0.18-0.59,0.28-1,.46-1.95,1-2.94,1.39a16.92,16.92,0,0,0-8.07,7.47,8.87,8.87,0,0,0-.37,8.59,3,3,0,0,0,2.13,1.73,11.93,11.93,0,0,0,6.29-.1,22.19,22.19,0,0,0,9.12-5.56,33.29,33.29,0,0,0,6.58-9.13q0.63-1.21,1.28-2.41c0.12-.22.27-0.42,0.41-0.62Z" style="fill:#fff"/><path d="M140.75,313.56a19.61,19.61,0,0,1,1.92-8.92,12.12,12.12,0,0,1,2.57-3.4,7.79,7.79,0,0,1,3.65-1.89,3.13,3.13,0,0,1,4,2.47,1.4,1.4,0,0,0,.71,1,11.8,11.8,0,0,1,5.3,7.11,17.8,17.8,0,0,1,.4,8.1,20.17,20.17,0,0,1-1.69,5.84,11.84,11.84,0,0,1-2.11,3.25,6.75,6.75,0,0,1-6.37,2.09,7.15,7.15,0,0,1-3.76-2.19,14.11,14.11,0,0,1-2.91-4.57,24.44,24.44,0,0,1-1.21-4.51A21.81,21.81,0,0,1,140.75,313.56Zm12-9.49a0.81,0.81,0,0,0-.27.13,3.75,3.75,0,0,1-2.37,1.46,2.16,2.16,0,0,0-1.27.85,9.16,9.16,0,0,0-1.58,2.67,12.7,12.7,0,0,0-.87,5.09,45.16,45.16,0,0,0,.55,5,14,14,0,0,0,1,2.93,5.55,5.55,0,0,0,1.48,2,2,2,0,0,0,2.82,0,2.5,2.5,0,0,0,.28-0.27,12.19,12.19,0,0,0,2-2.89,21.13,21.13,0,0,0,1.73-6,13.11,13.11,0,0,0-1-7.61A9.24,9.24,0,0,0,152.8,304.07Z" style="fill:#fff"/><path d="M126,157.11a0.72,0.72,0,0,1,.32.15c0.2,0.33.37,0.68,0.54,1,1,2.11,2,4.23,3,6.33a9.62,9.62,0,0,0,1.1,1.75,20.61,20.61,0,0,0,7.21,5.85,15.46,15.46,0,0,0,9.62,1.41,17.59,17.59,0,0,0,7.53-3.35,7.3,7.3,0,0,0,1.32-1.43,13.82,13.82,0,0,0,3-9.31,11.66,11.66,0,0,0-8.41-10.74,13.2,13.2,0,0,0-8.16.25,13.06,13.06,0,0,0-3.4,1.59,9.64,9.64,0,0,0-4.42,7.18,7.28,7.28,0,0,0,2.42,6.44,10.36,10.36,0,0,0,5.52,2.72,7.75,7.75,0,0,0,4.56-.66,6,6,0,0,0,3.44-5.15,2.32,2.32,0,0,0,0-.39,1.74,1.74,0,0,0-2.24-1.69,6,6,0,0,0-1.4.65c-0.53.3-1,.67-1.54,1a6.4,6.4,0,0,1-1.32.55,3.43,3.43,0,0,1-4.33-2.67,2.91,2.91,0,0,1,3.09-3.63c-0.44.21-.77,0.36-1.08,0.54a2.48,2.48,0,0,0-1.12,3.23,2.54,2.54,0,0,0,3.19,1.53,7,7,0,0,0,2-1.16,9.67,9.67,0,0,1,1.52-1,3.1,3.1,0,0,1,4.64,2.62,6.92,6.92,0,0,1-2,5.46,8.52,8.52,0,0,1-5.88,2.7,9.94,9.94,0,0,1-3.47-.41,12.87,12.87,0,0,1-5-2.72,9.44,9.44,0,0,1-3.15-9,11.9,11.9,0,0,1,5.51-8.31,18,18,0,0,1,6.19-2.62,14,14,0,0,1,9.11,1.27,13.61,13.61,0,0,1,8,11.67,14.81,14.81,0,0,1-2.37,9.54c-0.51.8-1.11,1.55-1.69,2.31a9.31,9.31,0,0,1-3.32,2.66,20.61,20.61,0,0,1-7,2.25,16.63,16.63,0,0,1-9.12-1.48,20.67,20.67,0,0,1-10.83-11.57c-0.5-1.29-.85-2.64-1.26-4-0.14-.45-0.28-0.91-0.42-1.36h0Z" style="fill:#fff"/><path d="M181.51,57.21a3.82,3.82,0,0,1,0,.69c-0.78,2.61-1.5,5.25-2.39,7.82a38.52,38.52,0,0,1-4.23,8.46,22.43,22.43,0,0,1-3.81,4.42,6.1,6.1,0,0,1-4.4,1.61,4.65,4.65,0,0,1-3-1.14,7.58,7.58,0,0,1-2-2.55,26,26,0,0,1-2.3-8.48,73.82,73.82,0,0,1-.35-12.33c0.06-1.08,0-2.17.08-3.25a4.44,4.44,0,0,1,.26-1.39A3.14,3.14,0,0,1,163,49.17,3.19,3.19,0,0,1,165.62,52a6.29,6.29,0,0,1,0,1c-0.19,2.2-.4,4.4-0.57,6.6a54.71,54.71,0,0,0,.14,11,15.75,15.75,0,0,0,1,3.76c0.57,1.46,1.18,1.65,2.43.72a20.45,20.45,0,0,0,4.68-5c1.14-1.69,2.26-3.39,3.35-5.11,1.36-2.16,2.68-4.35,4-6.53C180.86,58.19,181.1,57.84,181.51,57.21Z" style="fill:#fff"/><path d="M164.37,197.1l1,0.71a93.43,93.43,0,0,1,17.74,16.36,134.14,134.14,0,0,1,10.91,14.56,64.4,64.4,0,0,1,7.74,17.82c0,0.17.08,0.34,0.12,0.51a1.28,1.28,0,0,1-1.11,1.47l-0.52,0a68.62,68.62,0,0,1-21.83-2.84A105.75,105.75,0,0,1,157,236.64a62,62,0,0,1-10.07-7.35l-2.45-2.14c-0.18-.16-0.34-0.34-0.52-0.53a0.48,0.48,0,0,1,.61.18c0.84,0.61,1.69,1.22,2.5,1.86a78.6,78.6,0,0,0,19.09,10.75c3,1.21,6,2.17,9.09,3.15s6.19,1.64,9.32,2.36c2.55,0.58,5.14.73,7.72,1.08a33.13,33.13,0,0,0,6.1,0,4.51,4.51,0,0,0,.58-0.11c-0.05-.28-0.08-0.53-0.14-0.76a33.75,33.75,0,0,0-2.1-6.27c-1.16-2.52-2.35-5-3.71-7.44a122.18,122.18,0,0,0-17.3-23.21,121.86,121.86,0,0,0-10.59-10.19c-0.3-.25-0.57-0.52-0.86-0.78Z" style="fill:#fff"/><path d="M86.67,156.43c-0.21-.7-0.35-1.1-0.45-1.52a7.33,7.33,0,0,1,.7-5.53,4.76,4.76,0,0,1,2.63-2.2,11,11,0,0,1,4.73-.66,8.53,8.53,0,0,1,7.61,6.64,9.65,9.65,0,0,1-3,9.1,4,4,0,0,1-1.78,1,1.24,1.24,0,0,1-1.4-.43,1.22,1.22,0,0,1-.07-1.56,10.77,10.77,0,0,1,.86-1,7.15,7.15,0,0,0,1.83-3.67,4.41,4.41,0,0,0-2.41-4.88,6.82,6.82,0,0,0-2.21-.75,3.79,3.79,0,0,0-2,.26,2.39,2.39,0,0,0-1.61,1.89,8.89,8.89,0,0,0-.15,1.93,2.49,2.49,0,0,0,2.25,2.32,2.43,2.43,0,0,0,1.55-.49c0.29,0.23.12,0.42,0,.58a1.94,1.94,0,0,1-1.06.71,7.83,7.83,0,0,1-3.08.37,17.94,17.94,0,0,1-6.16-1.51c-3.68-1.65-7.34-3.33-11-5a24.6,24.6,0,0,0-5.3-1.73,6.65,6.65,0,0,0-3.21.1c-0.67.19-1.33,0.4-2,.65l-10.69,4.07a3.52,3.52,0,0,1-1.26.29,4.46,4.46,0,0,1,.45-0.37q3.41-2.15,6.83-4.28a7.47,7.47,0,0,1,1-.52c0.68-.29,1.38-0.52,2-0.83A22.92,22.92,0,0,1,65.5,148a3.71,3.71,0,0,1,.77-0.08,18.29,18.29,0,0,1,7.16,1.69A54,54,0,0,1,79.72,153c1.63,1,3.33,1.85,5,2.73A16.61,16.61,0,0,0,86.67,156.43Zm3.77,1-0.64-.73a3.6,3.6,0,0,1-.9-2.11,16.8,16.8,0,0,1,0-1.68,3.53,3.53,0,0,1,1.26-2.62,13.25,13.25,0,0,1,1.39-.93c0.15-.1.43-0.11,0.36-0.47H91.1a3.83,3.83,0,0,0-3.9,2.64,8.15,8.15,0,0,0-.41,4.46,0.79,0.79,0,0,0,.53.68A10.26,10.26,0,0,0,90.44,157.4Z" style="fill:#fff"/><path d="M142.76,286.57a5.11,5.11,0,0,1,.83.31,35.12,35.12,0,0,0,6.65,2.92,19.05,19.05,0,0,0,2.66.59,2.12,2.12,0,0,0,2.44-1.28,12.84,12.84,0,0,0,1.21-4.49,52.15,52.15,0,0,0-.14-10.76c-0.43-4.49-1.12-8.93-1.84-13.38-0.83-5.18-2-10.29-3.27-15.36-1-3.9-2.07-7.78-3.12-11.67a8.16,8.16,0,0,0-.32-0.84h0a0.75,0.75,0,0,1,.32.15,4.23,4.23,0,0,1,.33.7c2,5.24,4,10.51,5.63,15.9,1.24,4.15,2.08,8.4,2.93,12.64,0.52,2.59.92,5.2,1.19,7.83a76.44,76.44,0,0,1,.31,12.19,26.37,26.37,0,0,1-1.07,5.87,6.8,6.8,0,0,1-1.82,3.1,2.59,2.59,0,0,1-1.75.74,7,7,0,0,1-2.68-.42c-1.22-.44-2.43-0.92-3.6-1.47a20,20,0,0,1-4.91-3.13v-0.14Z" style="fill:#fff"/><path d="M146.94,117.9a9.11,9.11,0,0,1,.55-0.86,22.75,22.75,0,0,0,3.42-5.81c1-2.57,2-5.16,3.06-7.74q1.12-2.84,2.24-5.69c0.14-.35.25-0.71,0.37-1a0.6,0.6,0,0,0-.77.06,4.74,4.74,0,0,1-6.11-2,9,9,0,0,1-1.09-7.13,9.77,9.77,0,0,1,3.55-5.46,6.28,6.28,0,0,0,.62-0.47,0.51,0.51,0,0,0,.13-0.44,0.59,0.59,0,0,0-.41-0.27,2.22,2.22,0,0,0-1.48.39,7.91,7.91,0,0,0-2,1.68,14.51,14.51,0,0,0-1.93,2.92,21.74,21.74,0,0,0-2,6.83,30.37,30.37,0,0,0,.1,8,62.86,62.86,0,0,0,1.62,7.62,18.1,18.1,0,0,1,.55,6.44,4.89,4.89,0,0,1-.55,2.12,2,2,0,0,1-.08-0.38c0-.13.06-0.25,0.07-0.38,0-.65.11-1.3,0.1-1.94a21.62,21.62,0,0,0-1-6.27,42.58,42.58,0,0,1-2-8.86,26.89,26.89,0,0,1,1.27-12.19,16.74,16.74,0,0,1,2.8-5,8.37,8.37,0,0,1,3.18-2.42,2.71,2.71,0,0,1,2.27-.06A2.48,2.48,0,0,1,154.78,82a1.16,1.16,0,0,1-.36.66c-0.41.38-.88,0.71-1.32,1.06a8,8,0,0,0-3.11,7,6.53,6.53,0,0,0,1.4,3.84,3.22,3.22,0,0,0,4.42.68,18.91,18.91,0,0,0,1.7-1.41c0.36-.31.73-0.62,1.11-0.9a0.56,0.56,0,0,1,.72,0,0.63,0.63,0,0,1,.23.7,4.28,4.28,0,0,1-.23.61c-0.18.4-.35,0.8-0.54,1.18-1.93,3.74-3.52,7.64-5.13,11.52-0.8,1.92-1.68,3.81-2.62,5.66a27.79,27.79,0,0,1-2,3.33,14.9,14.9,0,0,1-1.67,1.81,1.2,1.2,0,0,1-.46.17Z" style="fill:#fff"/><path d="M142.76,286.57v0.14a2.21,2.21,0,0,0,.74,1.46,10.52,10.52,0,0,1,.76,1,0.77,0.77,0,0,1-.49,1.14,1.68,1.68,0,0,1-.38.09,6.92,6.92,0,0,1-5.84-1.87,11.15,11.15,0,0,1-3.33-7.52,22.86,22.86,0,0,1,.32-5.3c0.64-4.06,1.66-8,2.63-12a41.81,41.81,0,0,0,1.29-7.27c0-.73.08-1.47,0.13-2.2a2.27,2.27,0,0,1,.29,1.37,22.08,22.08,0,0,1-.42,5.56c-0.59,3-1.24,6-1.8,9-0.43,2.34-.81,4.69-1.1,7.06a15.16,15.16,0,0,0,.42,6.18,8.48,8.48,0,0,0,3.14,4.5,3.63,3.63,0,0,0,2.6.83,5.55,5.55,0,0,0-.33-0.8,12.65,12.65,0,0,1-1.34-2.95,9,9,0,0,1,.15-6.23,5,5,0,0,1,2.45-2.75,3,3,0,0,1,4.06.84c0.33,0.4.62,0.83,0.94,1.24,0.12,0.16.26,0.31,0.56,0.67a7.55,7.55,0,0,0-.06-1,60.15,60.15,0,0,0-3.72-11.33c-1.64-3.68-3.25-7.37-4.85-11.06a13.66,13.66,0,0,1-.46-1.47,2.55,2.55,0,0,1,.22.32c2.23,4.46,4.51,8.89,6.66,13.38a48.26,48.26,0,0,1,4.11,13.91,3.77,3.77,0,0,1,.07.77,0.62,0.62,0,0,1-1,.45,4.25,4.25,0,0,1-.78-0.86c-0.7-1-1.36-2-2-3a9.55,9.55,0,0,0-1-1.22,1.43,1.43,0,0,0-1.88-.34,3.11,3.11,0,0,0-1.36,1.16,5.7,5.7,0,0,0-.91,2.94,10.66,10.66,0,0,0,.58,3.7A7.57,7.57,0,0,0,142.76,286.57Z" style="fill:#fff"/><path d="M21.38,206.79a0.67,0.67,0,0,0,.3.16,3.57,3.57,0,0,1,1.05-.13c-0.26.18-.5,0.39-0.77,0.55a8.93,8.93,0,0,0-2.19,1.82,4.51,4.51,0,0,0-1.13,2.71q-0.17,3.12-.31,6.23a10.67,10.67,0,0,0,.05,1.09,1.75,1.75,0,0,0,1.67.36,4.64,4.64,0,0,0,1.77-.78c0.81-.58,1.64-1.13,2.45-1.71a21.94,21.94,0,0,0,1.85-1.43,4.32,4.32,0,0,0,1.58-2.47,0.88,0.88,0,0,1,1.52-.4c0.06,0.06.1,0.14,0.16,0.21a1.56,1.56,0,0,0,2,.47,70.51,70.51,0,0,0,6.85-3.13,15,15,0,0,0,3.19-2.44,3,3,0,0,0,.83-1.71,26.37,26.37,0,0,0,.33-5.7c0-.51-0.15-1-0.23-1.57a3.92,3.92,0,0,0-3.27,1c-0.46.39-.89,0.82-1.37,1.19a2.5,2.5,0,0,1-1.43.57,1.08,1.08,0,0,1-1-.27,0.9,0.9,0,0,1-.16-1l0.47,0.71a1.52,1.52,0,0,0,1.57-.41c0.53-.45,1-1,1.48-1.45a4.79,4.79,0,0,1,3.62-1.47,1,1,0,0,1,1.06.77,10.47,10.47,0,0,1,.31,1.26,20.43,20.43,0,0,1,0,5.83,3.74,3.74,0,0,0-.07.65,3.75,3.75,0,0,1-1.3,2.87,12.59,12.59,0,0,1-1.77,1.53,28.74,28.74,0,0,1-4.8,2.85c-1,.44-2,1-3,1.47a4.23,4.23,0,0,1-3.15.36l-0.49-.12c-0.65.6-1.21,1.14-1.8,1.65a17.67,17.67,0,0,1-3.17,2.26,19.24,19.24,0,0,0-1.64,1.05,5.13,5.13,0,0,1-3.73.73,1.66,1.66,0,0,1-1.67-1.8,7.06,7.06,0,0,1,0-1.17c0.09-1.3.2-2.59,0.33-3.88,0.07-.69.27-1.36,0.33-2.05a5.51,5.51,0,0,1,2.49-4.07,4.74,4.74,0,0,0,1.2-1.17h0Z" style="fill:#fff"/><path d="M199.9,166.39a0.29,0.29,0,0,1-.12.05,6.09,6.09,0,0,0-3.67-.38c-1.11.12-2.22,0.32-3.59,0.52a8.54,8.54,0,0,0,.87.47l3.67,1.3a2,2,0,0,1,.79.48c-0.57-.08-1.14-0.14-1.71-0.23l-8.2-1.3a7.26,7.26,0,0,1-1.13-.27,0.82,0.82,0,0,1-.54-0.81,0.81,0.81,0,0,1,.58-0.77,4.51,4.51,0,0,1,.89-0.15,60.7,60.7,0,0,1,9.34,0,4.64,4.64,0,0,1,2.57.77A2.06,2.06,0,0,1,199.9,166.39Z" style="fill:#fff"/><path d="M199.52,180.8a9.39,9.39,0,0,0-1.09-.11,3.82,3.82,0,0,0-1.15.13,23.51,23.51,0,0,0-4.37,2.16,0.39,0.39,0,0,0,.5.34l3.51,0a1.68,1.68,0,0,1,.89.24c-0.45.1-.89,0.22-1.35,0.31l-8.17,1.49a5.12,5.12,0,0,1-.77.11,0.93,0.93,0,0,1-.91-0.61,0.84,0.84,0,0,1,.4-1,7.37,7.37,0,0,1,.81-0.41,52.57,52.57,0,0,1,8.68-3.06,4.53,4.53,0,0,1,2.43,0A3.25,3.25,0,0,1,199.52,180.8Z" style="fill:#fff"/><path d="M205.31,175.65c1.67,0.47,3.29.48,5,.93-0.19.06-.28,0.1-0.36,0.11l-0.26,0-7.39.42q-0.65,0-1.3,0a1.93,1.93,0,0,1-.51-0.06,0.88,0.88,0,0,1-.63-0.75,0.77,0.77,0,0,1,.41-0.75,4.88,4.88,0,0,1,.72-0.3,40.42,40.42,0,0,1,7.67-1.91,7.44,7.44,0,0,1,1.29-.09,2.16,2.16,0,0,1,2,1.25,2.76,2.76,0,0,0-3.07-.49l-3,1.2A3.26,3.26,0,0,0,205.31,175.65Z" style="fill:#fff"/><path d="M41.63,164.2c-0.85-1.82-.09-3.43.47-5.07l-1.36-.69,0.84-.56c0.65-.42,1.3-0.86,2-1.25a4.43,4.43,0,0,1,1.28-.58A1,1,0,0,1,46,157.39a4,4,0,0,1-.58,1.15A42.94,42.94,0,0,0,42,164,1.18,1.18,0,0,1,41.63,164.2Z" style="fill:#fff"/><path d="M50.1,202.64H49.35v0H50.1v0Z" style="fill:#fff"/><path d="M200.47,167.31l-0.07.15a0.27,0.27,0,0,1,0-.11,0.7,0.7,0,0,1,.07-0.15Z" style="fill:#fff"/><path d="M138.75,253.47l-0.14.84A0.63,0.63,0,0,1,138.75,253.47Z" style="fill:#fff"/><path d="M147.86,232.61v-0.45h0v0.45h0Z" style="fill:#fff"/><path d="M146.91,117.87a0.45,0.45,0,0,1,0,.23,1.08,1.08,0,0,1-.29.14,1,1,0,0,1,.11-0.3,0.47,0.47,0,0,1,.24,0Z" style="fill:#fff"/><path d="M139.15,254l-0.43-.56Z" style="fill:#fff"/><path d="M138.51,253a0.14,0.14,0,0,1-.06,0,0.26,0.26,0,0,1,0-.09,0.15,0.15,0,0,1,.06,0A0.27,0.27,0,0,1,138.51,253Z" style="fill:#fff"/><path d="M126,157.1l0-.17a0.21,0.21,0,0,0,0,.08,0.37,0.37,0,0,0,0,.1h0Z" style="fill:#fff"/><path d="M105.79,143.78l0.09,0,0,0.14a0.34,0.34,0,0,1-.1,0A0.15,0.15,0,0,1,105.79,143.78Z" style="fill:#fff"/><polygon points="163.64 196.6 163.64 196.67 163.54 196.63 163.64 196.6" style="fill:#fff"/></svg>