<svg id="Layer_1" data-name="Layer 1" xmlns="http://www.w3.org/2000/svg" viewBox="0 0 378.69 86.76"><title>mictlan-logo-wth</title><path d="M138.17,67.4l1.07,0.09a15.55,15.55,0,0,1,2.89-4.31l0-.19-6.07-1.13,0,0.44-0.41,0-0.13-3.33q0.63-3.52,1.76-7.92l2.07-4.53-8.08.6-1.07,4,0,0.22-0.63,4.12,0.19,0.25-0.25.19-0.06.44,0.13,1.1-0.25.19,0.06,3.27a72.22,72.22,0,0,1-6-9.69,93.51,93.51,0,0,1-7.17-21.52q0.15-1.21-9.52-4.36-0.91.37-3.18,3.26h0.26q2.64,13.84,2,19.47l-0.92,3.73-0.48,0-0.48-.55q-6.63-8.13-8.05-13.43-1.65-.18-7.54,1l-0.26,0a10,10,0,0,0,.11,3.59l-0.22,0L87.73,51l-0.26,0,0,0.51,0.18,0.77L87.29,53l0.11,1-2.16,8.2,0,0.29h0.26L92,64.27a1.09,1.09,0,0,0,1.1-.91l-0.22,0a23.48,23.48,0,0,0,1.61-5.75L94.94,53l-0.11-1.28q4.72,7,7.43,12l8.16,0.15a23.07,23.07,0,0,0,2.16-8,46.41,46.41,0,0,0-.26-12.08l0-.51,0.26,0q-0.07,1.06,1.57,4.76,1.83,6.52,9,16.36,7.36,8.27,14.09,9.74l5.09,0.29,1,0.07,1.83,0,0.22,0.29,0.29-.26,0-.26q-4.45-1.24-10.3-6.73A8.89,8.89,0,0,1,138.17,67.4Z" style="fill:#fff"/><path d="M134.9,42.76q6,0.19,6.6-3.71,1-3.14-2.51-3.36l-1.41.13q-2.36-.57-3.3,3.27Q132.64,42.35,134.9,42.76Z" style="fill:#fff"/><path d="M160.92,55.81q-3,4.71-6.07,5T150.47,60q-1.37-1-1.81-3.94-0.75-6.07,8-11.38l5.59-1.95V42.45q-6-2.83-8.49-2.83-11.91,5.16-11.91,13.8,0,8.49,6.91,11.91l3.11,1h0.35q8.61,0,11.91-5.63Q163,55,160.92,55.81Z" style="fill:#fff"/><path d="M219.28,57.16A87.92,87.92,0,0,1,209.16,40.4l-3.49-.16-0.22,0L205.23,40v0.19a16.34,16.34,0,0,1-3.48-.75l1.1-.38q1.41,0.16,3.33-4.27l0-.19L206,34.37l-8.61,2.58V36.76q-2.29.54-4.82,1,1.07-5.8,2.43-7.58V30l-2.45.25q-4.84-.06-4.87,1.45c-0.74,2.39-1.39,4.72-2,7-0.94.1-1.9,0.19-2.89,0.27h-0.19l1.23-3.39,0-.22-6.44.41q-1.23-.16-2.14,3.52-0.06.63-6.63,0.38a4,4,0,0,0-1.83.21,19.3,19.3,0,0,0-5.15-1.15h-2.2V39q0,0.82,6,2.29h0l0.09,1.63,1.32,0.5,1.63-.09,0.16,0.25,0.44,0,1.13-.09,0.88,0.09L172.38,44l-1.85,7,0,0.22-0.63,4.12,0.19,0.25-0.25.19-0.06.44,0.13,1.1-0.25.19,0.06,3.55q0.85,7.1,3,7.35a14.76,14.76,0,0,1,5.85-1.13l1.07,0.09a15.54,15.54,0,0,1,2.89-4.31l0-.19-6.07-1.13,0,0.44-0.41,0-0.13-3.33q0.63-3.52,1.76-7.92l2.61-5.69q0.16-1.92,3.27-1.82l1.17-.13A85.7,85.7,0,0,0,183,55.05l-0.25.66,0.22,0-0.28.82,0.13,1.13v0.22l-0.22.22,0.16,1.29,0.06,3.87,0.16,4h1.89l0.22,0,0.25-.22a13.56,13.56,0,0,1,3.87,1.32V68.19l0.25-.22,0.15-2.21,6.2,0.29,0.25,0,2.55,0.5,0.31-.63L198.41,65l2.23-4.59q0.31-3,9.55-2.73l0.06-.85L210,56.78q-1.79-2.8-3.43-3l-0.19,0-3.74,0,1-5.37L203.94,46l0.44,0q-0.06.57,1.67,2.83A48.33,48.33,0,0,0,213.21,60q6.19,5.53,11.19,6.73a29.08,29.08,0,0,1,6.91-.79l0-.44q-2.11-.25-8.3-4.62Zm-21.4-11.79-2.8,9.4-1.85.66,0.16,2.89a28.56,28.56,0,0,1-3.8,5.66l-0.07-.41,0.25-.19-0.13-1.29V61.84l0.22-.22L189.67,61q0.13-1.89.25-3.68L191,46.66q0.34-2.34.73-4.46,3.39-.68,6.61-1.63l-0.5,4.58-0.22.22h0.22Z" style="fill:#fff"/><path d="M337,52.83q15-11.31,15.18-18.2,0-2.8-5-4.12-8.61-1.57-26.06,3.3A5.71,5.71,0,0,0,318,35.73v0.66c0.25,0.36.5,0.71,0.74,1.07-2,.07-3.24.67-3.78,1.83l0,0.44a24.51,24.51,0,0,1,1.35,9.78L315.84,54q-1.26,4-2.51,5.15l-0.63-.28q-3.18-4.56-2.8-8.8l0.47-4.9-0.22-.22-2,.47a6.62,6.62,0,0,0-2.91-3.57l-3-.8-1-.09-6.8-.12c-5.9.86-16.3,2.85-30.89,5.93l-0.24-.28-0.2.06a21.66,21.66,0,0,1-8.35.92,0.75,0.75,0,0,1-.78-0.43l0-.27c1.66-2.39,5.43-6.17,11.2-11.21,7-5.41,10.26-7.6,11.79-8.37-0.35.7-.74,1.58-1.18,2.65l-0.17.16-0.08.1c-2,4.1-4,7.08-6,8.87l-0.11.1,0,0.69,0.32,0.48,8.24-.85,3.23-5.48L285.55,25l-7.51.3-0.09.09h0l-7.34.46c-0.32,0-.86-0.07-11.15,9.39a98,98,0,0,0-7.19,7.14l0-.07,1.32-4q3-7.73,4.78-9.84l0-.19-2.48.16q-4.81-.28-4.93,1.23Q243.73,42,242.57,52.54l-0.28.66,0.22,0-0.31.82,0.09,1.13,0,0.22-0.22.19,0.09,1.32,0,0.25-0.22,0L238.77,53a48.17,48.17,0,0,0-16-12.73q-0.06.44-6.91,0.6l3.24,4.75q3,6.79,2.67,10l-0.22.19,0.13,0.66q0.69,1.38,4.59,4.46l0.22,0a22.5,22.5,0,0,0,2.36-7.45l0.06-.66q0-.38-2.23-1.79l0-.22,0.22,0q6.54,3.36,12.16,13.64l2.67-.16,0,0.25,0.25-.22,1.92,0.41,0.22,0.06,0.25-.22a13.23,13.23,0,0,1,3.8,1.51V66l0.25-.22,0.38-3.27-0.13-1.13,0.25-.16-0.06-1.32V59.61l0.25-.19L249,58.77q0.37-2.27.72-4.26L250,54.56c3.21,0.35,11.11-1.88,24.13-6.79a166.38,166.38,0,0,1,23.42-3.83l0.18,0.25,1.35-.07,1,0.12a1.73,1.73,0,0,1,1.42.68l0,0.1c-0.78,2.57-4,6.74-9.74,12.4a45.13,45.13,0,0,1-7.43,6.75,19.15,19.15,0,0,0,2-6.5,19.52,19.52,0,0,0-.23-5.6l0-.08a8.39,8.39,0,0,0-4.74-4.47l-0.09,0-0.1,0c-6.56,1.53-6.58,1.76-6.61,2.11l-0.08.85,1.26,0.6V50.84l1.77,0.66a10.73,10.73,0,0,1,1.4,6.18,36.85,36.85,0,0,1-3.3,10.84l0,0.08L275.56,70l-0.1.66,5.93,1.78,0.68,0.1,0.08-.29c0.24-.83,1.46-2.33,5.93-4.8l0,0c7.31-5.45,12.61-9.9,16-13.42,0.28,1.16.63,2.4,1.06,3.73q3,6.13,5.69,6.38l2,0.19q2.92,0.25,6.32-5a43.22,43.22,0,0,0,3.14-13c0.07-.76.13-1.46,0.18-2.13A36.79,36.79,0,0,1,326,59.68l-1,4.93h3.11l2.45,0.66q1.13-14.74-2.73-23.48a21.1,21.1,0,0,0-2.45-4.49,54.62,54.62,0,0,1,19.17-3.43,1.44,1.44,0,0,1,1.32.79q0.6,0.79-.38,3.14l-2.11,3.33a62,62,0,0,1-12.13,10.72l0.19,1.45a18.28,18.28,0,0,0,3.63,5q2.56,2.64,9.48,6.79,7.1,1,6.13-.19Q341.44,59,337,52.83Z" style="fill:#fff"/><path d="M374,43.15A67.31,67.31,0,0,0,360.4,47.2l-0.66-.06q-1.64-2-1.51-3.11,0.06-.63,3.93-0.75,10.69-2.29,16.53-6,0.06-.88-1.92-3.83l-0.44,0a35.13,35.13,0,0,1-7.24,3.87q-5.17,2.23-15.92,3.27l-1.6-.16q-0.91.22-1.1,1.95l0,0.19q-0.16,1.67.72,1.92l0.25-.22,1.35,0.16a12.39,12.39,0,0,1,2.07,4.05l-0.09.66-2.14,1.38q-0.06.44,1.45,1.07,2,0.19,1.67,8.11v1.07L355.24,67l5.53,0.5a32.1,32.1,0,0,0,.91-12.92l-0.91-4.18L361,50q2.77-.72,8.63-2.14t7-2.14A10,10,0,0,0,374,43.15Z" style="fill:#fff"/><polygon points="75.84 34.25 75.89 34.12 75.82 34.24 75.84 34.25" style="fill:#fff"/><path d="M80.63,37.56l0.1,0h0l-0.15,0h0Z" style="fill:#fff"/><path d="M75.73,40.41l-0.13,0Z" style="fill:#fff"/><polygon points="31.32 64.94 31.32 64.94 31.32 64.94 31.32 64.94" style="fill:#fff"/><path d="M59.08,50.07c0,0.6,0,1.22,0,1.81v0.59a6,6,0,0,1-.65,2.73A2,2,0,0,1,57,56.37a4.94,4.94,0,0,0-1,.33c-1,.46-1.91.87-2.73,1.26l-0.45.23,0.55,0.41L54,59l1.35,1a33,33,0,0,0,6.52,3.45A44.33,44.33,0,0,0,66.64,65c0.64,0.19,1.32.33,2,.48l0.07,0,1,0.24a13.69,13.69,0,0,0,1.8.27l1.08,0.13a11.06,11.06,0,0,0,1.91.05H74.8L74.74,66a8.18,8.18,0,0,0-.45-1.42h0c-0.14-.3-0.27-0.61-0.41-0.92S73.6,63,73.45,62.67s-0.39-.79-0.63-1.22A48.53,48.53,0,0,0,70.06,57a58.17,58.17,0,0,0-9.57-10.4l-0.2-.19-0.35-.31-0.39.41A21.5,21.5,0,0,0,59.08,50.07Z" style="fill:#fff"/><polygon points="59.66 45.46 59.66 45.46 59.66 45.46 59.66 45.46" style="fill:#fff"/><path d="M56.06,71.68c-0.42-2.34-1-4.62-1.49-6.53-0.24-.92-0.49-1.83-0.75-2.75l-0.37-1.34,0-.19-0.2-.78-0.05,0-0.29-.27-0.8-.7-0.29-.25a18.7,18.7,0,0,0-1.6,1.11,2.68,2.68,0,0,1-2.26.8,7.89,7.89,0,0,0-1.26.1,19.69,19.69,0,0,0-5.12,1.72l-0.31.17a72.37,72.37,0,0,0,3.28,9.09A38.17,38.17,0,0,0,48,78.27c0.2-1.09.46-2.16,0.71-3.2l0.12-.5c0.22-.91.41-1.84,0.58-2.71a7.94,7.94,0,0,0,.09-1.94L49.36,69l0.87-.35,0.41,0.85,0.72,1.4c0.9,1.74,1.83,3.54,2.62,5.38a22.24,22.24,0,0,1,1.46,5.24,2.63,2.63,0,0,1,0,.4,0.76,0.76,0,0,1-.59.77,0.93,0.93,0,0,1-.69-0.13,1.55,1.55,0,0,1-.39-0.42l-0.38-.56-0.49-.71a5.29,5.29,0,0,0-.43-0.54l-0.06,0-0.07,0a1,1,0,0,0-.54.62,2.9,2.9,0,0,0,0,1.72,0.91,0.91,0,0,0,.49.68,13.91,13.91,0,0,0,3.43,1.4,3.51,3.51,0,0,0,.64.06,0.1,0.1,0,0,0,.11,0l0-.06a4.1,4.1,0,0,0,.26-0.51,6.47,6.47,0,0,0,.35-2A26.3,26.3,0,0,0,57,77.86C56.76,75.94,56.46,73.92,56.06,71.68Z" style="fill:#fff"/><circle cx="60.06" cy="45.55" transform="translate(-7.54 78.9) rotate(-63.43)" style="fill:#fff"/><path d="M60.24,22.65a9.17,9.17,0,0,1,3.16,5.16L64,27.24a26.86,26.86,0,0,0,3-3.35,28.89,28.89,0,0,0,4.19-8c0.08-.24.16-0.47,0.25-0.7a10,10,0,0,0,.5-1.61c0.11-.57.23-1.14,0.36-1.67a9.29,9.29,0,0,0,.26-2c0-.35,0-0.7.05-1.06l0-.57a2.5,2.5,0,0,0,0-.37L72.3,8.3c-1.56,1.59-3.23,3.17-5,4.69-2.48,2.16-5.09,4.15-7.09,5.65L58.36,20h0l-1.23.91v0h0A10,10,0,0,1,60.24,22.65Z" style="fill:#fff"/><path d="M34.6,61.94a15.69,15.69,0,0,1,5.56-1l0.09,0a19.62,19.62,0,0,1,3.63-1.46A13.09,13.09,0,0,1,47,58.82c0.41,0,.82,0,1.22,0h0.28a0.11,0.11,0,0,0,.09,0,20,20,0,0,1,3.33-2.12,22.75,22.75,0,0,1,4.8-2,2.86,2.86,0,0,0,.58-1.46c0-.39.05-0.8,0.06-1.2V51.65a31.08,31.08,0,0,1,.55-4.92,7.34,7.34,0,0,1,.57-1.85l0.29-.58,0-.09c0.21-.41.42-0.84,0.6-1.27A27,27,0,0,0,61,38.21a6.56,6.56,0,0,1-.87.73,11.56,11.56,0,0,1-4.81,1.92,15.14,15.14,0,0,1-2.61.17l1.21,0.28,0.16,0,0.32,0.07a2.15,2.15,0,0,1,1,.71,3.24,3.24,0,0,1,.81,2.05,10,10,0,0,1-.9,4.85,4.15,4.15,0,0,1-.56.83,1.79,1.79,0,0,1-1.13.64c-0.55.07-1.14,0.14-1.74,0.18l-0.61,0c-1.76.09-3.54,0.18-5.29,0.24-0.91,0-1.84,0-2.74,0l-0.68,0-6.36-.18-3.65-.1c-0.6,0-1.19,0-1.79-.06s-1.31-.1-2-0.16L10.72,48.88c0,0.15,0,.31,0,0.46s0,0.45,0,.68a2,2,0,0,1-.59,1.42,11.72,11.72,0,0,1-1.11,1,11.87,11.87,0,0,1-2.27,1.27c-0.35.16-.69,0.32-1,0.5a2,2,0,0,1-1.54.15A8,8,0,0,1,1.92,56L1.85,56c0.32,0.14.68,0.28,1,.4a60.92,60.92,0,0,0,6,1.62c2.3,0.52,4.4,1,6.42,1.36l1.27,0.24,0.11,0c1.06,0.2,2.16.4,3.22,0.67l1.79,0.44L31,63.11a0.49,0.49,0,0,0,.32,0Z" style="fill:#fff"/><polygon points="28.88 33.35 28.88 33.35 28.88 33.35 28.88 33.35" style="fill:#fff"/><path d="M10.7,47.81l2.12,0.13,11.26,0.53c1.56,0.08,3.11.15,4.67,0.21,2.35,0.08,4.72.12,6.51,0.15,3.13,0,6.48.09,9.81,0.1h0c1.14,0,2.41,0,4-.13,0.89,0,1.8-.14,2.68-0.22l0.71-.07a4.28,4.28,0,0,0,.72-0.14,2.64,2.64,0,0,0,.42-0.69,8,8,0,0,0,.5-2.79V44.69c0-.2,0-0.39,0-0.59A0.85,0.85,0,0,0,54,43.64a0.57,0.57,0,0,0-.42-0.33c-2.36-.54-4.42-1.08-6.3-1.65-1.12-.34-2.23-0.73-3.31-1.1l-1-.35-9.12-3.13L33.62,37A6.49,6.49,0,0,1,33,36.75l-0.89-.42c-0.55-.26-1.1-0.53-1.66-0.77a28.33,28.33,0,0,1-2.61-1.37l-0.06,0-0.7-.4a12.74,12.74,0,0,0-4.38-1.5H20.13l0.66-.81a0.51,0.51,0,0,1,.33-0.23,5.94,5.94,0,0,1,2.13-.16,14.93,14.93,0,0,1,3.45,1l0.13,0A11,11,0,0,1,28,32.6l1,0.53,0.06,0c0.64,0.34,1.29.69,2,1,1.34,0.59,2.68,1.12,4.28,1.72,2.81,1.06,5.74,1.94,8.58,2.79L45.12,39l0.54,0.16a10.54,10.54,0,0,1-4.77-5.46c-0.09-.23-0.18-0.45-0.28-0.68l-0.4-1c-0.71-1.71-1.44-3.48-2.3-5.15A11.37,11.37,0,0,0,36,24.22L34.1,23.06l1.77,0a1.17,1.17,0,0,1,.94.36l0.12,0.09a2.66,2.66,0,0,1,.43.39,14.38,14.38,0,0,1,1,1.32,37.35,37.35,0,0,1,3,5.64l0.38,0.9a24.72,24.72,0,0,0,1.09,2.39,8.73,8.73,0,0,0,2.32,2.69,10.36,10.36,0,0,0,3.32,1.74,13.76,13.76,0,0,0,6.38.45,8.15,8.15,0,0,0,5.26-2.84,3.86,3.86,0,0,0,.7-1.17,14,14,0,0,0,.77-4.23,9.1,9.1,0,0,0-.22-2.38A7.32,7.32,0,0,0,56,22.83a9.35,9.35,0,0,0-2.51-.3,12.84,12.84,0,0,0-3.44.28c-0.73.19-1.47,0.43-2.18,0.65a1.93,1.93,0,0,1-1.1,0c-2.23-.56-4.46-1.13-6.7-1.67a41,41,0,0,0-5.76-1,6,6,0,0,0-2.17.12c-0.51.14-1,.27-1.54,0.39l-1.43.36-1,.27c-1.91.52-4.07,1.11-6.14,1.71a27.58,27.58,0,0,1-4.78,1c-0.94.1-1.86,0.23-2.74,0.38a18.41,18.41,0,0,0-4.17,1.23A2.68,2.68,0,0,0,9,27.61a6.66,6.66,0,0,0-.69,2l0.35-.24,0.14-.09L9,29.15l0.85-.53a1.92,1.92,0,0,1,.65-0.27,1,1,0,0,1,.91.3,1,1,0,0,1,.16,1,2.22,2.22,0,0,1-.31.6,15.16,15.16,0,0,0-1.44,2.28,0.82,0.82,0,0,1-.09.14l-0.37.53L9,32.7a1.81,1.81,0,0,1-.3-1.57c0.05-.24.12-0.47,0.19-0.7l-0.7-.24a2.37,2.37,0,0,1-.73,1,10.19,10.19,0,0,1-1.7,1.13,21.6,21.6,0,0,1-3.18,1.38,1.7,1.7,0,0,0-.54.27,2.7,2.7,0,0,0-1,2.41c0,0.22,0,.43.07,0.65s0,0.37.06,0.52a2,2,0,0,0,.32.89,0.48,0.48,0,0,0,.12.15,1.57,1.57,0,0,0,.17-0.09l0.35-.22c0.29-.19.63-0.4,1-0.58a17.86,17.86,0,0,1,3.26-1.32l0.28-.09L7,36.15c0.33-.1.66-0.21,1-0.33a13.71,13.71,0,0,1,2.12-.6l0.54-.11L11,35l1-.2c0.78-.15,1.66-0.32,2.52-0.46a19.78,19.78,0,0,1,4-.2h0.28a30.3,30.3,0,0,1,4.38.41l1,0.17a18.55,18.55,0,0,1,2.14.44l0.74,0.19c0.37,0.09.71,0.18,1,.28a16.33,16.33,0,0,1,1.65.62c0.3,0.13.59,0.29,0.88,0.44l0.6,0.31,1.32,0.66c0.85,0.43,1.73.88,2.62,1.23l1.26,0.51c0.88,0.36,1.88.76,2.86,1.12,1.16,0.43,2.37.8,3.44,1.12a8.91,8.91,0,0,0,2.45.45,20.55,20.55,0,0,1,3.52.36,6.49,6.49,0,0,1,2,.68,1.91,1.91,0,0,1,.9,1,3.71,3.71,0,0,1,0,2.63A2.3,2.3,0,0,1,50.71,48a1.56,1.56,0,0,1-.67.26c-0.75.08-1.53,0.16-2.29,0.2-2.45.13-4.88,0.18-7.25,0.15q-6.11-.08-12.22-0.2H28a42.92,42.92,0,0,1-5.07-.29c-2.25-.3-4.57-0.62-6.83-1.11l-0.47-.1a21.62,21.62,0,0,1-3.67-1l-0.13,0L11,45.65H10.94a19.86,19.86,0,0,0-2-.34l-0.35,0a12.72,12.72,0,0,0-2.13-.11,3.79,3.79,0,0,0-.63.11l-0.25.08a3,3,0,0,1-.47.13,11.64,11.64,0,0,0-3,1,5.35,5.35,0,0,0-.72.44l-0.08.05a0.06,0.06,0,0,0,0,.07c0,0.62,0,1.24,0,1.86v0.81l1.58-.41L1.89,50.43a1.61,1.61,0,0,1-.48.39,3.41,3.41,0,0,0-.88.69,1.43,1.43,0,0,0-.39.91c0,0.42,0,.85-0.06,1.27V53.8C0,54.2,0,54.59,0,55c0,0,0,.08,0,0.13A1.12,1.12,0,0,0,.59,54.9C1,54.62,1.44,54.32,1.85,54L2,53.89a2.66,2.66,0,0,0,.73-0.71,1.3,1.3,0,0,0,.15-0.39,0.85,0.85,0,0,1,.64-0.68,0.88,0.88,0,0,1,.95.33c0.11,0.14.15,0.16,0.35,0.08l0.54-.23c0.38-.16.76-0.32,1.13-0.5a14.94,14.94,0,0,0,1.56-.85,5,5,0,0,0,.73-0.64L9,50.16a0.22,0.22,0,0,0,0-.09,10.83,10.83,0,0,0,.16-2.63v0h0a1.34,1.34,0,0,0-.73.44,2,2,0,0,1-1.47.74,0.87,0.87,0,0,1-.93-1,1.81,1.81,0,0,1,.06-0.34L6.2,46.7l0.95,0.17v0.35a3.09,3.09,0,0,0,.38-0.38A2.5,2.5,0,0,1,9,46a1.44,1.44,0,0,1,1.15.11,1.4,1.4,0,0,1,.52,1C10.66,47.35,10.69,47.58,10.7,47.81Zm34.1-19.28a0.85,0.85,0,0,1,.59.63h0l0.37,0.77,1.14,2.37a2.56,2.56,0,0,0,.29.46,8,8,0,0,0,3.34,2.6,5.87,5.87,0,0,0,4.08.19,7.51,7.51,0,0,0,2.19-1.11A2.27,2.27,0,0,0,57.19,34L57.25,34a5,5,0,0,0,.68-5.53,4.14,4.14,0,0,0-2.57-2.11,10.29,10.29,0,0,0-1.13-.24l-0.1,0H54l-0.2,0a5.57,5.57,0,0,0-2.19.51,3.7,3.7,0,0,0-2.37,3.09A2.49,2.49,0,0,0,50,31.91,3.72,3.72,0,0,0,52.38,33a2.68,2.68,0,0,0,1.45-.3A2,2,0,0,0,54.9,30.9a0.3,0.3,0,0,0-.07-0.24,0.28,0.28,0,0,0-.23,0,1.9,1.9,0,0,0-.52.26,3.85,3.85,0,0,1-1.6.71,1.91,1.91,0,0,1-1.92-1,1.87,1.87,0,0,1,.19-2.13,1.43,1.43,0,0,1,.89-0.52l0.16,0a3.62,3.62,0,0,1,.57-0.06l1.53,0-1.24.87a1,1,0,0,1-.23.14L52.19,29a1.82,1.82,0,0,0-.29.12,0.52,0.52,0,0,0-.2.71,0.55,0.55,0,0,0,.67.35,2.34,2.34,0,0,0,.71-0.4l0.13-.09a3.76,3.76,0,0,1,.89-0.5,1.78,1.78,0,0,1,1.51.12,1.85,1.85,0,0,1,.89,1.28,3.1,3.1,0,0,1-.28,1.9,3.88,3.88,0,0,1-3.14,2.27,4.74,4.74,0,0,1-2.55-.36,5.87,5.87,0,0,1-1.63-1,4.49,4.49,0,0,1-1.52-4.64,5.49,5.49,0,0,1,2.51-3.56,7.91,7.91,0,0,1,3-1.2,6.39,6.39,0,0,1,3.63.5,6.19,6.19,0,0,1,3.86,5.05,7,7,0,0,1-1.57,5.51,5.45,5.45,0,0,1-2,1.63,8.57,8.57,0,0,1-3.24.89H53.08a8,8,0,0,1-4.89-1.68,9.16,9.16,0,0,1-3.35-4.63c-0.12-.4-0.24-0.8-0.35-1.21l-0.29-.89-0.38-1ZM18.26,27.16l-3.45,1.31-2.63,1-0.34-.82,0.35-.32,0.27-.15,0.9-.57c0.79-.5,1.58-1,2.38-1.48a4.64,4.64,0,0,1,.81-0.36c0.16-.06.32-0.12,0.47-0.19A7.87,7.87,0,0,1,19.35,25a4.61,4.61,0,0,1,1.64.11,14.09,14.09,0,0,1,4.11,1.78c0.74,0.45,1.52.87,2.28,1.27l0.09,0a3.48,3.48,0,0,1,.49-2.5,2.35,2.35,0,0,1,1.19-1,4.83,4.83,0,0,1,2.33-.36A4.07,4.07,0,0,1,35,27.19a4.43,4.43,0,0,1-1.31,4.64,2.67,2.67,0,0,1-.85.53,1.09,1.09,0,0,1-.44.09,1.08,1.08,0,0,1-.81-1.74,2.58,2.58,0,0,1,.24-0.26L32,30.32a2.29,2.29,0,0,0,.67-1.73A1.34,1.34,0,0,0,32.44,28a2,2,0,0,0-1.76-.71,0.64,0.64,0,0,0-.55.59,1.26,1.26,0,0,0,0,.74,0.44,0.44,0,0,0,.47.32,1,1,0,0,0,.19-0.07l0.1,0a1,1,0,0,1,.29-0.13l0.65-.15,0,0.67a1.08,1.08,0,0,1-.8,1,5.55,5.55,0,0,1-1.13.22,6.36,6.36,0,0,1-2.12-.3,8.92,8.92,0,0,1-1.18-.42L22.8,28,22,27.62a8.66,8.66,0,0,0-2.31-.71A2.72,2.72,0,0,0,18.26,27.16Z" style="fill:#fff"/><path d="M81.4,37.36A0.91,0.91,0,0,1,81,38h0l-0.49.93c0.28-.2.54-0.42,0.82-0.64h0V38.22c0-.36.09-0.73,0.12-1.1l-0.06.11Z" style="fill:#fff"/><path d="M79.82,38.08l-2.23.12-1.36,0a0.87,0.87,0,0,1-.9-0.59,0.86,0.86,0,0,1,.56-1.09c0.43-.15.87-0.3,1.3-0.43a16.26,16.26,0,0,1,2.59-.53,1.66,1.66,0,0,1,1.19.31l0.3-.56a4.07,4.07,0,0,0-.58-0.48,19.93,19.93,0,0,0-4.19-2l-0.37-.13h0l0.17,0.15a1,1,0,0,1,.21,1.22l0,0.2-0.26.14L76.06,35l-0.15-.11,0,0.06-0.67-.18-1-.15-1.86-.29L71,34.14l-0.45-.07A2.35,2.35,0,0,1,70.22,34a0.87,0.87,0,0,1-.63-1,0.85,0.85,0,0,1,.8-0.75h0a20.1,20.1,0,0,1,3.14-.09l0.63,0,0.43,0c-1.31-.38-2.73-0.72-4.28-1-1.15-.22-2.1-0.39-3-0.52a20.12,20.12,0,0,0-2.77-.14H63.69a11.26,11.26,0,0,1-.29,2.59,26.33,26.33,0,0,1-.76,2.74,4.76,4.76,0,0,0-.27,1.22,18.68,18.68,0,0,1-.33,2.24A25.56,25.56,0,0,1,60.56,44h0.13c0.53,0,1.07-.06,1.6-0.11l0.78-.07c0.88-.07,1.78-0.15,2.66-0.28,2.34-.36,4.74-0.86,7.13-1.48a29,29,0,0,0,6.84-2.59A7.13,7.13,0,0,0,80.46,39l0-.94Zm-3.37,2a0.83,0.83,0,0,1-1,.83L74.94,41l-1.16.2-1.38.25-1.56.28-0.2,0A0.93,0.93,0,0,1,70,41.49a0.87,0.87,0,0,1-.2-0.82A0.92,0.92,0,0,1,70.35,40L71,39.8c0.56-.23,1.14-0.47,1.73-0.68s1-.31,1.5-0.45l0.27-.07a1.9,1.9,0,0,1,1.53.22,1,1,0,0,1,.5,1Z" style="fill:#fff"/><path d="M81.47,36.26l0.05,0c0-.19,0-0.38,0-0.56Z" style="fill:#fff"/><path d="M75.42,33.62a1.27,1.27,0,0,0-.59-0.09l0.69,0.23a0.08,0.08,0,0,0,0-.07Z" style="fill:#fff"/><path d="M79.87,36.88h0l0.16,0L80.38,37l0,0,0-.06A0.63,0.63,0,0,0,79.87,36.88Z" style="fill:#fff"/><path d="M74.72,39.83l0,0h0.48a0.93,0.93,0,0,1,.26,0,0.63,0.63,0,0,1,0-.07,0.06,0.06,0,0,0,0-.06A0.93,0.93,0,0,0,74.72,39.83Z" style="fill:#fff"/><polygon points="31.34 64.93 31.32 64.94 31.32 64.94 31.34 64.94 31.34 64.93" style="fill:#fff"/><path d="M40.14,63.64c0-.21-0.06-0.43-0.09-0.64H39.42a14.27,14.27,0,0,0-4,.74l-3,1L31.58,65c0,0.14,0,.27,0,0.41l0.1,0.93c0.08,0.79.17,1.58,0.27,2.37,0.16,1.27.32,2.54,0.5,3.81,0.24,1.67.46,3.15,0.69,4.51,0.14,0.85.29,1.71,0.45,2.56l0,0.16c0.08,0.45.16,0.91,0.24,1.36l0,0.27a10.62,10.62,0,0,1,.17,1.18c0.05,0.82.09,1.63,0.13,2.45l0.06,1.24q0,0.24,0,.48l0,0c0.42-.42.92-0.91,1.36-1.42A35,35,0,0,0,39.43,80a28.14,28.14,0,0,0,2.3-4.73,10.77,10.77,0,0,0,.7-2.83,0.65,0.65,0,0,0,0-.28A31.85,31.85,0,0,1,40.14,63.64Z" style="fill:#fff"/><path d="M47.39,21.55l0.39-.13c0.44-.15.89-0.3,1.36-0.43a12.21,12.21,0,0,1,3.49-.45h0.21l0.47,0a11.78,11.78,0,0,1,2.12,0,3.61,3.61,0,0,0,.21-0.46l0.22-.63c0.29-.82.58-1.66,0.82-2.49,0.74-2.6,1.47-5.25,2.17-7.81l0.22-.81c0.28-1,.56-2.06.79-3.1a14.58,14.58,0,0,0,.35-3.7A4.38,4.38,0,0,0,60,.21C60,0,59.89,0,59.64,0a5.84,5.84,0,0,0-.66.2A12.76,12.76,0,0,0,56.6,1.41l-1.09.65a2.36,2.36,0,0,0,.36.62A0.85,0.85,0,0,0,57,2.83a3.9,3.9,0,0,0,.41-0.34l0.36-.32,0.3-.26a0.77,0.77,0,0,1,1,0,0.81,0.81,0,0,1,.2,1c-0.13.31-.27,0.62-0.42,0.92C58.32,5,57.77,6.19,57.27,7.43,57,8,56.78,8.64,56.52,9.23a17.08,17.08,0,0,1-1.62,3,6.1,6.1,0,0,1-1.22,1.24l-0.88.7,0-1.16,0.07-.33c0-.18.08-0.34,0.1-0.51a7,7,0,0,0-.26-3c-0.27-.91-0.57-2-0.79-3.08l-0.42.65c-0.59.9-1.2,1.82-1.76,2.76-1.1,1.8-2.21,3.7-3.19,5.38L46,15.84a41.14,41.14,0,0,0-2.45,4.83l0.93,0.23,2.64,0.67A0.37,0.37,0,0,0,47.39,21.55Z" style="fill:#fff"/><path d="M40.05,19.92c-0.26-.43-0.53-0.87-0.83-1.27A16.25,16.25,0,0,0,33,13.4a31.46,31.46,0,0,1,.72,5.6A42.45,42.45,0,0,1,40.05,19.92Z" style="fill:#fff"/><path d="M18.5,41a4.49,4.49,0,0,0,0,1.53,8.4,8.4,0,0,0,.36,1.5c0.63,0,1.28-.08,1.93-0.08a12.36,12.36,0,0,1,1.76.11,6.61,6.61,0,0,1-.65-4.19,7.64,7.64,0,0,1,.77-2.21,3.94,3.94,0,0,1,.5-0.79,6.74,6.74,0,0,0-1.73.54A5,5,0,0,0,18.5,41Z" style="fill:#fff"/><path d="M15.5,39.44a3.57,3.57,0,0,0-1.41,0c-0.49.1-1,.25-1.46,0.39L12,40l-0.85.25h0a15.53,15.53,0,0,0,.66,3,6.48,6.48,0,0,0,.33.75l0.12,0.25,0.69,0.22,0.46,0.14,0.28,0.09c0.28,0.09.6,0.19,0.91,0.25l1.76,0.36A5.62,5.62,0,0,1,15,41,4.21,4.21,0,0,1,15.5,39.44Z" style="fill:#fff"/><path d="M26.15,46.55l1.44,0a3.64,3.64,0,0,1-.53-2.81A4.39,4.39,0,0,1,28.82,41a22.06,22.06,0,0,0-3.35-.92l0,0.06a9.26,9.26,0,0,0-.33.9,7.28,7.28,0,0,0,0,3.66A5.36,5.36,0,0,0,26.15,46.55Z" style="fill:#fff"/><path d="M33.84,41.8l0.41-.64a2.42,2.42,0,0,0-.66-0.06,2.14,2.14,0,0,0-1.52.81,4.71,4.71,0,0,0-.85,1.46,9.46,9.46,0,0,0-.56,2.78l0,0.48H33.9a4.3,4.3,0,0,1-.59-3.42A3.88,3.88,0,0,1,33.84,41.8Z" style="fill:#fff"/><path d="M10.7,37.38c0.07,0.3.13,0.61,0.21,0.92A8.5,8.5,0,0,1,13,37.52l0.12,0a5.12,5.12,0,0,1,2.44-.07,7.15,7.15,0,0,1,.89.26l0.14,0a4.82,4.82,0,0,0,1-1.68,39.61,39.61,0,0,0-7,.9Z" style="fill:#fff"/><path d="M6.48,40.68a22.33,22.33,0,0,0-3.32,1.12,12,12,0,0,0,.69,2.52l0.07,0,0.55-.13a4.07,4.07,0,0,0,1-.3A1.31,1.31,0,0,1,6,43.75l1.07,0a3.24,3.24,0,0,1-.61-1.39A4.15,4.15,0,0,1,6.48,40.68Z" style="fill:#fff"/><path d="M29.23,38.32h0A3.71,3.71,0,0,0,28.67,38c-0.89-.31-1.83-0.61-2.67-0.87l-0.19-.06L25.57,37a3.65,3.65,0,0,0-.09.85,2.38,2.38,0,0,0,.07.44,0.36,0.36,0,0,0,0,.07,9.71,9.71,0,0,1,2.57.43,7.41,7.41,0,0,1,2.19,1,4.47,4.47,0,0,0,.89-0.54l-1.64-.81Z" style="fill:#fff"/><path d="M37.25,46.06a11.06,11.06,0,0,1,.41-1.86,5.52,5.52,0,0,1,.8-1.62l-1.71-.67a4,4,0,0,0-.49,2.29A2.58,2.58,0,0,0,37.25,46.06Z" style="fill:#fff"/><path d="M4.35,39a7.07,7.07,0,0,0-1.58.88,2.84,2.84,0,0,0,0,.29,11.22,11.22,0,0,1,4.49-1.39,8.52,8.52,0,0,0,.11-0.92l-0.14.05Z" style="fill:#fff"/><path d="M46.6,44.37l-1.15-.08a2.37,2.37,0,0,0,.68,1.65,1.41,1.41,0,0,0,.48.3A3.47,3.47,0,0,1,46.6,44.37Z" style="fill:#fff"/><path d="M54.21,9.82a6.06,6.06,0,0,1,.1,1,8,8,0,0,0,.41-0.87c0.7-1.74,1.39-3.48,2.07-5.22l0-.08A2.49,2.49,0,0,1,55,4.13a3.2,3.2,0,0,1-1.1-1.61A4.58,4.58,0,0,1,53.66.73a9.34,9.34,0,0,0-.44,2.83,14.73,14.73,0,0,0,.4,3.57C53.81,7.91,54,8.87,54.21,9.82Z" style="fill:#fff"/><path d="M50.28,80.28a2.58,2.58,0,0,1,1.32-1.42,1.81,1.81,0,0,1,1.65,0,22.39,22.39,0,0,0-1-3l-1.57-3.59c-0.06.5-.13,1-0.22,1.51-0.14.77-.29,1.54-0.44,2.31l0,0.09c-0.18.92-.36,1.85-0.53,2.77a8.35,8.35,0,0,0-.1,2.69,3.32,3.32,0,0,0,1,2.1c-0.07-.16-0.12-0.31-0.17-0.46A4.24,4.24,0,0,1,50.28,80.28Z" style="fill:#fff"/><path d="M19,45.82l0.54,0.08L20,46,20.45,46l2,0.25,1.42,0.13,0.21,0L23.83,46h0c-0.35-.06-0.7-0.1-1-0.12l-3.08-.21L19,45.62s0,0.09,0,.14v0.06Z" style="fill:#fff"/><path d="M42.17,46.62a4.28,4.28,0,0,1,.45-2.17,2.67,2.67,0,0,0-1.46.77,3.91,3.91,0,0,0-.9,1.44Z" style="fill:#fff"/></svg>